<svg width="406" height="63" viewBox="0 0 406 63" fill="none" xmlns="http://www.w3.org/2000/svg">
<path d="M404.447 6.6041C403.629 5.85043 402.547 5.43937 401.429 5.45734C400.293 5.43206 399.192 5.84318 398.357 6.6041C397.932 7.00268 397.598 7.48714 397.379 8.02449C397.161 8.56183 397.061 9.13944 397.089 9.718C397.061 10.2927 397.159 10.8666 397.378 11.3998C397.597 11.933 397.931 12.4127 398.357 12.8054C399.192 13.5663 400.293 13.9775 401.429 13.9522C402.547 13.9702 403.629 13.5591 404.447 12.8054C404.874 12.4135 405.21 11.9342 405.431 11.401C405.651 10.8677 405.751 10.2934 405.724 9.718C405.75 9.13878 405.65 8.56076 405.43 8.02338C405.209 7.48599 404.874 7.00189 404.447 6.6041V6.6041Z" fill="#10405A"/>
<path d="M404.902 18.7036H397.893V48.6463H404.902V18.7036Z" fill="#10405A"/>
<path d="M367.737 48.6551H374.756V24.4892C375.22 24.4187 375.935 24.3217 376.899 24.207C377.823 24.0934 378.754 24.0345 379.685 24.0306C380.719 24.0067 381.748 24.1711 382.721 24.5157C383.525 24.821 384.214 25.3629 384.695 26.068C385.236 26.9011 385.601 27.8343 385.766 28.8109C385.999 30.1625 386.106 31.5323 386.088 32.9032V48.6551H393.098V31.8184C393.112 29.9406 392.908 28.0675 392.49 26.2355C392.137 24.6483 391.422 23.1614 390.401 21.8874C389.348 20.6287 387.982 19.6621 386.436 19.0828C384.437 18.3528 382.315 18.0114 380.185 18.0773C377.794 18.0647 375.405 18.2387 373.041 18.5977C371.263 18.8618 369.501 19.224 367.764 19.6825L367.737 48.6551Z" fill="#10405A"/>
<path d="M359.512 21.9226C357.179 19.3649 353.928 18.0832 349.761 18.0773C347.971 18.0799 346.197 18.4212 344.537 19.0827C342.835 19.7463 341.297 20.7629 340.027 22.0638C338.639 23.488 337.56 25.1778 336.857 27.0292C336.022 29.2391 335.619 31.5855 335.67 33.9438C335.64 36.0351 335.941 38.1182 336.563 40.1176C337.134 41.9458 338.103 43.6285 339.402 45.0478C340.753 46.4905 342.421 47.6071 344.278 48.3111C346.496 49.1392 348.855 49.5375 351.225 49.4841C352.255 49.4818 353.283 49.4258 354.306 49.3165C355.306 49.2019 356.235 49.0607 357.11 48.8755C357.892 48.7352 358.665 48.5467 359.423 48.3111C359.974 48.1582 360.509 47.9545 361.021 47.7025L360.128 42.0403C359.054 42.4672 357.942 42.7949 356.807 43.0193C355.271 43.3351 353.705 43.4859 352.136 43.4691C349.243 43.4691 347.02 42.8164 345.501 41.4935C344.714 40.7864 344.078 39.9302 343.631 38.9757C343.185 38.0213 342.937 36.9879 342.903 35.9371H362.906C362.95 35.5667 362.986 35.1257 363.004 34.6494C363.022 34.1732 363.004 33.7674 363.004 33.3706C363.04 28.2993 361.87 24.4715 359.512 21.9226ZM342.974 30.8834C343.096 30.0029 343.308 29.137 343.608 28.2993C343.903 27.4872 344.348 26.7365 344.921 26.0855C345.514 25.3718 346.261 24.7984 347.108 24.4076C347.955 24.0169 348.88 23.8187 349.815 23.8277C350.737 23.8096 351.652 23.9933 352.493 24.3657C353.236 24.7148 353.886 25.2278 354.395 25.865C354.947 26.5175 355.352 27.278 355.583 28.0964C355.861 28.9755 356 29.8919 355.994 30.8129L342.974 30.8834Z" fill="#10405A"/>
<path d="M316.266 43.231C315.001 42.8997 313.757 42.4932 312.542 42.0138L311.328 47.7907C312.447 48.2094 313.588 48.5657 314.748 48.8579C316.857 49.3443 319.021 49.5637 321.186 49.5106C325.163 49.5106 328.226 48.7756 330.375 47.3056C331.43 46.5851 332.28 45.6089 332.842 44.4706C333.405 43.3324 333.663 42.0703 333.59 40.8056C333.615 39.6405 333.437 38.4799 333.063 37.3747C332.713 36.413 332.149 35.5417 331.411 34.8258C330.566 34.0164 329.599 33.3411 328.544 32.8238C327.169 32.1423 325.756 31.5386 324.312 31.0157C323.439 30.7242 322.584 30.3856 321.749 30.0015C321.153 29.7342 320.587 29.4061 320.061 29.0225C319.676 28.7511 319.369 28.3866 319.168 27.9641C318.983 27.5507 318.891 27.1021 318.9 26.65C318.883 26.1938 319 25.7425 319.238 25.351C319.476 24.9596 319.824 24.6448 320.24 24.4451C321.32 23.9265 322.513 23.681 323.713 23.7307C325.119 23.71 326.522 23.8551 327.892 24.1629C328.905 24.3875 329.894 24.7034 330.848 25.1066L332.125 19.4973C330.934 19.0853 329.713 18.7639 328.473 18.5359C326.79 18.2101 325.08 18.0476 323.365 18.0508C319.847 18.0508 317.067 18.8446 315.025 20.4321C314.021 21.1922 313.217 22.1795 312.681 23.3108C312.145 24.4421 311.892 25.6842 311.944 26.9322C311.907 28.1564 312.136 29.3741 312.614 30.5042C313.038 31.4545 313.662 32.3052 314.444 33.0002C315.272 33.7129 316.198 34.3067 317.194 34.7641C318.338 35.3122 319.509 35.8009 320.704 36.2281C322.276 36.7464 323.776 37.4576 325.169 38.3449C325.585 38.6103 325.928 38.9746 326.165 39.4044C326.402 39.8343 326.526 40.316 326.526 40.8056C326.564 41.2635 326.464 41.7222 326.238 42.124C326.012 42.5257 325.671 42.8526 325.258 43.0634C323.971 43.5831 322.583 43.8093 321.195 43.7249C319.537 43.7694 317.881 43.6034 316.266 43.231V43.231Z" fill="#10405A"/>
<path d="M304.327 21.8346C301.987 19.268 298.745 17.9892 294.575 17.9892C292.776 17.9842 290.992 18.3257 289.325 18.9946C287.642 19.665 286.12 20.6776 284.86 21.9669C283.488 23.3972 282.416 25.0819 281.707 26.9235C280.876 29.1373 280.476 31.4864 280.529 33.8469C280.504 35.9379 280.805 38.0202 281.422 40.0207C281.989 41.86 282.951 43.5567 284.244 44.995C285.589 46.4417 287.259 47.5564 289.119 48.2494C291.34 49.0757 293.703 49.4681 296.075 49.4048C297.104 49.4049 298.133 49.3519 299.156 49.2461C300.156 49.1314 301.085 48.9903 301.951 48.8051C302.737 48.663 303.512 48.4715 304.273 48.2318C304.823 48.0871 305.355 47.8861 305.862 47.6321L304.97 41.9699C303.892 42.3932 302.777 42.718 301.639 42.94C300.107 43.2634 298.544 43.4172 296.977 43.3986C294.066 43.3986 291.861 42.7372 290.343 41.423C289.554 40.712 288.919 39.851 288.475 38.8917C288.032 37.9323 287.789 36.8944 287.762 35.8402H307.72C307.72 35.4698 307.791 35.0288 307.809 34.5525C307.827 34.0763 307.809 33.6705 307.809 33.2737C307.827 28.2376 306.666 24.3834 304.327 21.8346ZM287.789 30.7512C287.904 29.8733 288.113 29.0099 288.414 28.1759C288.713 27.3616 289.161 26.6083 289.735 25.9533C290.296 25.2889 290.997 24.7531 291.789 24.3834C292.672 23.9579 293.647 23.7492 294.629 23.7749C295.55 23.7583 296.464 23.9388 297.308 24.3041C298.051 24.659 298.704 25.1744 299.219 25.8122C299.764 26.4688 300.168 27.228 300.406 28.0436C300.682 28.92 300.818 29.8335 300.808 30.7512H287.789Z" fill="#10405A"/>
<path d="M279.404 19.1092C279.056 18.9945 278.591 18.8711 278.011 18.73C277.431 18.5888 276.832 18.483 276.225 18.386C275.618 18.289 274.984 18.2184 274.368 18.1567C273.752 18.0949 273.207 18.0773 272.742 18.0773C270.475 18.0584 268.212 18.2772 265.992 18.73C264.271 19.0856 262.577 19.5541 260.919 20.1323V48.6463H267.894V24.6568C268.48 24.4875 269.076 24.3549 269.68 24.2599C270.493 24.1132 271.317 24.0364 272.144 24.0306C273.342 24.0173 274.539 24.1207 275.716 24.3393C276.531 24.4965 277.336 24.6997 278.127 24.9478L279.404 19.1092Z" fill="#10405A"/>
<path d="M255.472 24.9743C255.116 23.5397 254.394 22.2189 253.375 21.1381C252.356 20.0573 251.073 19.2525 249.65 18.8005C247.762 18.1792 245.781 17.8809 243.792 17.9186C241.963 17.9059 240.137 18.0565 238.335 18.3684C237.024 18.5713 235.729 18.866 234.46 19.2503L235.353 24.8597C236.435 24.4996 237.546 24.234 238.675 24.0659C240.15 23.8215 241.644 23.7064 243.14 23.7219C244.154 23.6891 245.166 23.8446 246.122 24.1805C246.859 24.449 247.52 24.8874 248.051 25.4594C248.533 26.0139 248.875 26.6726 249.051 27.3821C249.258 28.1291 249.36 28.9007 249.355 29.6752V30.8835C248.457 30.6558 247.544 30.4908 246.622 30.3896C245.816 30.294 245.005 30.244 244.193 30.2396C242.588 30.2346 240.986 30.4002 239.416 30.7335C237.979 31.0146 236.608 31.5558 235.371 32.3299C234.204 33.0732 233.244 34.0916 232.576 35.2933C231.853 36.6316 231.499 38.1341 231.549 39.6502C231.494 41.2059 231.799 42.7535 232.442 44.1747C233.007 45.3508 233.861 46.3692 234.924 47.1381C236.081 47.949 237.394 48.5163 238.782 48.805C240.42 49.1657 242.095 49.3373 243.774 49.3166C246.242 49.3386 248.707 49.1735 251.15 48.8227C253.338 48.514 254.972 48.2406 256.07 48.0024V29.8075C256.092 28.1771 255.891 26.5513 255.472 24.9743V24.9743ZM249.301 43.4339C247.67 43.7063 246.017 43.8215 244.363 43.7778C242.893 43.8556 241.43 43.5257 240.139 42.8253C239.103 42.2079 238.559 41.0614 238.559 39.4209C238.537 38.6829 238.746 37.9562 239.157 37.3395C239.542 36.7811 240.073 36.3361 240.693 36.0518C241.366 35.7349 242.087 35.5264 242.827 35.4344C243.606 35.3074 244.395 35.2455 245.185 35.2492C245.998 35.2388 246.811 35.3008 247.614 35.4344C248.183 35.5056 248.747 35.6146 249.301 35.7608V43.4339Z" fill="#10405A"/>
<path d="M212.654 39.6326C213.707 42.8136 214.737 45.8181 215.743 48.6463H221.458C222.274 46.8824 223.104 44.8774 223.95 42.6313C224.843 40.3823 225.655 37.9833 226.513 35.4256C227.37 32.8679 228.209 30.1779 229.066 27.3468C229.924 24.5157 230.745 21.6405 231.558 18.7036H224.316C223.971 20.3087 223.563 22.0374 223.092 23.8895C222.628 25.7328 222.128 27.6291 221.601 29.5517C221.074 31.4744 220.547 33.3618 220.003 35.1963C219.458 37.0308 218.931 38.7242 218.431 40.2323C217.836 38.4684 217.267 36.6545 216.726 34.7906C216.184 32.9267 215.663 31.057 215.163 29.1813C214.681 27.3115 214.228 25.4888 213.805 23.7131C213.383 21.9374 212.996 20.2676 212.645 18.7036H207.287C206.936 20.2735 206.537 21.9433 206.09 23.7131C205.644 25.4829 205.17 27.3057 204.67 29.1813C204.161 31.0511 203.634 32.9208 203.072 34.7906C202.509 36.6604 201.938 38.4772 201.357 40.2323C200.813 38.7065 200.268 37.022 199.723 35.1963C199.179 33.3707 198.661 31.4832 198.152 29.5517C197.643 27.6202 197.16 25.7328 196.696 23.8895C196.232 22.0462 195.803 20.3087 195.473 18.7036H188.052C188.868 21.6434 189.698 24.5245 190.543 27.3468C191.389 30.1691 192.24 32.8621 193.097 35.4256C193.99 37.9833 194.803 40.3823 195.66 42.6313C196.517 44.8803 197.321 46.8912 198.098 48.6463H203.858C204.858 45.824 205.87 42.8194 206.894 39.6326C207.918 36.4458 208.873 33.1707 209.76 29.8075C210.629 33.1707 211.594 36.4458 212.654 39.6326Z" fill="#10405A"/>
<path d="M167.112 36.7397C167.089 38.517 167.263 40.2914 167.63 42.0315C167.921 43.4631 168.531 44.8128 169.416 45.9827C170.309 47.1272 171.505 48.0061 172.871 48.5228C174.606 49.1504 176.445 49.4496 178.292 49.4048C179.858 49.4294 181.419 49.2455 182.935 48.8579C184.02 48.573 185.085 48.2194 186.123 47.7996L184.962 42.3049C184.194 42.5938 183.41 42.8411 182.614 43.0458C181.507 43.3329 180.365 43.4694 179.221 43.4515C177.372 43.4515 176.05 42.9399 175.283 41.908C174.515 40.8761 174.131 39.0858 174.131 36.678V24.4892H184.909V18.7035H174.131V9.65454L167.121 10.8011L167.112 36.7397Z" fill="#10405A"/>
<path d="M147.341 7.51213C145.299 9.70529 144.275 12.7304 144.269 16.5876V48.647H151.288V24.49H162.298V18.7043H151.27V16.7022C151.262 15.8123 151.358 14.9245 151.556 14.0563C151.724 13.2968 152.059 12.5831 152.538 11.9661C153.03 11.3619 153.669 10.8914 154.396 10.599C155.299 10.2483 156.265 10.0803 157.235 10.1051C158.181 10.0984 159.124 10.1961 160.048 10.3962C160.838 10.5591 161.608 10.8075 162.343 11.137L163.674 5.41305C162.761 5.10113 161.831 4.84198 160.888 4.63692C159.48 4.3367 158.042 4.19468 156.601 4.21358C152.47 4.21946 149.383 5.31898 147.341 7.51213Z" fill="#10405A"/>
<path d="M138.322 27.2056C137.666 25.3819 136.652 23.7037 135.34 22.2666C134.054 20.879 132.475 19.7888 130.714 19.0739C128.852 18.3146 126.853 17.9365 124.838 17.9626C122.829 17.9347 120.836 18.3129 118.98 19.0739C117.23 19.7937 115.66 20.8835 114.381 22.2666C113.051 23.6972 112.025 25.3766 111.363 27.2056C110.624 29.2758 110.259 31.4579 110.283 33.6528C110.262 35.8532 110.627 38.0405 111.363 40.1176C112.017 41.9556 113.031 43.6487 114.346 45.1007C115.625 46.477 117.187 47.5684 118.927 48.3023C120.797 49.0759 122.811 49.4515 124.838 49.4047C126.876 49.4378 128.899 49.0503 130.776 48.267C132.527 47.5339 134.101 46.4428 135.393 45.0654C136.71 43.6205 137.712 41.9247 138.34 40.0823C139.066 38.0037 139.423 35.8164 139.394 33.6175C139.416 31.435 139.054 29.2653 138.322 27.2056V27.2056ZM130.285 40.7967C129.647 41.6164 128.827 42.2803 127.888 42.7372C126.949 43.1941 125.916 43.4317 124.869 43.4317C123.823 43.4317 122.79 43.1941 121.851 42.7372C120.912 42.2803 120.091 41.6164 119.453 40.7967C118.159 39.0328 117.507 36.6603 117.507 33.6528C117.507 30.6453 118.159 28.3081 119.453 26.5971C120.095 25.782 120.916 25.1223 121.854 24.6686C122.793 24.2148 123.824 23.9789 124.869 23.9789C125.914 23.9789 126.946 24.2148 127.884 24.6686C128.823 25.1223 129.644 25.782 130.285 26.5971C131.58 28.3169 132.232 30.6806 132.232 33.6528C132.232 36.625 131.553 39.0593 130.258 40.7967H130.285Z" fill="#10405A"/>
<path d="M89.6101 42.8959C88.3395 42.571 87.09 42.1705 85.8685 41.6964L84.6541 47.4733C85.7723 47.8891 86.9143 48.2395 88.0741 48.5228C90.1823 49.0172 92.3465 49.2396 94.5125 49.1843C98.4892 49.1843 101.549 48.4493 103.692 46.9794C104.75 46.2605 105.601 45.2848 106.166 44.1463C106.731 43.0078 106.989 41.7449 106.916 40.4793C106.941 39.3143 106.763 38.1536 106.389 37.0484C106.04 36.0868 105.475 35.2154 104.737 34.4995C103.892 33.6902 102.925 33.0148 101.871 32.4975C100.496 31.816 99.0824 31.2124 97.6379 30.6895C96.6378 30.3455 95.7805 30.0103 95.084 29.6928C94.4921 29.4238 93.9296 29.0958 93.4052 28.7138C93.0228 28.4402 92.7159 28.0763 92.5122 27.6555C92.3268 27.242 92.2354 26.7935 92.2444 26.3414C92.2261 25.8849 92.3431 25.4332 92.581 25.0415C92.8189 24.6498 93.1675 24.3353 93.5838 24.1364C94.6639 23.6179 95.8576 23.3724 97.0575 23.4221C98.463 23.4014 99.866 23.5464 101.237 23.8542C102.249 24.0789 103.238 24.3947 104.192 24.7979L105.46 19.1798C104.265 18.779 103.041 18.4665 101.799 18.2449C100.12 17.9187 98.4119 17.7562 96.7003 17.7598C93.182 17.7598 90.3989 18.5536 88.351 20.1411C87.3508 20.9017 86.5498 21.8881 86.0153 23.0176C85.4808 24.1471 85.2284 25.3867 85.2791 26.6324C85.2427 27.8594 85.471 29.08 85.9489 30.2132C86.3608 31.1569 86.9693 32.0043 87.7348 32.7003C88.5633 33.4129 89.4891 34.0067 90.4852 34.4643C91.6268 35.0131 92.7984 35.4989 93.9946 35.9195C95.5658 36.4437 97.0655 37.1576 98.4595 38.0451C98.9025 38.3079 99.2682 38.6806 99.5204 39.1262C99.7726 39.5718 99.9025 40.0747 99.8972 40.5851C99.9341 41.044 99.8325 41.5034 99.6053 41.9052C99.378 42.3071 99.0352 42.6334 98.6202 42.843C97.337 43.3638 95.9507 43.5899 94.5661 43.5044C92.8944 43.5138 91.2285 43.3092 89.6101 42.8959V42.8959Z" fill="#10405A"/>
<path d="M70.956 36.7839V45.0655C70.956 51.7068 68.545 55.6491 66.8304 57.4131C64.973 59.3887 61.4011 62.3962 53.8555 62.3962H46.2473V48.6199H51.3105C51.9685 48.6569 52.6275 48.5654 53.2496 48.3505C53.8717 48.1356 54.4448 47.8015 54.936 47.3675C55.433 46.8871 55.814 46.3021 56.0505 45.6562C56.2871 45.0103 56.3731 44.32 56.3022 43.6368C56.3022 42.3667 56.3022 38.9712 56.3469 36.7839H70.956Z" fill="#7BC794"/>
<path d="M24.7176 0.0140381V13.8433H19.6455C18.9846 13.8043 18.3224 13.895 17.6971 14.1099C17.0718 14.3248 16.4958 14.6599 16.0021 15.0957C15.5046 15.5754 15.1238 16.1604 14.8887 16.8067C14.6536 17.453 14.5702 18.1436 14.6448 18.8264C14.6448 20.0788 14.6448 23.4743 14.5823 25.644H0V17.38C0 10.7476 2.41104 6.79636 4.12555 5.03243C5.98295 3.03918 9.55485 0.0140381 17.1094 0.0140381H24.7176Z" fill="#7BC794"/>
<path d="M56.4183 0.0144074C56.4183 0.0144074 49.078 -0.303101 43.9166 2.04293C38.7552 4.38896 35.5494 7.07014 33.0401 12.503C30.4594 18.0859 27.9412 30.1953 24.5926 37.4539C21.2439 44.7125 14.6895 43.6894 14.6895 43.6894V62.4047C14.6895 62.4047 22.0387 62.7222 27.1911 60.3762C32.3436 58.0301 34.9868 55.1285 37.505 49.9249C40.9787 42.7369 42.6039 32.215 45.9437 24.9829C46.7868 22.9727 48.2594 21.282 50.146 20.1583C52.0325 19.0346 54.2337 18.5371 56.4272 18.7386L56.4183 0.0144074Z" fill="#00AFAA"/>
</svg>