<svg width="499" height="300" viewBox="0 0 499 300" fill="none" xmlns="http://www.w3.org/2000/svg">
<path opacity="0.8" d="M433.425 296.158C433.425 298.227 431.212 299.847 428.384 299.847H112.269C109.441 299.847 107.228 298.227 107.228 296.158C107.228 294.089 109.441 292.469 112.269 292.469C112.638 292.469 113.13 292.469 113.499 292.559C113.499 288.51 117.925 285.271 123.458 285.271C126.286 285.271 128.745 286.081 130.589 287.431H130.712C130.712 286.981 130.589 286.531 130.589 286.081C130.589 278.433 139.073 272.315 149.401 272.315C152.352 272.315 155.18 272.855 157.762 273.754C158.131 268.536 164.033 264.487 171.164 264.487C176.943 264.487 181.738 267.096 183.705 270.785C187.025 266.916 192.927 264.307 199.689 264.307C200.919 264.307 202.149 264.397 203.255 264.577C203.009 263.497 202.886 262.418 202.886 261.338C202.886 250.991 214.321 242.623 228.461 242.623C234.854 242.623 240.633 244.333 245.182 247.122C246.043 245.952 247.764 245.143 249.732 245.143C250.469 245.143 251.084 245.233 251.699 245.413C251.699 245.413 248.518 237.606 251.699 233.972C254.88 230.337 253.517 224.431 269.872 225.794C286.227 227.157 289.077 245.413 289.077 245.413C289.692 245.233 290.307 245.143 291.044 245.143C293.012 245.143 294.733 245.952 295.594 247.122C300.02 244.333 305.922 242.623 312.315 242.623C326.455 242.623 337.89 250.991 337.89 261.338C337.89 262.418 337.767 263.497 337.521 264.577C338.627 264.397 339.857 264.307 341.087 264.307C347.849 264.307 353.751 266.916 357.071 270.785C359.038 267.096 363.956 264.487 369.612 264.487C376.743 264.487 382.645 268.626 383.014 273.754C385.473 272.855 388.301 272.315 391.375 272.315C401.826 272.315 410.187 278.523 410.187 286.081C410.187 286.531 410.187 286.981 410.064 287.431H410.187C412.031 286.081 414.49 285.271 417.318 285.271C422.851 285.271 427.277 288.51 427.277 292.559C427.646 292.469 428.015 292.469 428.507 292.469C431.089 292.379 433.425 294.089 433.425 296.158Z" fill="#D6E3EA"/>
<g filter="url(#filter0_di)">
<circle r="9.08627" transform="matrix(-1 0 0 1 311.669 210.801)" fill="#DCAD62"/>
<path fill-rule="evenodd" clip-rule="evenodd" d="M315.52 202.569C314.351 202.021 313.046 201.715 311.669 201.715C306.651 201.715 302.583 205.783 302.583 210.801C302.583 212.698 303.164 214.459 304.158 215.916C305.42 216.595 306.864 216.98 308.398 216.98C313.349 216.98 317.363 212.966 317.363 208.015C317.363 205.967 316.676 204.079 315.52 202.569Z" fill="#F4CD0C"/>
</g>
<path d="M371.495 269.166L371.667 264.118" stroke="white" stroke-linecap="square"/>
<path fill-rule="evenodd" clip-rule="evenodd" d="M257.08 30.053C256.67 28.4476 257.639 26.8139 259.245 26.4039L348.714 3.55567C350.319 3.1457 351.953 4.11474 352.363 5.72008L375.211 95.1892C375.621 96.7946 374.652 98.4283 373.047 98.8383L359.805 102.22C358.2 102.63 356.588 101.646 355.932 100.125C352.303 91.7063 342.993 86.939 333.829 89.2791C324.666 91.6193 318.782 100.267 319.634 109.394C319.788 111.044 318.845 112.68 317.24 113.09L283.577 121.687C281.972 122.096 280.338 121.127 279.928 119.522L273.197 93.1637C273.197 93.1634 273.197 93.1632 273.197 93.1631C283.346 90.5714 289.472 80.2432 286.881 70.0944C284.289 59.9457 273.961 53.8195 263.812 56.4113C263.812 56.4113 263.811 56.4112 263.811 56.411L257.08 30.053Z" fill="#113F59"/>
<path fill-rule="evenodd" clip-rule="evenodd" d="M259.067 27.2395C258.657 25.6341 259.626 24.0004 261.231 23.5905L350.7 0.74219C352.305 0.332227 353.939 1.30127 354.349 2.9066L377.197 92.3758C377.607 93.9811 376.638 95.6148 375.033 96.0248L361.79 99.4067C360.185 99.8167 358.573 98.833 357.917 97.3115C354.288 88.8932 344.978 84.1259 335.815 86.4661C326.651 88.8062 320.767 97.4536 321.619 106.581C321.773 108.231 320.83 109.867 319.225 110.277L285.564 118.873C283.958 119.283 282.325 118.314 281.915 116.709L275.183 90.3502C275.183 90.3501 275.183 90.3501 275.184 90.3501C285.332 87.7583 291.458 77.4301 288.867 67.2814C286.275 57.1326 275.947 51.0065 265.798 53.5982C265.798 53.5982 265.798 53.5982 265.798 53.5981L259.067 27.2395Z" fill="#05AFAA"/>
<path d="M308.943 83.0882L303.797 84.1129L302.632 89.9541L301.466 84.1129L296.223 83.0882L301.466 81.756L302.632 76.3247L303.797 81.756L308.943 83.0882Z" fill="#FCFCFC"/>
<path d="M338.474 34.528C343.242 34.528 347.106 31.0701 347.106 26.8046C347.106 22.5391 343.242 19.0813 338.474 19.0813C333.707 19.0813 329.842 22.5391 329.842 26.8046C329.842 31.0701 333.707 34.528 338.474 34.528Z" fill="white"/>
<path fill-rule="evenodd" clip-rule="evenodd" d="M200.659 220.56C211.133 220.56 219.624 212.098 219.624 201.66C219.624 201.66 219.624 201.66 219.624 201.66H252.449C254.106 201.66 255.449 203.003 255.449 204.66V237.86C255.449 239.517 254.097 240.835 252.46 241.093C243.406 242.521 236.483 250.335 236.483 259.76C236.483 269.184 243.406 276.998 252.46 278.426C254.097 278.684 255.449 280.003 255.449 281.66V296.66C255.449 298.317 254.106 299.66 252.449 299.66H160.108C158.452 299.66 157.108 298.317 157.108 296.66V204.66C157.108 203.003 158.452 201.66 160.108 201.66H181.693C181.693 201.66 181.693 201.66 181.693 201.66C181.693 212.098 190.184 220.56 200.659 220.56Z" fill="#113F59"/>
<path fill-rule="evenodd" clip-rule="evenodd" d="M197.118 220.56C207.592 220.56 216.084 212.098 216.084 201.66C216.084 201.66 216.084 201.66 216.084 201.66H248.908C250.565 201.66 251.908 203.003 251.908 204.66V237.86C251.908 239.517 250.557 240.835 248.92 241.093C239.865 242.521 232.943 250.335 232.943 259.76C232.943 269.184 239.865 276.998 248.92 278.426C250.557 278.684 251.908 280.003 251.908 281.66V296.66C251.908 298.317 250.565 299.66 248.908 299.66H156.568C154.911 299.66 153.568 298.317 153.568 296.66V204.66C153.568 203.003 154.911 201.66 156.568 201.66H178.152C178.152 201.66 178.152 201.66 178.152 201.66C178.152 212.098 186.644 220.56 197.118 220.56Z" fill="#05AFAA"/>
<path d="M166.289 222.031L160.407 223.188L159.075 229.785L157.744 223.188L151.751 222.031L157.744 220.526L159.075 214.392L160.407 220.526L166.289 222.031Z" fill="#FCFCFC"/>
<path d="M237.557 229.785C235.819 229.785 235.819 232.502 237.557 232.502C239.453 232.502 239.453 229.785 237.557 229.785Z" fill="#FCFCFC"/>
<path opacity="0.6" d="M351.195 256.233C353.453 256.233 355.284 254.402 355.284 252.144C355.284 249.886 353.453 248.055 351.195 248.055C348.937 248.055 347.106 249.886 347.106 252.144C347.106 254.402 348.937 256.233 351.195 256.233Z" fill="#DBE7EC"/>
<path d="M84.4708 115.739C84.4751 115.722 84.4795 115.704 84.4841 115.686C84.5445 115.443 84.6371 115.083 84.7646 114.619C85.0198 113.691 85.415 112.348 85.9736 110.692C87.0912 107.381 88.8618 102.823 91.4724 97.842C96.6023 88.0545 104.955 76.6737 117.931 69.8748V88.8689L95.6729 124.153L84.4708 115.739Z" fill="white" stroke="#24272D"/>
<path d="M123.492 288.943L118.131 299.569H166.339L146.259 288.943H123.492Z" fill="#24272D"/>
<path d="M39.8986 288.943L34.5376 299.569H82.7451L62.6648 288.943H39.8986Z" fill="#24272D"/>
<path fill-rule="evenodd" clip-rule="evenodd" d="M120.911 93.4989C119.504 93.0648 118.431 91.8318 118.436 90.3601L118.51 68.0119C118.515 66.3551 119.863 65.0164 121.52 65.0219L213.86 65.3274C215.516 65.3329 216.855 66.6805 216.85 68.3373L216.778 89.9218C216.778 89.922 216.778 89.9221 216.778 89.9221C227.253 89.9567 235.716 98.476 235.681 108.95C235.647 119.425 227.127 127.888 216.653 127.853C216.653 127.853 216.653 127.853 216.653 127.853L216.544 160.677C216.539 162.334 215.191 163.673 213.534 163.667L189.329 163.587C187.672 163.582 186.35 164.929 186.085 166.565C184.622 175.615 176.758 182.511 167.301 182.48C157.843 182.449 150.026 175.5 148.622 166.441C148.369 164.804 147.055 163.447 145.398 163.442L121.194 163.362C119.537 163.356 118.199 162.009 118.204 160.352L118.295 132.908C118.3 131.436 119.381 130.21 120.79 129.785C128.569 127.441 134.247 120.233 134.275 111.687C134.303 103.14 128.674 95.895 120.911 93.4989Z" fill="#113F59"/>
<path fill-rule="evenodd" clip-rule="evenodd" d="M117.776 95.0632C116.37 94.6292 115.296 93.3962 115.301 91.9244L115.375 69.5764C115.38 67.9196 116.728 66.5809 118.385 66.5863L210.725 66.8918C212.382 66.8973 213.72 68.2449 213.715 69.9018L213.643 91.4865C213.643 91.4866 213.643 91.4866 213.644 91.4866C224.118 91.5213 232.581 100.041 232.546 110.515C232.512 120.989 223.992 129.452 213.518 129.418C213.518 129.418 213.518 129.418 213.518 129.418L213.409 162.242C213.404 163.899 212.056 165.237 210.399 165.232L186.195 165.152C184.538 165.146 183.216 166.494 182.951 168.129C181.488 177.179 173.624 184.076 164.167 184.044C154.709 184.013 146.892 177.065 145.488 168.006C145.235 166.368 143.921 165.012 142.264 165.006L118.059 164.926C116.403 164.921 115.064 163.573 115.069 161.916L115.16 134.472C115.165 133.001 116.247 131.775 117.656 131.35C125.435 129.006 131.113 121.798 131.141 113.251C131.169 104.704 125.54 97.4591 117.776 95.0632Z" fill="#F4CD0C"/>
<path d="M220.806 109.411L212.719 110.982L210.888 119.939L209.056 110.982L200.816 109.411L209.056 107.368L210.888 99.0403L212.719 107.368L220.806 109.411Z" fill="#FCFCFC"/>
<path d="M204.451 95.8602L199.597 96.6583L198.464 101.766L197.493 96.6583L192.639 95.8602L197.493 94.5832L198.464 89.9541L199.597 94.5832L204.451 95.8602Z" fill="#FCFCFC"/>
<path d="M185.765 79.0505C184.026 79.0505 184.026 81.7764 185.765 81.7764C187.661 81.7764 187.661 79.0505 185.765 79.0505Z" fill="#FCFCFC"/>
<path d="M79.9692 188.086C85.8753 191.281 114.497 213.982 114.497 213.982C114.497 213.982 126.933 220.201 133.124 236.243C139.315 252.285 121.766 293.032 121.766 293.032C121.766 293.032 137.667 294.11 144.936 293.032C144.936 293.032 152.96 272.237 157.441 252.347C161.922 232.456 158.724 218.791 140.133 194.626C121.543 170.46 119.495 164.007 119.495 164.007" fill="#24272D"/>
<path d="M121.691 94.4672C117.729 91.5144 113.688 91.2782 108.399 92.5774C103.11 93.8963 102.793 103.562 102.793 103.562C102.457 101.593 97.4254 99.2115 96.5143 104.704C95.4842 110.924 101.466 110.452 101.466 110.452C101.466 111.22 101.585 112.342 101.981 113.562C103.368 113.484 104.715 113.582 105.923 114.054C110.123 115.688 112.916 117.086 115.174 120.472C122.443 120.019 124.583 115.354 125.553 107.657C126.9 97.3413 121.691 94.4672 121.691 94.4672Z" fill="#EFC1B8"/>
<path d="M116.819 110.687C110.855 108.45 101.537 109.941 101.537 109.941C102.034 112.8 103.102 119.413 103.4 122.992C103.773 127.467 107.5 124.857 113.464 124.857C119.428 124.857 123.156 124.484 124.647 121.874C126.138 119.263 126.51 117.921 126.51 115.534C126.51 113.148 126.51 111.806 125.392 109.941C125.392 109.941 122.783 112.924 116.819 110.687Z" fill="#24272D"/>
<path fill-rule="evenodd" clip-rule="evenodd" d="M119.809 102.201L120.575 108.433L118.431 108.726L118.524 109.454L121.369 109.065L120.514 102.109L119.809 102.201Z" fill="#24272D"/>
<path d="M114.391 105.047C115 105.047 115.493 104.554 115.493 103.945C115.493 103.337 115 102.844 114.391 102.844C113.782 102.844 113.289 103.337 113.289 103.945C113.289 104.554 113.782 105.047 114.391 105.047Z" fill="#24272D"/>
<path d="M123.205 105.047C123.814 105.047 124.307 104.554 124.307 103.945C124.307 103.337 123.814 102.844 123.205 102.844C122.597 102.844 122.104 103.337 122.104 103.945C122.104 104.554 122.597 105.047 123.205 105.047Z" fill="#24272D"/>
<path d="M123.577 169.307L72.2824 164.798C72.2824 164.798 57.5995 178.178 58.4872 197.054C59.3748 215.931 70.5942 216.136 65.4312 236.125C62.3804 247.937 39.0811 290.306 39.0811 290.306C39.0811 290.306 51.2674 292.105 60.8881 290.306C60.8881 290.306 78.5172 275.314 91.7819 249.3C96.6469 239.76 98.1418 236.125 104.695 219.557" fill="#24272D"/>
<path d="M124.299 165.676C124.637 166.502 125.064 167.618 125.472 168.895C126.341 171.611 127.149 175.123 126.807 178.146M124.299 165.676L126.807 178.147C126.807 178.147 126.807 178.146 126.807 178.146M124.299 165.676C129.493 168.72 136.714 170.227 150.345 172.003C154.121 172.495 157.003 172.257 159.184 171.477C161.378 170.694 162.84 169.37 163.771 167.749C165.608 164.549 165.332 160.26 164.846 156.864C164.568 154.916 163.145 153.674 161.219 152.826C159.3 151.982 156.769 151.477 154.055 151.051C153.086 150.899 152.095 150.757 151.094 150.613C149.261 150.351 147.394 150.083 145.571 149.74C142.759 149.211 140.122 148.514 138 147.416C129.391 142.962 123.948 135.945 117.803 123.352L117.773 123.292L117.729 123.241C115.877 121.137 114.491 119.624 113.566 118.635C113.104 118.141 112.757 117.779 112.525 117.539C112.409 117.419 112.322 117.33 112.264 117.27L112.198 117.203L112.181 117.186L112.179 117.185L104.838 109.476L104.792 109.429L104.736 109.394C97.857 105.197 91.2898 107.277 86.0365 110.973C80.7952 114.661 76.7584 120.02 74.8164 122.611C73.8154 123.947 71.7084 127.532 69.331 132.268C66.9482 137.014 64.2773 142.95 62.1537 149.002C60.0326 155.047 58.4459 161.24 58.2547 166.491C58.0643 171.724 59.2583 176.179 62.8894 178.511L62.927 178.536L62.9682 178.553C64.2626 179.089 65.3828 179.558 66.3726 179.973C69.9758 181.482 71.8501 182.267 74.1027 182.942C76.4672 183.652 79.2584 184.244 84.9355 185.449C86.137 185.704 87.4677 185.986 88.951 186.303C97.5419 188.138 106.77 187.659 113.938 185.988C117.521 185.153 120.614 184.014 122.864 182.7C125.078 181.406 126.618 179.858 126.807 178.146M124.299 165.676L126.807 178.146" fill="white" stroke="#24272D"/>
<mask id="mask0" mask-type="alpha" maskUnits="userSpaceOnUse" x="58" y="107" width="107" height="80">
<path d="M111.974 117.179C111.974 117.179 113.811 119.016 117.507 123.217C123.67 135.847 129.173 142.979 137.923 147.506C146.674 152.033 163.532 149.779 164.504 156.58C165.477 163.381 165.477 173.096 150.562 171.153C135.648 169.21 128.532 167.597 123.34 164.022C123.34 164.022 127.124 171.907 126.463 177.737C125.822 183.566 106.229 189.094 89.2088 185.46C72.1889 181.825 75.3698 182.734 63.313 177.737C49.7017 168.993 71.4809 127.745 75.3698 122.557C79.2588 117.369 91.3483 101.364 104.629 109.467L111.974 117.179Z" fill="white"/>
</mask>
<g mask="url(#mask0)">
<path d="M60.4338 157.192L67.1224 168.777H53.7452L60.4338 157.192Z" fill="#F4CD0C"/>
<path d="M75.8806 137.203L82.5692 148.788H69.192L75.8806 137.203Z" fill="#F4CD0C"/>
<path d="M98.5964 135.385L105.285 146.97H91.9078L98.5964 135.385Z" fill="#F4CD0C"/>
<path d="M87.6926 154.467L94.3812 166.052H81.004L87.6926 154.467Z" fill="#F4CD0C"/>
<path d="M114.043 154.467L120.731 166.052H107.354L114.043 154.467Z" fill="#F4CD0C"/>
<path d="M73.1545 171.73L79.8431 183.315H66.4659L73.1545 171.73Z" fill="#F4CD0C"/>
<path d="M98.5964 176.274L105.285 187.859H91.9078L98.5964 176.274Z" fill="#F4CD0C"/>
<path d="M117.677 173.548L124.366 185.133H110.989L117.677 173.548Z" fill="#F4CD0C"/>
<path d="M73.1545 120.847L79.8431 132.432H66.4659L73.1545 120.847Z" fill="#F4CD0C"/>
<path d="M88.6017 106.309L95.2903 117.894H81.9131L88.6017 106.309Z" fill="#F4CD0C"/>
<path d="M112.226 113.578L118.914 125.163H105.537L112.226 113.578Z" fill="#F4CD0C"/>
<path d="M117.677 135.385L124.366 146.97H110.989L117.677 135.385Z" fill="#F4CD0C"/>
<path d="M134.941 160.827L141.63 172.412H128.253L134.941 160.827Z" fill="#F4CD0C"/>
<path d="M140.393 144.471L147.081 156.056H133.704L140.393 144.471Z" fill="#F4CD0C"/>
<path d="M154.022 153.558L160.711 165.143H147.334L154.022 153.558Z" fill="#F4CD0C"/>
<path d="M60.4338 134.477L67.1224 146.062H53.7452L60.4338 134.477Z" fill="#F4CD0C"/>
</g>
<path d="M161.786 156.919C161.786 156.919 165.893 154.994 169.766 154.994C173.64 154.994 168.798 157.881 168.798 157.881C168.798 157.881 174.376 159.325 176.778 161.961C179.18 164.598 170.735 167.966 161.767 168.216V156.919H161.786Z" fill="#EFC1B8"/>
<path d="M114.05 113.127C114.05 113.127 113.727 115.157 115.344 115.319C116.638 115.448 116.962 114.442 116.962 114.442" stroke="#EFC1B8"/>
<path d="M106.891 97.2001C103.909 98.1013 103.167 101.33 103.167 103.583C102.048 100.955 97.2024 102.457 99.8113 93.4451C100.875 89.7689 105.008 86.2004 111.367 85.5597C119.221 84.7685 118.931 87.3486 121.432 88.1882C122.78 88.6411 124.265 88.6843 125.394 88.4824C126.162 88.3449 127.237 88.797 127.215 89.5774C127.202 90.0256 127.146 90.5591 127.019 91.1921C126.724 92.6644 125.901 94.1962 124.037 95.6981C122.174 97.2001 110.618 96.0736 106.891 97.2001Z" fill="#24272D"/>
<path d="M91.2534 124.879C92.7225 127.913 96.542 135.439 100.068 141.265C104.475 148.547 102.272 145.374 104.502 148.561C107.682 153.104 111.317 158.101 119.494 162.644L129.944 168.096" stroke="#24272D"/>
<g filter="url(#filter1_di)">
<circle r="14.2097" transform="matrix(0.0481663 0.998839 0.998839 -0.0481663 34.8776 70.3037)" fill="#07A7A2"/>
<path fill-rule="evenodd" clip-rule="evenodd" d="M21.7285 64.9078C20.9605 66.7757 20.5805 68.8376 20.6842 70.9882C21.0622 78.8269 27.7232 84.875 35.5618 84.497C38.5244 84.3541 41.2312 83.3138 43.432 81.6516C44.3975 79.6284 44.8905 77.3439 44.7749 74.9479C44.402 67.2137 37.8299 61.2463 30.0957 61.6192C26.8964 61.7735 23.9994 62.9886 21.7285 64.9078Z" fill="#05AFAA"/>
<g opacity="0.2">
<mask id="mask1" mask-type="alpha" maskUnits="userSpaceOnUse" x="20" y="56" width="30" height="29">
<circle r="14.2097" transform="matrix(0.0481663 0.998839 0.998839 -0.0481663 34.8776 70.3037)" fill="#07A7A2"/>
</mask>
<g mask="url(#mask1)">
<path fill-rule="evenodd" clip-rule="evenodd" d="M44.1105 77.3405L44.2335 79.8923L44.2331 79.8923L44.4379 84.138L42.1522 84.2482C39.5012 84.376 37.184 82.6829 36.4126 80.2694L36.2191 80.2787L36.1507 78.8602C36.1494 78.8387 36.1483 78.8172 36.1472 78.7957L36.1476 78.7957L36.0191 76.1322C35.8192 71.9856 37.4824 69.8273 38.5583 68.8163C39.6341 67.8053 41.8166 66.4212 45.5033 66.2435L51.5942 65.9497L51.9864 74.0834L46.6969 74.3384C45.7352 74.3848 45.1017 74.5752 44.6516 75.2363C44.2015 75.8975 44.072 76.5431 44.1105 77.3405Z" fill="white"/>
<path fill-rule="evenodd" clip-rule="evenodd" d="M26.3762 60.4415L26.2981 58.8221L26.2984 58.8221L26.1685 56.1278L27.619 56.0578C29.3014 55.9767 30.7719 57.0511 31.2615 58.5827L31.3843 58.5768L31.4277 59.4755C31.4285 59.4897 31.4293 59.5039 31.43 59.5181L31.4297 59.5182L31.5112 61.2083C31.6381 63.8399 30.5826 65.2096 29.8998 65.8512C29.217 66.4928 27.832 67.3712 25.4923 67.484L21.6268 67.6704L21.3779 62.5086L24.7348 62.3467C25.3451 62.3173 25.7471 62.1964 26.0328 61.7769C26.3184 61.3573 26.4006 60.9475 26.3762 60.4415Z" fill="white"/>
</g>
</g>
</g>
<path d="M436.874 64.2657C438.793 63.1597 441.217 63.1147 442.868 64.7194C444.661 64.7194 445.742 64.6149 446.629 66.4387C447.012 67.226 446.959 69.1407 446.145 69.7041C445.783 69.9549 445.995 69.8168 446.283 70.116C446.789 70.6419 446.736 71.1812 446.736 71.8831C446.736 73.746 446.609 75.6413 445.925 77.3931C445.615 78.1848 445.292 79.1065 444.635 79.6795C444.203 80.0562 443.657 80.262 443.19 80.5869L443.168 80.6026C441.858 81.5149 440.403 82.5288 438.689 82.0674C438.538 82.0266 437.85 81.5001 437.764 81.548C437.382 81.7605 437.139 82.0811 436.695 82.2346C435.669 82.5899 434.561 82.7086 433.519 82.342C433.045 82.175 432.151 81.7239 432.469 81.0526C432.484 81.0196 432.56 80.9407 432.634 80.8708C432.204 81.0191 431.141 80.6439 430.941 80.5392C429.768 79.9248 430.256 77.5949 430.839 76.8081C431.082 76.4805 431.377 76.1624 431.735 75.9604C431.755 75.949 432.082 75.8091 431.908 75.7873C431.444 75.7294 430.812 75.4978 430.475 75.1843C428.81 73.6342 431.078 70.4824 432.576 69.7698C433.441 69.3583 434.062 69.4213 434.976 69.4474C435.057 69.4497 435.67 69.6403 435.645 69.6086C435.427 69.3371 435.049 69.2797 434.827 68.9042C434.557 68.447 434.552 67.9431 434.666 67.4356C434.975 66.0558 435.642 64.9764 436.874 64.2657Z" fill="#24272D" stroke="#24272D" stroke-linecap="round" stroke-linejoin="round"/>
<rect x="429.425" y="134.402" width="51.4382" height="28.0572" fill="#164560"/>
<path d="M426.655 192.907H389.678V156.613H426.655V192.907ZM390.587 192.014H425.746V157.506H390.587V192.014Z" fill="#E6E6E6"/>
<path d="M390.847 162.066L417.087 139.837L421.461 125.046L425.834 110.255L441.276 128.884L431.233 151.113L394.735 171.194L390.847 162.066Z" fill="#164560"/>
<path d="M461.66 289.885L451.874 213.358L447.245 233.464L450.809 289.885H423.931L420.147 227.891C419.887 223.641 420.312 219.378 421.408 215.249L435.635 161.633L480.841 161.29L481.001 224.572L487.878 289.885H461.66Z" fill="#24272D"/>
<path fill-rule="evenodd" clip-rule="evenodd" d="M449.313 177.656L452.807 207.958L451.624 208.052L448.13 177.75L449.313 177.656Z" fill="white"/>
<path d="M449.334 289.885L454.406 299.938H408.798L427.796 289.885H449.334Z" fill="#24272D"/>
<path d="M486.288 289.885L491.355 299.938H445.75L464.748 289.885H486.288Z" fill="#24272D"/>
<path d="M498.323 137.812C492.955 125.657 480.429 106.946 454.11 106.37C448.482 105.876 432.987 108.76 425.942 110.264L430.1 129.837L435.693 148.594L491.614 148.134C492.838 148.124 494.044 147.812 495.116 147.225C496.191 146.638 497.099 145.795 497.766 144.771C498.43 143.748 498.831 142.576 498.927 141.361C499.026 140.147 498.817 138.927 498.323 137.812Z" fill="#164560"/>
<path fill-rule="evenodd" clip-rule="evenodd" d="M450.713 75.2124C454.924 75.0976 458.432 78.4 458.548 82.5884L459.236 107.586C459.352 111.775 456.031 115.263 451.819 115.378C447.607 115.492 444.1 112.19 443.984 108.002L443.295 83.0039C443.18 78.8155 446.501 75.3271 450.713 75.2124Z" fill="#EFC1B8"/>
<path d="M446.962 100.891L445.625 100.919C444.069 100.952 442.526 100.643 441.104 100.015C439.682 99.3873 438.417 98.455 437.398 97.2856C436.38 96.1159 435.633 94.7376 435.212 93.2481C434.79 91.7587 434.704 90.1955 434.959 88.6693L436.219 81.1141C436.627 78.6722 437.886 76.4513 439.777 74.8415C441.668 73.2317 444.068 72.3362 446.557 72.3118C447.947 72.2977 449.327 72.556 450.616 73.0719C451.906 73.5878 453.08 74.3514 454.073 75.319C455.066 76.2865 455.858 77.4386 456.403 78.7104C456.948 79.9821 457.236 81.3484 457.249 82.7306L457.315 90.2597C457.343 93.0297 456.272 95.6995 454.334 97.6893C452.396 99.6795 449.747 100.829 446.962 100.891Z" fill="#EFC1B8"/>
<path fill-rule="evenodd" clip-rule="evenodd" d="M441.046 84.1849L440.281 90.1724L442.421 90.4542L442.328 91.1539L439.488 90.7799L440.342 84.0959L441.046 84.1849Z" fill="#333333"/>
<path d="M447.414 93.0837C447.712 93.7757 447.721 94.5566 447.44 95.2552C447.159 95.9539 446.61 96.5129 445.914 96.8089C445.219 97.105 444.433 97.1145 443.731 96.8347C443.028 96.5549 442.466 96.009 442.168 95.3174C441.549 93.8784 443.058 93.3843 444.507 92.7658C445.956 92.1472 446.795 91.6447 447.414 93.0837Z" fill="#333333"/>
<path d="M445.904 87.081C445.313 87.081 444.835 86.6049 444.835 86.0178C444.835 85.4306 445.313 84.9546 445.904 84.9546C446.494 84.9546 446.973 85.4306 446.973 86.0178C446.973 86.6049 446.494 87.081 445.904 87.081Z" fill="#333333"/>
<path d="M438.133 87.081C437.542 87.081 437.064 86.6049 437.064 86.0178C437.064 85.4306 437.542 84.9546 438.133 84.9546C438.724 84.9546 439.202 85.4306 439.202 86.0178C439.202 86.6049 438.724 87.081 438.133 87.081Z" fill="#333333"/>
<path d="M461.64 93.0083C460.352 94.7204 457.912 95.0694 456.191 93.7881C454.471 92.5072 454.12 90.0809 455.409 88.3691L456.731 86.6129C458.02 84.9008 460.459 84.5518 462.18 85.8331C463.901 87.1143 464.251 89.5403 462.962 91.252L461.64 93.0083Z" fill="#EFC1B8"/>
<path fill-rule="evenodd" clip-rule="evenodd" d="M461.492 88.4338L458.327 91.7313L457.813 91.244L460.978 87.9465L461.492 88.4338Z" fill="#333333"/>
<path d="M455.51 91.1475L453.566 79.8385L453.106 77.1546C452.381 77.795 451.556 78.3123 450.662 78.6857C447.417 80.0594 438.148 78.5523 437.464 71.9311C436.897 66.5304 442.282 70.0937 445.214 70.0259C449.817 69.9166 453.229 67.5365 459.157 71.4565C466.255 76.1507 461.814 85.6745 461.814 85.6745C461.814 85.6745 458.633 84.1127 455.51 91.1475Z" fill="#24272D"/>
<path d="M444.312 100.922L448.297 100.924L444.364 104.097L444.312 100.922Z" fill="#24272D"/>
<path fill-rule="evenodd" clip-rule="evenodd" d="M476.44 131.951L458.845 140.937L458.358 139.996L475.954 131.009L476.44 131.951Z" fill="white"/>
<path fill-rule="evenodd" clip-rule="evenodd" d="M461.138 121.693L473.132 133.081L472.397 133.846L460.403 122.458L461.138 121.693Z" fill="white"/>
<path fill-rule="evenodd" clip-rule="evenodd" d="M433.139 135.37L435.385 144.157L434.354 144.418L432.107 135.631L433.139 135.37Z" fill="white"/>
<path fill-rule="evenodd" clip-rule="evenodd" d="M458.3 139.777L458.829 139.836C463.143 140.323 465.444 142.209 466.651 144.032C467.248 144.934 467.567 145.804 467.737 146.451C467.823 146.775 467.871 147.044 467.898 147.235C467.912 147.331 467.92 147.407 467.925 147.462C467.927 147.489 467.929 147.51 467.93 147.526C467.931 147.534 467.931 147.54 467.931 147.545L467.932 147.551L467.932 147.553L467.932 147.554C467.932 147.555 467.932 147.555 467.4 147.581L467.932 147.555L467.958 148.084L466.894 148.135L466.869 147.608L466.869 147.607L466.869 147.607L466.869 147.607L466.868 147.599C466.868 147.591 466.867 147.578 466.865 147.558C466.861 147.52 466.855 147.461 466.844 147.383C466.822 147.227 466.781 146.999 466.708 146.719C466.56 146.159 466.282 145.4 465.762 144.615C464.735 143.063 462.721 141.34 458.709 140.888L458.18 140.828L458.3 139.777Z" fill="white"/>
<rect x="349.85" y="124.091" width="93.0386" height="93.0386" rx="3" transform="rotate(-14.3258 349.85 124.091)" fill="#113F59"/>
<circle cx="363.497" cy="177.535" r="17.9432" transform="rotate(-14.3258 363.497 177.535)" fill="#113F59"/>
<circle cx="404.581" cy="110.114" r="17.9432" transform="rotate(-14.3258 404.581 110.114)" fill="#113F59"/>
<rect x="354.314" y="124.575" width="93.0386" height="93.0386" rx="3" transform="rotate(-14.3258 354.314 124.575)" fill="#7BC794"/>
<circle cx="367.962" cy="178.018" r="17.9432" transform="rotate(-14.3258 367.962 178.018)" fill="#7BC794"/>
<circle cx="409.046" cy="110.598" r="17.9432" transform="rotate(-14.3258 409.046 110.598)" fill="#7BC794"/>
<path d="M379.816 174.923L371.729 176.495L369.898 185.451L368.067 176.495L359.827 174.923L368.067 172.881L369.898 164.553L371.729 172.881L379.816 174.923Z" fill="#FCFCFC"/>
<path d="M455.232 128.174L451.556 128.857L450.724 132.751L449.891 128.857L446.146 128.174L449.891 127.285L450.724 123.665L451.556 127.285L455.232 128.174Z" fill="#FCFCFC"/>
<path d="M382.029 189.994C380.291 189.994 380.291 192.72 382.029 192.72C383.925 192.72 383.925 189.994 382.029 189.994Z" fill="#FCFCFC"/>
<path d="M467.288 147.254L463.316 150.66C463.316 150.66 464.761 160.89 460.157 160.89C460.157 160.89 460.34 162.511 459.436 162.778C458.532 163.045 455.556 159.523 455.556 159.523C455.556 159.523 451.946 158.648 450.864 155.415C449.781 152.182 448.697 144.378 449.691 143.66C450.686 142.943 461.151 141.416 461.151 141.416C461.151 141.416 465.573 141.416 467.288 147.254Z" fill="#EFC1B8"/>
<path d="M442.046 65.874C441.687 65.8708 441.335 65.9083 441.019 65.9564C440.307 66.0651 439.58 66.2606 438.924 66.7138L439.208 67.1252L438.924 66.7138C438.142 67.254 437.841 67.9732 437.608 68.7342C437.132 70.2924 436.905 72.2704 437.45 73.9259C437.477 74.0076 437.504 74.095 437.533 74.186C437.629 74.4911 437.737 74.8368 437.881 75.1453C438.061 75.5307 438.318 75.9121 438.733 76.1955C438.506 76.5807 438.383 77.1309 438.633 77.8796C438.849 78.53 439.115 78.981 439.549 79.3005C439.953 79.598 440.463 79.7448 441.029 79.9066C441.751 80.113 442.709 80.0412 443.344 79.9673C443.761 79.9186 444.184 79.8243 444.565 79.739C444.603 79.7305 444.641 79.7222 444.678 79.7139C444.906 79.6633 445.266 79.5663 445.538 79.2939C445.588 79.3293 445.643 79.3639 445.705 79.3972C445.753 79.4233 445.804 79.4513 445.858 79.4807C446.298 79.7214 446.906 80.0546 447.471 80.1644C448.255 80.3169 449.072 80.1378 449.71 79.9798C450.512 79.7813 451.381 79.5335 452.168 79.173C452.434 79.0509 452.769 78.8693 453.07 78.6455C453.113 78.8886 453.183 79.1362 453.298 79.3814C453.575 79.9733 454.089 80.6679 454.784 80.9923C455.683 81.4121 456.891 81.3955 457.876 81.0223C458.611 80.7438 459.3 80.231 459.62 79.4742C459.678 79.5064 459.735 79.5341 459.79 79.5585C459.891 79.6037 459.992 79.6404 460.08 79.6713C460.102 79.6789 460.122 79.686 460.142 79.6929C460.208 79.7158 460.265 79.7356 460.322 79.7577C460.889 79.9776 461.431 80.1789 462.162 80.1431C462.869 80.1086 463.809 80.0125 464.545 79.6349C465.332 79.2311 465.892 78.4889 466.161 77.6936C466.411 76.9541 466.208 76.2738 466.047 75.7361L466.047 75.7339L465.568 75.8768L466.047 75.7339C465.851 75.0766 465.293 74.6815 464.926 74.4218L464.925 74.4211C464.879 74.3886 464.83 74.3521 464.777 74.3133C464.63 74.2057 464.459 74.0798 464.27 73.9669C464.337 73.9095 464.402 73.8464 464.464 73.7764C464.834 73.3605 465.151 72.8382 465.251 72.2659C465.355 71.6692 465.214 71.0486 464.716 70.5131L464.35 70.8533L464.716 70.5131C464.046 69.7914 463.005 69.3588 462.23 69.0687C461.723 68.8792 461.243 68.8121 460.759 68.7929C460.811 68.7256 460.86 68.6529 460.903 68.5745C461.057 68.2984 461.079 67.9685 461.077 67.7301C461.076 67.5183 461.054 67.3027 461.038 67.1494C461.035 67.1208 461.032 67.0943 461.03 67.0705C460.939 66.1395 460.189 65.4381 459.62 65.0385C458.55 64.2878 457.388 63.9032 456.09 63.8263C455.226 63.7751 454.295 63.8029 453.407 64.1783C453.286 64.2292 453.184 64.2762 453.093 64.3184C452.896 64.4087 452.747 64.4776 452.564 64.5174C452.517 64.5277 452.471 64.5383 452.431 64.5476L452.414 64.5515C452.369 64.5621 452.332 64.5705 452.298 64.5773C452.284 64.5803 452.271 64.5827 452.26 64.5846C451.829 63.7679 451.007 63.3488 450.379 63.0289C450.32 62.9989 450.263 62.9698 450.208 62.9413C449.304 62.4725 448.419 62.2496 447.379 62.2916C445.814 62.3549 444.015 62.6387 442.793 64.0108C442.36 64.4967 442.082 64.9738 442.049 65.7056C442.047 65.7544 442.046 65.8116 442.046 65.874Z" fill="#24272D" stroke="#24272D" stroke-linecap="round" stroke-linejoin="round"/>
<defs>
<filter id="filter0_di" x="282.583" y="181.715" width="98.1725" height="98.1725" filterUnits="userSpaceOnUse" color-interpolation-filters="sRGB">
<feFlood flood-opacity="0" result="BackgroundImageFix"/>
<feColorMatrix in="SourceAlpha" type="matrix" values="0 0 0 0 0 0 0 0 0 0 0 0 0 0 0 0 0 0 127 0"/>
<feOffset dx="20" dy="20"/>
<feGaussianBlur stdDeviation="20"/>
<feColorMatrix type="matrix" values="0 0 0 0 0 0 0 0 0 0 0 0 0 0 0 0 0 0 0.1 0"/>
<feBlend mode="normal" in2="BackgroundImageFix" result="effect1_dropShadow"/>
<feBlend mode="normal" in="SourceGraphic" in2="effect1_dropShadow" result="shape"/>
<feColorMatrix in="SourceAlpha" type="matrix" values="0 0 0 0 0 0 0 0 0 0 0 0 0 0 0 0 0 0 127 0" result="hardAlpha"/>
<feOffset dy="4"/>
<feGaussianBlur stdDeviation="10"/>
<feComposite in2="hardAlpha" operator="arithmetic" k2="-1" k3="1"/>
<feColorMatrix type="matrix" values="0 0 0 0 0.75 0 0 0 0 0.75 0 0 0 0 0.75 0 0 0 0.25 0"/>
<feBlend mode="normal" in2="shape" result="effect2_innerShadow"/>
</filter>
<filter id="filter1_di" x="0.66748" y="36.0938" width="108.42" height="108.42" filterUnits="userSpaceOnUse" color-interpolation-filters="sRGB">
<feFlood flood-opacity="0" result="BackgroundImageFix"/>
<feColorMatrix in="SourceAlpha" type="matrix" values="0 0 0 0 0 0 0 0 0 0 0 0 0 0 0 0 0 0 127 0"/>
<feOffset dx="20" dy="20"/>
<feGaussianBlur stdDeviation="20"/>
<feColorMatrix type="matrix" values="0 0 0 0 0 0 0 0 0 0 0 0 0 0 0 0 0 0 0.1 0"/>
<feBlend mode="normal" in2="BackgroundImageFix" result="effect1_dropShadow"/>
<feBlend mode="normal" in="SourceGraphic" in2="effect1_dropShadow" result="shape"/>
<feColorMatrix in="SourceAlpha" type="matrix" values="0 0 0 0 0 0 0 0 0 0 0 0 0 0 0 0 0 0 127 0" result="hardAlpha"/>
<feOffset dy="4"/>
<feGaussianBlur stdDeviation="10"/>
<feComposite in2="hardAlpha" operator="arithmetic" k2="-1" k3="1"/>
<feColorMatrix type="matrix" values="0 0 0 0 0.75 0 0 0 0 0.75 0 0 0 0 0.75 0 0 0 0.25 0"/>
<feBlend mode="normal" in2="shape" result="effect2_innerShadow"/>
</filter>
</defs>
</svg>
