<svg width="575" height="300" viewBox="0 0 575 300" fill="none" xmlns="http://www.w3.org/2000/svg">
<rect x="239.35" width="24.6201" height="300" fill="#113F59"/>
<rect x="52.0962" y="14.266" width="404.599" height="204.903" fill="white" stroke="#113F59" stroke-width="3"/>
<line x1="381.27" y1="87.2976" x2="405.89" y2="87.2976" stroke="#F4F9F9" stroke-width="4"/>
<line x1="381.27" y1="57.1973" x2="405.89" y2="57.1973" stroke="#F4F9F9" stroke-width="4"/>
<line x1="381.27" y1="97.3278" x2="422.303" y2="97.3278" stroke="#F4F9F9" stroke-width="2"/>
<line x1="381.27" y1="67.2274" x2="422.303" y2="67.2274" stroke="#F4F9F9" stroke-width="2"/>
<g opacity="0.2">
<circle cx="365.396" cy="62.3872" r="8.20669" fill="#F4CD0C"/>
<path fill-rule="evenodd" clip-rule="evenodd" d="M369.35 58.4335C369.397 58.4812 369.435 58.5378 369.461 58.6001C369.487 58.6624 369.5 58.7292 369.5 58.7967C369.5 58.8641 369.487 58.9309 369.461 58.9933C369.435 59.0556 369.397 59.1122 369.35 59.1598L362.169 66.3407C362.072 66.437 361.942 66.4911 361.806 66.4911C361.669 66.4911 361.539 66.437 361.442 66.3407C361.346 66.2444 361.292 66.1137 361.292 65.9775C361.292 65.8413 361.346 65.7107 361.442 65.6144L368.623 58.4335C368.671 58.3858 368.728 58.3479 368.79 58.322C368.852 58.2961 368.919 58.2828 368.986 58.2828C369.054 58.2828 369.121 58.2961 369.183 58.322C369.245 58.3479 369.302 58.3858 369.35 58.4335Z" fill="white"/>
<path fill-rule="evenodd" clip-rule="evenodd" d="M361.443 58.4335C361.395 58.4812 361.357 58.5378 361.331 58.6001C361.305 58.6624 361.292 58.7292 361.292 58.7967C361.292 58.8641 361.305 58.9309 361.331 58.9933C361.357 59.0556 361.395 59.1122 361.443 59.1598L368.624 66.3407C368.72 66.437 368.85 66.4911 368.987 66.4911C369.123 66.4911 369.254 66.437 369.35 66.3407C369.446 66.2444 369.5 66.1137 369.5 65.9775C369.5 65.8413 369.446 65.7107 369.35 65.6144L362.169 58.4335C362.121 58.3858 362.065 58.3479 362.002 58.322C361.94 58.2961 361.873 58.2828 361.806 58.2828C361.738 58.2828 361.672 58.2961 361.609 58.322C361.547 58.3479 361.49 58.3858 361.443 58.4335Z" fill="white"/>
</g>
<g opacity="0.2">
<circle cx="365.396" cy="91.4843" r="8.20669" fill="#7BC794"/>
<path fill-rule="evenodd" clip-rule="evenodd" d="M369.799 88.9101C370.007 89.1253 370.007 89.4742 369.799 89.6894L364.698 94.9702C364.49 95.1854 364.153 95.1854 363.945 94.9702L361.904 92.8579C361.697 92.6427 361.697 92.2938 361.904 92.0786C362.112 91.8634 362.449 91.8634 362.657 92.0786L364.321 93.8013L369.046 88.9101C369.254 88.6949 369.591 88.6949 369.799 88.9101Z" fill="white"/>
</g>
<rect x="40.5654" y="12.766" width="428.571" height="11.8541" fill="#113F59"/>
<rect x="40.5654" y="213.374" width="428.571" height="11.8541" fill="#113F59"/>
<g filter="url(#filter0_di)">
<circle r="9.11854" transform="matrix(-1 0 0 1 146.341 54.7112)" fill="#DCAD62"/>
<path fill-rule="evenodd" clip-rule="evenodd" d="M150.205 46.4496C149.032 45.8998 147.722 45.5927 146.341 45.5927C141.305 45.5927 137.222 49.6752 137.222 54.7112C137.222 56.6148 137.806 58.3822 138.803 59.8444C140.07 60.5256 141.519 60.912 143.058 60.912C148.027 60.912 152.055 56.8839 152.055 51.915C152.055 49.8593 151.365 47.9646 150.205 46.4496Z" fill="#F4CD0C"/>
</g>
<g opacity="0.2">
<circle cx="247.498" cy="62.472" r="7.28803" fill="#113F59"/>
<circle cx="185.03" cy="105.159" r="7.28803" fill="#05AFAA"/>
<circle cx="247.498" cy="138.476" r="7.28803" fill="#05AFAA"/>
<ellipse cx="311.008" cy="107.762" rx="7.28803" ry="7.80861" fill="#05AFAA"/>
<path d="M248.019 99.9532L240.738 82.8579C238.515 77.6375 242.345 71.8423 248.019 71.8423C253.694 71.8423 257.524 77.6375 255.301 82.8579L248.019 99.9532Z" fill="#113F59"/>
<path d="M185.55 142.64L178.269 125.545C176.045 120.325 179.876 114.529 185.55 114.529C191.224 114.529 195.055 120.325 192.832 125.545L185.55 142.64Z" fill="#05AFAA"/>
<path d="M248.019 175.957L240.738 158.862C238.515 153.641 242.345 147.846 248.019 147.846C253.694 147.846 257.524 153.641 255.301 158.862L248.019 175.957Z" fill="#05AFAA"/>
<path d="M311.529 145.764L304.248 128.668C302.024 123.448 305.855 117.653 311.529 117.653C317.203 117.653 321.034 123.448 318.811 128.668L311.529 145.764Z" fill="#05AFAA"/>
<path d="M223.055 83.5161L223.055 82.2661L223.055 82.2661L223.055 83.5161ZM205.49 93.9527L206.587 94.5505L205.49 93.9527ZM196.624 108.388C196.819 109.05 197.514 109.429 198.176 109.233L208.967 106.051C209.629 105.855 210.007 105.16 209.812 104.498C209.617 103.836 208.922 103.457 208.26 103.653L198.668 106.482L195.839 96.8904C195.644 96.2283 194.949 95.8498 194.286 96.0451C193.624 96.2405 193.246 96.9356 193.441 97.5977L196.624 108.388ZM232.966 82.2661L223.055 82.2661L223.055 84.7661L232.966 84.7661L232.966 82.2661ZM204.392 93.355L196.725 107.437L198.921 108.632L206.587 94.5505L204.392 93.355ZM223.055 82.2661C215.273 82.2661 208.113 86.5201 204.392 93.355L206.587 94.5505C209.871 88.5197 216.188 84.7661 223.055 84.7661L223.055 82.2661Z" fill="#7BC794"/>
<path d="M271.754 83.5161L271.754 82.2661L271.754 82.2661L271.754 83.5161ZM289.319 93.9527L288.221 94.5505L289.319 93.9527ZM298.185 108.388C297.989 109.05 297.294 109.429 296.632 109.233L285.842 106.051C285.18 105.855 284.801 105.16 284.996 104.498C285.192 103.836 285.887 103.457 286.549 103.653L296.14 106.482L298.97 96.8904C299.165 96.2283 299.86 95.8498 300.522 96.0451C301.184 96.2405 301.563 96.9356 301.367 97.5977L298.185 108.388ZM261.843 82.2661L271.754 82.2661L271.754 84.7661L261.843 84.7661L261.843 82.2661ZM290.417 93.355L298.084 107.437L295.888 108.632L288.221 94.5505L290.417 93.355ZM271.754 82.2661C279.536 82.2661 286.696 86.5201 290.417 93.355L288.221 94.5505C284.938 88.5197 278.62 84.7661 271.754 84.7661L271.754 82.2661Z" fill="#7BC794"/>
<path d="M294.292 147.473L295.45 147.944L295.45 147.944L294.292 147.473ZM278.008 159.814L277.868 158.572L278.008 159.814ZM261.296 162.59C260.757 162.16 260.668 161.373 261.098 160.834L268.111 152.036C268.541 151.497 269.327 151.408 269.867 151.838C270.407 152.268 270.496 153.055 270.065 153.595L263.832 161.414L271.652 167.648C272.192 168.078 272.281 168.864 271.85 169.404C271.42 169.944 270.633 170.033 270.094 169.603L261.296 162.59ZM299.182 138.763L295.45 147.944L293.134 147.002L296.866 137.821L299.182 138.763ZM278.148 161.056L262.216 162.855L261.935 160.371L277.868 158.572L278.148 161.056ZM295.45 147.944C292.519 155.153 285.881 160.183 278.148 161.056L277.868 158.572C284.691 157.802 290.548 153.363 293.134 147.002L295.45 147.944Z" fill="#7BC794"/>
<path d="M199.801 147.473L198.643 147.944L198.643 147.944L199.801 147.473ZM216.084 159.814L216.225 158.572L216.084 159.814ZM232.796 162.59C233.336 162.16 233.424 161.373 232.994 160.834L225.982 152.036C225.551 151.497 224.765 151.408 224.225 151.838C223.685 152.268 223.596 153.055 224.027 153.595L230.26 161.414L222.44 167.648C221.901 168.078 221.812 168.864 222.242 169.404C222.672 169.944 223.459 170.033 223.999 169.603L232.796 162.59ZM194.91 138.763L198.643 147.944L200.959 147.002L197.226 137.821L194.91 138.763ZM215.944 161.056L231.876 162.855L232.157 160.371L216.225 158.572L215.944 161.056ZM198.643 147.944C201.574 155.153 208.211 160.183 215.944 161.056L216.225 158.572C209.401 157.802 203.545 153.363 200.959 147.002L198.643 147.944Z" fill="#7BC794"/>
</g>
<path d="M39.9848 162.546C45.6503 157.454 47.7832 149.675 48.9874 142.531C50.7451 137.318 57.1933 138.411 61.5653 138.411C65.6473 138.411 69.6116 139.094 73.6546 139.556C78.5919 140.119 83.8721 139.998 88.4445 142.175C99.2943 147.34 100.058 161.938 104.752 171.472C107.261 176.568 112.058 180.406 116.533 183.781C119.338 185.897 120.652 188.731 121.857 191.996C123.241 195.746 123.529 199.27 123.529 203.211C123.529 207.629 124.234 209.324 127.902 212.087C134.56 217.103 139.449 225.789 131.708 232.203C124.155 238.462 113.52 237.071 104.752 234.085C99.5676 232.32 95.0907 230.912 90.4508 234.492C84.751 238.89 78.6902 241.394 71.391 241.791C58.7468 242.479 47.5613 244.821 35.1627 243.082C24.0706 241.526 5.44769 235.13 1.04218 222.183C-0.969101 216.273 2.41074 212.387 6.39229 208.45C9.51755 205.36 17.7012 201.394 16.9896 196.294C16.2508 190.998 11.1641 189.03 14.3403 183.273C17.4616 177.615 24.0534 172.053 29.7476 169.082C33.3548 167.2 36.9391 165.283 39.9848 162.546Z" fill="#24272D"/>
<path d="M41.8637 202.881C55.8737 190.09 91.3389 191.787 106.463 195.455C121.588 199.122 121.047 271.71 121.047 271.71L136.275 299.869H94.7278L63.1819 286.328L113.219 259.528C113.219 259.528 98.5048 282.883 94.7278 299.869H24.7957C24.7957 299.869 17.499 285.11 24.7958 240.036" fill="#05AFAA"/>
<path d="M100.208 214.821L104.67 228.609C106.021 232.53 108.644 240.532 108.319 241.181C107.995 241.83 105.751 268.758 104.67 282.141V298.769" stroke="white" stroke-width="2"/>
<path d="M113.755 126.904C108.866 124.381 105.428 122.551 99.8345 124.543C98.2252 124.125 99.8345 126.179 99.8345 127.834C99.8345 131.737 99.4371 135.608 99.5178 139.5C99.5949 143.219 101.277 147.07 103.036 150.283C104.111 152.248 105.75 155.511 107.644 156.806C110.337 158.645 112.722 159.838 115.824 158.361C118.838 156.927 121.005 156.53 122.948 153.429C124.998 150.157 125.095 144.679 124.039 141.038C122.988 137.418 117.4 128.785 113.755 126.904Z" fill="#24272D"/>
<circle r="34.1099" transform="matrix(-1 0 0 1 83.2827 149.28)" fill="#24272D"/>
<path d="M81.2509 212.147C83.9685 211.82 86.5055 210.616 88.4774 208.718C90.4492 206.82 91.7482 204.33 92.1775 201.627L98.8986 159.298C99.3968 156.015 98.5764 152.668 96.6163 149.987C94.6561 147.306 91.7154 145.509 88.4355 144.989C85.1557 144.468 81.803 145.265 79.1089 147.207C76.4147 149.149 74.5977 152.077 74.0544 155.353L67.3333 197.682C67.0301 199.602 67.176 201.567 67.7594 203.422C68.3429 205.277 69.3481 206.971 70.6963 208.373C72.0444 209.774 73.6988 210.844 75.5298 211.499C77.3607 212.153 79.3184 212.375 81.2494 212.147H81.2509Z" fill="#EFC1B8"/>
<path d="M89.8488 191.291L92.426 191.683C95.4243 192.137 98.4864 191.929 101.395 191.072C104.303 190.215 106.985 188.73 109.252 186.723C111.518 184.717 113.312 182.238 114.506 179.462C115.701 176.687 116.266 173.684 116.162 170.666L115.646 155.72C115.48 150.892 113.61 146.278 110.366 142.686C107.121 139.095 102.71 136.756 97.9053 136.081C95.2216 135.704 92.4897 135.857 89.8654 136.531C87.241 137.205 84.7758 138.386 82.6103 140.009C80.4448 141.631 78.6214 143.662 77.2444 145.986C75.8674 148.31 74.9637 150.881 74.5849 153.553L72.5209 168.109C71.7613 173.466 73.1548 178.905 76.399 183.245C79.6432 187.585 84.4763 190.477 89.8488 191.291Z" fill="#EFC1B8"/>
<path d="M93.4976 176.271C93.0914 177.682 93.3166 179.205 94.1278 180.503C94.9435 181.803 96.2725 182.773 97.8329 183.2C99.3888 183.626 101.047 183.476 102.433 182.779C103.825 182.083 104.839 180.901 105.245 179.49C106.1 176.551 102.762 175.91 99.5215 175.018C96.2811 174.127 94.3523 173.333 93.4976 176.271Z" fill="#24272D"/>
<path fill-rule="evenodd" clip-rule="evenodd" d="M106.908 157.807L105.21 158.479L109.949 170.084L105.869 170.642L106.121 172.426L112.52 171.551L106.908 157.807Z" fill="#25282D"/>
<path d="M100.338 163.898C98.9919 163.898 97.9011 162.807 97.9011 161.462C97.9011 160.116 98.9919 159.025 100.338 159.025C101.683 159.025 102.774 160.116 102.774 161.462C102.774 162.807 101.683 163.898 100.338 163.898Z" fill="#24272D"/>
<path d="M112.52 162.68C111.174 162.68 110.083 161.589 110.083 160.244C110.083 158.898 111.174 157.807 112.52 157.807C113.865 157.807 114.956 158.898 114.956 160.244C114.956 161.589 113.865 162.68 112.52 162.68Z" fill="#24272D"/>
<path d="M110.705 132.327C108.674 128.857 103.816 127.203 100.348 125.147C100.019 125.137 99.692 125.219 99.3676 125.263C97.5416 125.515 95.7186 125.723 93.9043 126.061C87.7986 127.2 80.9983 128.93 75.8873 132.622C72.367 135.164 69.5417 138.445 68.3305 142.668C67.8482 144.349 67.4041 146.474 68.2318 148.133C68.8619 149.396 70.1886 150.345 71.2299 151.242C72.4556 152.297 73.7062 153.306 75.0793 154.165C79.2525 156.776 83.7282 156.947 88.5608 156.83C92.0894 156.745 95.5653 156.369 98.8924 155.136C101.814 154.053 104.58 152.556 107.201 150.88C109.939 149.129 112.573 146.716 113.231 143.369C113.963 139.645 112.557 135.492 110.705 132.327Z" fill="#24272D"/>
<path d="M66.1947 163.036C63.662 158.588 65.2141 152.93 69.6614 150.397C74.1086 147.865 79.767 149.417 82.2997 153.864L86.4691 161.185C89.0017 165.633 87.4496 171.291 83.0024 173.824C78.5551 176.356 72.8968 174.804 70.3641 170.357L66.1947 163.036Z" fill="#EFC1B8"/>
<path fill-rule="evenodd" clip-rule="evenodd" d="M79.6279 165.47L72.8785 155.371L71.1005 156.235L77.8499 166.335L79.6279 165.47Z" fill="#25282D"/>
<path d="M138.388 229.59L139.976 226.047C140.593 224.589 141.395 223.215 142.363 221.958C144.113 219.59 146.5 219.503 148.694 215.196C151.179 210.333 154.018 215.9 153.427 218.514C152.951 220.549 150.986 222.377 151.501 224.421C152.812 224.503 155.312 225.528 162.673 222.102C166.885 220.139 170.172 214.852 176.478 219.193C180.945 223.301 177.679 231.422 175.771 233.205C170.199 238.412 162.422 241.02 156.768 241.665C154.08 241.904 151.372 241.935 148.671 241.76" fill="#EFC1B8"/>
<path d="M78.9356 243.783L138.302 220.608L150.284 243.783L69.6767 285.719C69.6767 285.719 23.8503 230.201 38.7524 215.063" fill="#05AFAA"/>
<path d="M68.9814 229.015L78.4569 243.082L97.7753 235.909" stroke="white" stroke-width="2"/>
<path d="M139.32 248.857C124.563 256.521 91.4423 275.572 85.7582 277.324C80.0741 279.076 69.3618 285.17 67.1756 284.44L38.2085 240.645" stroke="white" stroke-width="2"/>
<circle cx="48.5632" cy="136.488" r="12.7912" fill="#24272D"/>
<path d="M71.1008 171.207C69.6082 169.12 66.8555 166.323 65.5019 163.898C57.7023 167.988 48.5917 173.435 41.492 179.02C34.2808 184.692 26.1503 191.453 22.6334 200.507C18.6859 210.669 15.4933 223.755 19.0215 234.444C19.7867 236.763 23.8664 241.921 24.8088 240.036C25.4179 238.818 26.6687 237.029 27.8543 235.164C31.5754 229.31 39.5981 226.989 45.7847 226.371C53.6167 225.589 62.1556 224.261 69.2026 220.348C74.6409 217.328 78.9984 210.607 79.3276 204.046C79.7091 196.445 80.2962 187.603 76.9888 180.665C75.1855 176.883 73.5294 174.604 71.1008 171.207Z" fill="#24272D"/>
<line x1="328.711" y1="160.81" x2="363.362" y2="160.81" stroke="#F4F9F9" stroke-width="3"/>
<line x1="328.711" y1="170.84" x2="386.158" y2="170.84" stroke="#F4F9F9" stroke-width="3"/>
<line x1="328.711" y1="180.871" x2="378.863" y2="180.871" stroke="#F4F9F9" stroke-width="3"/>
<line x1="328.711" y1="189.989" x2="386.158" y2="189.989" stroke="#F4F9F9" stroke-width="3"/>
<mask id="mask0" mask-type="alpha" maskUnits="userSpaceOnUse" x="305" y="138" width="225" height="163">
<rect x="305.015" y="138.196" width="224.304" height="161.804" fill="#C4C4C4"/>
</mask>
<g mask="url(#mask0)">
<ellipse cx="459.18" cy="278.125" rx="70.8328" ry="73.2633" fill="#113F59"/>
<path d="M481.042 282.226L433.32 276.051L426.519 305.033L477.457 321.606C481.458 322.908 485.748 323.234 489.921 322.552C494.094 321.87 498.013 320.203 501.308 317.709C504.604 315.214 507.168 311.974 508.758 308.293C510.349 304.613 510.913 300.613 510.398 296.671C508.159 279.551 505.74 262.511 504.729 260.294C502.619 255.68 495.228 236.22 450.554 234.461C405.879 232.702 384.303 271.176 384.303 271.176L476.641 348.564" fill="#7BC794"/>
<path fill-rule="evenodd" clip-rule="evenodd" d="M429.851 248.726C432.485 251.104 435.875 252.612 439.506 253.021H439.508C442.088 253.307 444.703 253.029 447.149 252.209C449.595 251.389 451.806 250.049 453.607 248.294C455.408 246.539 456.751 244.416 457.531 242.093C458.301 239.797 458.5 237.367 458.114 234.988C455.72 234.766 453.202 234.599 450.553 234.495C440.825 234.112 432.192 235.637 424.639 238.257L424.908 239.844C425.481 243.23 427.217 246.349 429.851 248.726Z" fill="#113F59"/>
<path d="M477.953 188.049C477.953 207.207 463.439 222.738 445.536 222.738C427.632 222.738 413.119 207.207 413.119 188.049C413.119 168.891 427.632 153.36 445.536 153.36C463.439 153.36 477.953 168.891 477.953 188.049Z" fill="#24272D"/>
<path fill-rule="evenodd" clip-rule="evenodd" d="M448.475 151.897C446.705 154 445.487 156.469 445.194 158.116L443.256 157.813C443.618 155.777 445.02 153.027 446.933 150.756C448.826 148.509 451.429 146.482 454.311 146.302L454.441 148.139C452.412 148.266 450.267 149.77 448.475 151.897Z" fill="#24272D"/>
<path d="M456.811 184.55C459.969 166.004 447.738 148.755 429.493 146.025C411.248 143.294 393.897 156.115 390.739 174.662C387.581 193.208 399.812 210.457 418.057 213.187C436.302 215.918 453.653 203.097 456.811 184.55Z" fill="#24272D"/>
<path d="M439.801 249.93C436.826 249.595 434.049 248.36 431.89 246.411C429.731 244.463 428.309 241.908 427.839 239.133L420.482 195.691C419.936 192.321 420.834 188.886 422.98 186.135C425.126 183.384 428.345 181.54 431.936 181.005C435.526 180.471 439.197 181.289 442.146 183.282C445.095 185.275 447.085 188.28 447.679 191.642L455.037 235.085C455.369 237.056 455.209 239.072 454.571 240.976C453.932 242.88 452.831 244.619 451.356 246.057C449.88 247.495 448.069 248.593 446.064 249.265C444.06 249.937 441.917 250.165 439.803 249.93H439.801Z" fill="#EFC1B8"/>
<path d="M430.251 228.544L427.439 228.946C424.166 229.413 420.825 229.199 417.651 228.318C414.477 227.437 411.55 225.911 409.076 223.849C406.603 221.787 404.645 219.239 403.342 216.386C402.038 213.534 401.422 210.448 401.535 207.346L402.098 191.985C402.279 187.024 404.32 182.282 407.86 178.59C411.401 174.899 416.216 172.496 421.459 171.802C424.388 171.414 427.369 171.571 430.233 172.264C433.097 172.956 435.787 174.171 438.151 175.838C440.514 177.506 442.504 179.593 444.006 181.982C445.509 184.37 446.495 187.012 446.909 189.758L449.161 204.718C449.99 210.223 448.47 215.813 444.929 220.274C441.389 224.735 436.114 227.706 430.251 228.544Z" fill="#EFC1B8"/>
<path fill-rule="evenodd" clip-rule="evenodd" d="M411.898 194.616L413.721 195.302L408.633 207.173L413.013 207.743L412.743 209.568L405.873 208.673L411.898 194.616Z" fill="#25282D"/>
<path d="M419.274 200.943C420.796 200.943 422.029 199.786 422.029 198.36C422.029 196.934 420.796 195.777 419.274 195.777C417.753 195.777 416.52 196.934 416.52 198.36C416.52 199.786 417.753 200.943 419.274 200.943Z" fill="#24272D"/>
<path d="M406.124 199.473C407.645 199.473 408.879 198.317 408.879 196.891C408.879 195.464 407.645 194.308 406.124 194.308C404.602 194.308 403.369 195.464 403.369 196.891C403.369 198.317 404.602 199.473 406.124 199.473Z" fill="#24272D"/>
<path fill-rule="evenodd" clip-rule="evenodd" d="M424.003 212.729C424.004 212.728 424.004 212.728 423.226 212.165C422.448 211.603 422.449 211.603 422.449 211.602L422.449 211.602L422.45 211.601L422.451 211.6C422.451 211.599 422.451 211.6 422.45 211.6L422.441 211.611C422.431 211.622 422.414 211.642 422.389 211.669C422.34 211.722 422.263 211.802 422.159 211.899C421.95 212.094 421.641 212.351 421.248 212.594C420.461 213.081 419.387 213.483 418.097 213.29L417.787 215.109C419.712 215.397 421.28 214.781 422.331 214.131C422.857 213.806 423.266 213.464 423.546 213.203C423.686 213.072 423.796 212.959 423.872 212.877C423.911 212.835 423.941 212.801 423.963 212.776C423.974 212.763 423.983 212.753 423.99 212.745L423.998 212.735L424.001 212.731L424.003 212.729L424.003 212.729Z" fill="#25282D"/>
<path d="M455.459 202.625C459.573 199.06 459.824 193.042 456.021 189.186C452.217 185.329 445.799 185.093 441.685 188.659L434.913 194.53C430.799 198.096 430.548 204.113 434.352 207.969C438.155 211.826 444.573 212.062 448.687 208.496L455.459 202.625Z" fill="#EFC1B8"/>
<path fill-rule="evenodd" clip-rule="evenodd" d="M443.896 198.722L450.634 193.05L451.947 194.42L445.209 200.092L443.896 198.722Z" fill="#25282D"/>
<path d="M458.307 175.769C458.307 185.433 447.752 193.267 434.731 193.267C421.71 193.267 411.155 185.433 411.155 175.769C411.155 166.106 421.71 158.272 434.731 158.272C447.752 158.272 458.307 166.106 458.307 175.769Z" fill="#24272D"/>
<path d="M435.426 275.131L490.623 283.016" stroke="white" stroke-width="3" stroke-miterlimit="10" stroke-linecap="square"/>
<path d="M475.46 281.197L470.607 261.18" stroke="white" stroke-width="3" stroke-miterlimit="10" stroke-linecap="square"/>
<path d="M405.488 220.54H312.51C308.371 220.54 305.015 223.919 305.015 228.087V293.666C305.015 297.834 308.371 301.213 312.51 301.213H405.488C409.628 301.213 412.983 297.834 412.983 293.666V228.087C412.983 223.919 409.628 220.54 405.488 220.54Z" fill="#D6E3EA"/>
<path d="M370.293 262.5V264.97C370.293 266.951 369.547 268.127 369.017 268.653C368.443 269.242 367.339 270.139 365.006 270.139H362.654V266.03H364.219C364.423 266.041 364.626 266.014 364.819 265.95C365.011 265.886 365.188 265.786 365.34 265.657C365.494 265.514 365.611 265.339 365.685 265.147C365.758 264.954 365.784 264.748 365.762 264.544C365.762 264.165 365.762 263.153 365.776 262.5H370.293Z" fill="white"/>
<path d="M356.404 251.389V255.511H354.836C354.632 255.499 354.428 255.526 354.234 255.59C354.041 255.655 353.863 255.754 353.71 255.884C353.557 256.027 353.439 256.202 353.366 256.394C353.294 256.587 353.268 256.793 353.291 256.996C353.291 257.369 353.291 258.381 353.272 259.028H348.765V256.565C348.765 254.588 349.51 253.411 350.04 252.885C350.614 252.291 351.718 251.389 354.053 251.389H356.404Z" fill="white"/>
<path d="M366.123 251.394C366.123 251.394 363.802 251.298 362.171 252.003C360.539 252.708 359.525 253.513 358.732 255.145C357.916 256.822 357.12 260.46 356.062 262.64C355.003 264.82 352.931 264.513 352.931 264.513V270.135C352.931 270.135 355.254 270.23 356.883 269.525C358.512 268.821 359.348 267.949 360.144 266.386C361.242 264.227 361.756 261.066 362.811 258.894C363.078 258.29 363.543 257.782 364.14 257.445C364.736 257.107 365.432 256.958 366.125 257.018L366.123 251.394Z" fill="white"/>
<rect x="305.015" y="295.148" width="132.837" height="6.06563" fill="#D6E3EA"/>
</g>
<g filter="url(#filter1_di)">
<circle r="14.2602" transform="matrix(0.0481663 0.998839 0.998839 -0.0481663 500.208 205.235)" fill="#07A7A2"/>
<path fill-rule="evenodd" clip-rule="evenodd" d="M487.012 199.82C486.242 201.695 485.86 203.764 485.965 205.922C486.344 213.788 493.028 219.858 500.895 219.479C503.868 219.335 506.585 218.291 508.793 216.623C509.762 214.593 510.257 212.3 510.141 209.896C509.767 202.134 503.171 196.145 495.41 196.52C492.199 196.674 489.291 197.894 487.012 199.82Z" fill="#05AFAA"/>
<g opacity="0.2">
<mask id="mask1" mask-type="alpha" maskUnits="userSpaceOnUse" x="485" y="190" width="30" height="30">
<circle r="14.2602" transform="matrix(0.0481663 0.998839 0.998839 -0.0481663 500.208 205.235)" fill="#07A7A2"/>
</mask>
<g mask="url(#mask1)">
<path fill-rule="evenodd" clip-rule="evenodd" d="M509.474 212.297L509.526 213.369L509.803 219.118L507.51 219.229C504.849 219.357 502.524 217.658 501.75 215.236L501.555 215.245L501.354 211.084C501.154 206.923 502.823 204.757 503.902 203.742C504.982 202.728 507.172 201.339 510.872 201.16L516.985 200.866L517.378 209.028L512.07 209.284C511.105 209.331 510.469 209.522 510.017 210.185C509.566 210.849 509.436 211.497 509.474 212.297Z" fill="white"/>
<path fill-rule="evenodd" clip-rule="evenodd" d="M491.677 195.338L491.598 193.713L491.599 193.713L491.468 191.009L492.924 190.939C494.612 190.857 496.088 191.935 496.579 193.472L496.703 193.466L496.746 194.369C496.747 194.383 496.748 194.397 496.748 194.411L496.748 194.411L496.83 196.107C496.957 198.748 495.898 200.123 495.213 200.767C494.528 201.411 493.138 202.292 490.79 202.405L486.91 202.592L486.661 197.412L490.029 197.25C490.642 197.22 491.045 197.099 491.332 196.678C491.619 196.257 491.701 195.846 491.677 195.338Z" fill="white"/>
</g>
</g>
</g>
<path d="M160.534 186.079L156.069 186.909L155.058 191.639L154.047 186.909L149.497 186.079L154.047 185L155.058 180.602L156.069 185L160.534 186.079Z" fill="#113F59"/>
<path d="M494.57 235.539L489.716 236.337L488.583 241.445L487.613 236.337L482.758 235.539L487.613 234.262L488.583 229.633L489.716 234.262L494.57 235.539Z" fill="#FCFCFC"/>
<path d="M475.884 218.729C474.146 218.729 474.146 221.455 475.884 221.455C477.781 221.455 477.781 218.729 475.884 218.729Z" fill="#FCFCFC"/>
<path d="M147.79 197.659C146.052 197.659 146.052 200.385 147.79 200.385C149.687 200.385 149.687 197.659 147.79 197.659Z" fill="#113F59"/>
<defs>
<filter id="filter0_di" x="117.222" y="25.5927" width="98.2371" height="98.2371" filterUnits="userSpaceOnUse" color-interpolation-filters="sRGB">
<feFlood flood-opacity="0" result="BackgroundImageFix"/>
<feColorMatrix in="SourceAlpha" type="matrix" values="0 0 0 0 0 0 0 0 0 0 0 0 0 0 0 0 0 0 127 0"/>
<feOffset dx="20" dy="20"/>
<feGaussianBlur stdDeviation="20"/>
<feColorMatrix type="matrix" values="0 0 0 0 0 0 0 0 0 0 0 0 0 0 0 0 0 0 0.1 0"/>
<feBlend mode="normal" in2="BackgroundImageFix" result="effect1_dropShadow"/>
<feBlend mode="normal" in="SourceGraphic" in2="effect1_dropShadow" result="shape"/>
<feColorMatrix in="SourceAlpha" type="matrix" values="0 0 0 0 0 0 0 0 0 0 0 0 0 0 0 0 0 0 127 0" result="hardAlpha"/>
<feOffset dy="4"/>
<feGaussianBlur stdDeviation="10"/>
<feComposite in2="hardAlpha" operator="arithmetic" k2="-1" k3="1"/>
<feColorMatrix type="matrix" values="0 0 0 0 0.75 0 0 0 0 0.75 0 0 0 0 0.75 0 0 0 0.25 0"/>
<feBlend mode="normal" in2="shape" result="effect2_innerShadow"/>
</filter>
<filter id="filter1_di" x="465.948" y="170.975" width="108.521" height="108.521" filterUnits="userSpaceOnUse" color-interpolation-filters="sRGB">
<feFlood flood-opacity="0" result="BackgroundImageFix"/>
<feColorMatrix in="SourceAlpha" type="matrix" values="0 0 0 0 0 0 0 0 0 0 0 0 0 0 0 0 0 0 127 0"/>
<feOffset dx="20" dy="20"/>
<feGaussianBlur stdDeviation="20"/>
<feColorMatrix type="matrix" values="0 0 0 0 0 0 0 0 0 0 0 0 0 0 0 0 0 0 0.1 0"/>
<feBlend mode="normal" in2="BackgroundImageFix" result="effect1_dropShadow"/>
<feBlend mode="normal" in="SourceGraphic" in2="effect1_dropShadow" result="shape"/>
<feColorMatrix in="SourceAlpha" type="matrix" values="0 0 0 0 0 0 0 0 0 0 0 0 0 0 0 0 0 0 127 0" result="hardAlpha"/>
<feOffset dy="4"/>
<feGaussianBlur stdDeviation="10"/>
<feComposite in2="hardAlpha" operator="arithmetic" k2="-1" k3="1"/>
<feColorMatrix type="matrix" values="0 0 0 0 0.75 0 0 0 0 0.75 0 0 0 0 0.75 0 0 0 0.25 0"/>
<feBlend mode="normal" in2="shape" result="effect2_innerShadow"/>
</filter>
</defs>
</svg>
