<svg width="595" height="300" viewBox="0 0 595 300" fill="none" xmlns="http://www.w3.org/2000/svg">
<path d="M218.729 70.7894C218.729 72.7016 218.407 74.54 217.812 76.2541H22.0737C22.0737 64.4968 31.7276 54.9627 43.6327 54.9627C47.7965 54.9627 51.6887 56.1287 54.9828 58.1537C58.4933 46.4352 69.4696 37.8922 82.4687 37.8922C87.2976 37.8922 91.851 39.0699 95.8417 41.161C101.316 25.9445 116.027 15.05 133.312 15.05C149.42 15.05 163.293 24.5064 169.535 38.1099C170.692 37.9622 171.873 37.8922 173.073 37.8922C184.565 37.8922 194.482 44.5735 199.048 54.2203C199.921 54.0804 200.819 54.0104 201.736 54.0104C211.122 54.0143 218.729 61.5234 218.729 70.7894Z" fill="#EFF6F6"/>
<g filter="url(#filter0_di)">
<circle r="5.39168" transform="matrix(0.0481663 0.998839 0.998839 -0.0481663 39.7589 139.09)" fill="#07A7A2"/>
<path fill-rule="evenodd" clip-rule="evenodd" d="M34.7699 137.042C34.4785 137.751 34.3342 138.533 34.3736 139.35C34.517 142.324 37.0444 144.619 40.0187 144.475C41.1427 144.421 42.1697 144.026 43.0047 143.396C43.3712 142.628 43.5582 141.761 43.5144 140.852C43.3729 137.917 40.8792 135.653 37.9446 135.795C36.7307 135.853 35.6316 136.314 34.7699 137.042Z" fill="#05AFAA"/>
<g opacity="0.2">
<mask id="mask0" mask-type="alpha" maskUnits="userSpaceOnUse" x="34" y="133" width="12" height="12">
<circle r="5.39168" transform="matrix(0.0481663 0.998839 0.998839 -0.0481663 39.7589 139.09)" fill="#07A7A2"/>
</mask>
<g mask="url(#mask0)">
<path fill-rule="evenodd" clip-rule="evenodd" d="M40.342 142.871C40.6347 143.787 41.5139 144.429 42.5198 144.381L43.387 144.339L43.2822 142.165L43.282 142.165L43.2624 141.76C43.2478 141.457 43.297 141.212 43.4677 140.962C43.6385 140.711 43.8789 140.638 44.2438 140.621L46.2508 140.524L46.102 137.438L43.7909 137.549C42.392 137.617 41.5639 138.142 41.1557 138.526C40.7475 138.909 40.1164 139.728 40.1923 141.301L40.2681 142.875L40.342 142.871Z" fill="white"/>
<path fill-rule="evenodd" clip-rule="evenodd" d="M38.3867 134.642C38.201 134.061 37.643 133.653 37.0046 133.684L36.4542 133.711L36.5207 135.09L36.5208 135.09L36.5332 135.348C36.5425 135.54 36.5113 135.695 36.4029 135.854C36.2945 136.013 36.142 136.059 35.9104 136.071L34.6367 136.132L34.7311 138.091L36.1978 138.02C37.0856 137.977 37.6111 137.644 37.8702 137.4C38.1293 137.157 38.5298 136.637 38.4816 135.639L38.4335 134.64L38.3867 134.642Z" fill="white"/>
</g>
</g>
</g>
<path d="M472.575 96.9301C472.575 98.1214 472.776 99.2666 473.146 100.334H594.983C594.983 93.0101 588.974 87.0709 581.564 87.0709C578.972 87.0709 576.55 87.7972 574.499 89.0587C572.314 81.7587 565.482 76.4368 557.391 76.4368C554.385 76.4368 551.551 77.1705 549.067 78.4731C545.659 68.994 536.502 62.2073 525.743 62.2073C515.717 62.2073 507.082 68.0981 503.196 76.5724C502.476 76.4804 501.741 76.4368 500.994 76.4368C493.841 76.4368 487.668 80.5989 484.826 86.6084C484.282 86.5213 483.724 86.4777 483.153 86.4777C477.311 86.4801 472.575 91.1579 472.575 96.9301Z" fill="#EFF6F6"/>
<path d="M116.427 252.733H506.778V289.378C506.778 291.035 505.435 292.378 503.778 292.378H119.427C117.77 292.378 116.427 291.035 116.427 289.378V252.733Z" fill="#113F59"/>
<path d="M116.427 42.2596C116.427 40.6028 117.77 39.2596 119.427 39.2596H503.779C505.435 39.2596 506.779 40.6028 506.779 42.2596V252.733H116.427V42.2596Z" fill="#113F59"/>
<path d="M127.1 51.4087C127.1 49.7518 128.443 48.4087 130.1 48.4087H491.579C493.236 48.4087 494.579 49.7518 494.579 51.4087V252.733H127.1V51.4087Z" fill="white"/>
<path d="M127.1 51.4087C127.1 49.7518 128.443 48.4087 130.1 48.4087H491.579C493.236 48.4087 494.579 49.7518 494.579 51.4087V68.2312H127.1V51.4087Z" fill="#F4F9F9"/>
<circle cx="311.537" cy="269.398" r="6.52173" fill="white"/>
<circle cx="137.774" cy="57.5573" r="3.04962" fill="#113F59"/>
<circle cx="151.497" cy="57.5573" r="3.04962" fill="#F4CD0C"/>
<circle cx="165.22" cy="57.5573" r="3.04962" fill="#7BC794"/>
<rect x="151.497" y="86.5291" width="80.8149" height="70.1413" fill="white"/>
<line x1="290.965" y1="84.2809" x2="290.965" y2="248.96" stroke="#F4F9F9" stroke-width="2"/>
<path d="M286.061 106.913C286.061 108.904 287.6 110.525 289.492 110.525C291.383 110.525 292.922 108.904 292.922 106.913C292.922 104.922 291.383 103.302 289.492 103.302C287.6 103.302 286.061 104.922 286.061 106.913ZM295.591 118.55H296.353V117.747C296.353 114.65 293.958 112.13 291.016 112.13H287.967C285.024 112.13 282.63 114.65 282.63 117.747V118.55H295.591Z" fill="white"/>
<mask id="mask1" mask-type="alpha" maskUnits="userSpaceOnUse" x="140" y="48" width="355" height="205">
<rect x="140.468" y="48.1604" width="354.181" height="204.682" fill="#C4C4C4"/>
</mask>
<g mask="url(#mask1)">
<path opacity="0.6" d="M239.695 217.268C244.141 217.268 247.746 214.114 247.746 210.222C247.746 206.331 244.141 203.177 239.695 203.177C235.249 203.177 231.645 206.331 231.645 210.222C231.645 214.114 235.249 217.268 239.695 217.268Z" fill="#7BC794"/>
<path opacity="0.6" d="M253.527 200.299C255.719 200.299 257.496 198.744 257.496 196.825C257.496 194.907 255.719 193.352 253.527 193.352C251.335 193.352 249.559 194.907 249.559 196.825C249.559 198.744 251.335 200.299 253.527 200.299Z" fill="#7BC794"/>
<path opacity="0.6" d="M425.649 210.322C427.841 210.322 429.618 208.767 429.618 206.848C429.618 204.93 427.841 203.375 425.649 203.375C423.457 203.375 421.681 204.93 421.681 206.848C421.681 208.767 423.457 210.322 425.649 210.322Z" fill="#7BC794"/>
<path opacity="0.8" d="M501.68 249.163C501.68 251.076 499.64 252.573 497.033 252.573H205.64C203.033 252.573 200.993 251.076 200.993 249.163C200.993 247.25 203.033 245.753 205.64 245.753C205.98 245.753 206.433 245.753 206.773 245.836C206.773 242.093 210.853 239.099 215.953 239.099C218.56 239.099 220.827 239.848 222.527 241.095H222.64C222.64 240.679 222.527 240.263 222.527 239.848C222.527 232.778 230.347 227.122 239.868 227.122C242.588 227.122 245.195 227.621 247.575 228.453C247.915 223.629 253.355 219.886 259.929 219.886C265.256 219.886 269.676 222.298 271.489 225.708C274.549 222.132 279.99 219.72 286.223 219.72C287.357 219.72 288.49 219.803 289.51 219.969C289.283 218.971 289.17 217.973 289.17 216.975C289.17 207.41 299.711 199.675 312.745 199.675C318.638 199.675 323.965 201.255 328.159 203.834C328.952 202.753 330.539 202.004 332.352 202.004C333.032 202.004 333.599 202.087 334.166 202.254L346.58 121.683H355.577L368.621 202.254C369.187 202.087 369.754 202.004 370.434 202.004C372.247 202.004 373.834 202.753 374.628 203.834C378.708 201.255 384.148 199.675 390.042 199.675C403.076 199.675 413.616 207.41 413.616 216.975C413.616 217.973 413.503 218.971 413.276 219.969C414.296 219.803 415.429 219.72 416.563 219.72C422.796 219.72 428.237 222.132 431.297 225.708C433.11 222.298 437.644 219.886 442.857 219.886C449.431 219.886 454.871 223.712 455.211 228.453C457.478 227.621 460.085 227.122 462.918 227.122C472.552 227.122 480.259 232.861 480.259 239.848C480.259 240.263 480.259 240.679 480.146 241.095H480.259C481.959 239.848 484.226 239.099 486.833 239.099C491.933 239.099 496.013 242.093 496.013 245.836C496.353 245.753 496.693 245.753 497.147 245.753C499.527 245.67 501.68 247.25 501.68 249.163Z" fill="#7BC794"/>
<path d="M408.854 213.133L401.419 214.601L399.736 222.969L398.052 214.601L390.477 213.133L398.052 211.224L399.736 203.443L401.419 211.224L408.854 213.133Z" fill="#FCFCFC"/>
<path d="M310.076 216.026L304.965 217.062L303.807 222.969L302.65 217.062L297.442 216.026L302.65 214.678L303.807 209.186L304.965 214.678L310.076 216.026Z" fill="#FCFCFC"/>
<path d="M356.019 157.448L350.907 158.485L349.75 164.392L348.593 158.485L343.385 157.448L348.593 156.101L349.75 150.609L350.907 156.101L356.019 157.448Z" fill="#FCFCFC"/>
<path d="M384.473 238.919L378.916 239.832L377.619 245.68L376.508 239.832L370.951 238.919L376.508 237.457L377.619 232.158L378.916 237.457L384.473 238.919Z" fill="#FCFCFC"/>
<path d="M360.613 130.509L357.309 131.052L356.538 134.529L355.877 131.052L352.573 130.509L355.877 129.639L356.538 126.489L357.309 129.639L360.613 130.509Z" fill="#FCFCFC"/>
<path d="M347.175 193.106C345.185 193.106 345.185 196.226 347.175 196.226C349.345 196.226 349.345 193.106 347.175 193.106Z" fill="#FCFCFC"/>
<path d="M275.469 239.049C271.074 239.049 271.074 245.941 275.469 245.941C280.263 245.941 280.263 239.049 275.469 239.049Z" fill="#FCFCFC"/>
<path d="M299.139 229.86C298.407 229.86 298.407 231.009 299.139 231.009C299.938 231.009 299.938 229.86 299.139 229.86Z" fill="#FCFCFC"/>
</g>
<line x1="150.5" y1="171.578" x2="272.908" y2="171.578" stroke="#F4F9F9" stroke-width="4"/>
<line x1="150.5" y1="205.692" x2="272.908" y2="205.692" stroke="#F4F9F9" stroke-width="4"/>
<line x1="150.5" y1="188.635" x2="253.845" y2="188.635" stroke="#F4F9F9" stroke-width="4"/>
<line x1="150.5" y1="222.749" x2="229.765" y2="222.749" stroke="#F4F9F9" stroke-width="4"/>
<path opacity="0.4" d="M171.062 112.227L192.562 103.177L194.512 109.227L178.812 115.327L194.512 121.427L192.562 127.477L171.062 118.427V112.227ZM203.379 139.527H195.729L212.529 91.1275H220.079L203.379 139.527ZM244.706 118.427L223.206 127.477L221.256 121.427L236.956 115.327L221.256 109.227L223.206 103.177L244.706 112.227V118.427Z" fill="#D0EAEA"/>
<path d="M350.774 0.115243C350.616 0.317757 350.707 0.31819 350.543 0.117056C327.259 30.7162 322.928 56.8056 325.697 76.7374C325.795 77.4431 325.903 78.1476 326.02 78.8505L326.022 78.8713C329.717 101.01 342.194 115.422 345.81 119.182L344.663 120.347L347.012 124.956L356.266 124.883L358.543 120.238L357.377 119.091C360.047 116.271 362.459 113.217 364.584 109.967L364.589 109.967C365.214 108.908 365.747 108.967 370.055 113.208L380.546 123.536C382.655 125.612 384.539 125.302 384.52 122.983C384.47 117.372 384.442 116.013 384.333 103.287C384.249 93.656 382.011 90.2681 374.834 87.1493C380.468 66.181 379.073 36.1632 350.774 0.115243Z" fill="#05AFAA"/>
<path d="M356.265 124.883L347.012 124.956L344.662 120.347L346.957 118.016L356.211 117.943L358.542 120.238L356.265 124.883ZM328.215 88.0879C325.439 89.2989 324.754 89.2719 322.458 91.6034C320.163 93.9348 319.267 98.0633 319.321 104.264C319.405 114.111 319.397 115.471 319.467 123.955C319.491 126.729 321.867 124.849 325.008 121.658C331.013 115.558 335.531 110.677 339.047 110.708C343.689 110.749 328.215 88.0879 328.215 88.0879ZM350.657 0.000149758C355.721 6.45191 360.026 12.8183 363.479 18.8686C359.979 17.8307 355.452 16.8472 351.004 16.9169C346.064 16.9916 341.248 18.3585 337.826 19.6127C342.724 10.6026 347.445 4.22316 350.657 0.000149758Z" fill="#05AFAA"/>
<path d="M324.681 66.7224C324.681 81.7726 329.946 92.3793 333.21 99.8328C336.473 107.286 343.353 115.082 346.072 118.395L357.29 118.395" stroke="#113F59" stroke-width="2"/>
<path opacity="0.3" d="M374.834 87.1492C382.009 90.2668 384.253 93.4094 384.328 103.047C384.344 104.999 384.507 121.191 384.519 122.984C384.536 125.303 382.693 125.573 380.546 123.535L379.786 122.787C379.732 115.847 380.485 101.235 379.18 96.9414C378.417 94.4269 375.325 92.3379 373.352 91.2036C371.603 97.0842 364.909 109.326 364.589 109.966C361.713 114.394 358.994 117.315 357.377 119.091L356.612 118.338C356.612 118.338 379.746 72.3056 350.657 0.000320914C379.228 36.3759 380.468 66.1808 374.834 87.1492Z" fill="white"/>
<path d="M357.478 58.3612C353.365 62.5392 346.62 62.5922 342.442 58.4793C338.264 54.3664 338.211 47.6208 342.323 43.4428C346.436 39.2647 353.182 39.2117 357.36 43.3246C361.538 47.4375 361.591 54.1831 357.478 58.3612Z" fill="white"/>
<path d="M343.489 44.5906C345.162 42.8901 347.443 41.9243 349.829 41.9055C352.216 41.8868 354.511 42.8167 356.212 44.4906C357.912 46.1646 358.878 48.4455 358.897 50.8315C358.916 53.2176 357.986 55.5134 356.312 57.2138C354.638 58.9143 352.357 59.8802 349.971 59.8989C347.585 59.9177 345.289 58.9878 343.589 57.3138C341.888 55.6399 340.922 53.359 340.903 50.9729C340.885 48.5869 341.815 46.2911 343.489 44.5906ZM341.157 42.2955C336.41 47.1182 336.472 54.899 341.293 59.6453C346.115 64.3917 353.896 64.3317 358.643 59.509C363.391 54.6863 363.328 46.9055 358.507 42.1591C353.685 37.4128 345.905 37.4728 341.157 42.2955Z" fill="#0B8783"/>
<rect x="92.3076" y="286.899" width="439.465" height="13.1006" fill="#113F59"/>
<line x1="120.401" y1="285.457" x2="506.689" y2="285.457" stroke="white" stroke-width="3"/>
<mask id="mask2" mask-type="alpha" maskUnits="userSpaceOnUse" x="51" y="102" width="120" height="94">
<path d="M51.3291 102.341H170.568V195.461H51.3291V102.341Z" fill="#C4C4C4"/>
</mask>
<g mask="url(#mask2)">
<path d="M96.6299 153.705C96.6299 153.705 115.309 158.617 118.467 163.426C121.624 168.236 125.233 176.592 125.233 176.592L147.357 196.807L150.761 196.448L125.799 199.078L107.834 190.339" fill="#F4CD0C"/>
<path fill-rule="evenodd" clip-rule="evenodd" d="M118.306 193.414L114.412 172.932L115.13 172.795L119.024 193.277L118.306 193.414Z" fill="white"/>
<path d="M93.9183 152.916C76.3732 149.515 69.5432 212.962 69.5432 212.962L118.153 212.962C118.153 212.962 118.299 157.64 93.9183 152.916Z" fill="#F4CD0C"/>
<path fill-rule="evenodd" clip-rule="evenodd" d="M88.4611 175.941L83.9858 182.362L80.365 176.073L77.174 177.35L77.4018 177.919L80.0989 176.84L83.9364 183.506L88.4897 176.973L91.9638 181.412L97.3038 176.863L102.386 181.358L109.091 176.822L116.184 181.232L116.508 180.711L109.077 176.091L102.436 180.584L97.3114 176.051L92.0527 180.53L88.4611 175.941Z" fill="white" stroke="white" stroke-width="0.25"/>
<path fill-rule="evenodd" clip-rule="evenodd" d="M79.7574 177.627L77.1513 178.93L77.4256 179.479L79.5301 178.427L83.7331 185.232L88.4831 179.294L91.7742 183.166L97.3008 178.626L102.386 183.125L109.09 178.59L116.379 183.193L116.707 182.675L109.079 177.857L102.436 182.35L97.3155 177.82L91.8509 182.309L88.4688 178.33L83.7977 184.169L79.7574 177.627Z" fill="white" stroke="white" stroke-width="0.25"/>
<path d="M101.879 200.854C101.879 200.854 105.266 201.404 110.47 202.465C110.47 202.465 112.544 206.165 113.486 206.226C116.441 206.376 124.933 202.995 120.275 194.189C115.616 185.383 101.528 186.939 101.528 186.939" fill="#EFC1B8"/>
<path d="M92.5994 152.771C92.5994 152.771 82.3861 152.132 77.6106 155.006C74.8949 156.642 64.0928 168.86 55.2718 179.107C49.9467 185.292 53.4809 195.046 61.4577 196.216L102.328 196.926L104.822 186.984L76.5027 179.107L85.1387 169.98" fill="#F4CD0C"/>
<path d="M118.603 163.012L118.749 163.741L118.019 163.602L88.8743 158.027L75.6806 157.033L75.0717 156.987L75.2368 156.399C75.3363 156.045 75.6006 155.646 75.9159 155.26C76.2433 154.86 76.6704 154.42 77.1566 153.977C78.1279 153.093 79.3662 152.171 80.5828 151.511C81.2663 151.14 82.1544 150.974 83.1175 150.922C84.0893 150.869 85.1864 150.929 86.3194 151.045C87.7644 151.193 89.3151 151.438 90.7659 151.668C91.5729 151.795 92.3489 151.918 93.0587 152.017L93.0824 152.02L93.1055 152.025C96.2297 152.767 99.7102 153.497 102.968 154.18C104.079 154.413 105.165 154.64 106.201 154.861C108.235 155.294 110.082 155.701 111.558 156.071C113.015 156.435 114.167 156.776 114.773 157.085C115.992 157.709 116.876 158.856 117.482 159.978C118.092 161.107 118.454 162.271 118.603 163.012Z" fill="white" stroke="#24272D"/>
<path d="M115.512 144.899C121.687 137.546 120.753 126.967 113.425 121.27C106.097 115.572 95.1506 116.914 88.9753 124.267C82.7995 131.619 83.7339 142.198 91.0617 147.896C98.3897 153.593 109.336 152.251 115.512 144.899Z" fill="#24272D"/>
<path d="M99.3603 166.503C100.729 166.302 101.995 165.662 102.968 164.677C103.94 163.693 104.565 162.419 104.748 161.048L107.605 139.573C107.8 137.915 107.335 136.247 106.31 134.929C105.285 133.611 103.783 132.749 102.129 132.528C100.474 132.308 98.7987 132.747 97.465 133.752C96.1313 134.756 95.2461 136.244 95.0005 137.895L92.1432 159.37C92.0143 160.345 92.1132 161.336 92.4315 162.266C92.7501 163.196 93.2797 164.039 93.9789 164.73C94.6782 165.421 95.5279 165.941 96.4614 166.248C97.3951 166.556 98.3875 166.643 99.3603 166.503Z" fill="#EFC1B8"/>
<path fill-rule="evenodd" clip-rule="evenodd" d="M101.774 197.122L62.2582 197.02L62.2601 196.289L101.776 196.391L101.774 197.122Z" fill="white"/>
<path fill-rule="evenodd" clip-rule="evenodd" d="M74.6094 177.775L105.236 186.478L105.036 187.181L74.4095 178.479L74.6094 177.775Z" fill="white"/>
<path fill-rule="evenodd" clip-rule="evenodd" d="M76.8545 178.435L82.6928 172.605L83.2097 173.122L77.3714 178.953L76.8545 178.435Z" fill="white"/>
<path fill-rule="evenodd" clip-rule="evenodd" d="M98.0832 165.511L93.0619 152.512L87.2215 151.819C86.9593 153.389 86.9265 158.123 88.3423 161.728C89.4866 164.641 94.6888 166.441 97.1608 166.506C96.8193 167.19 96.9099 168.124 97.6376 168.604C97.3571 170.223 96.7348 172.738 96.5236 173.513C96.2559 174.494 95.8666 175.111 95.5216 175.657C95.1075 176.312 94.7571 176.867 94.7571 177.831C94.7571 179.597 95.5815 180.579 96.5236 181.56C96.5581 181.596 96.5942 181.633 96.6317 181.672C97.4137 182.486 98.8039 183.933 98.8788 184.308L99.3237 169.106C99.4485 169.124 99.5658 169.138 99.6729 169.148L101.408 183.834C102.348 182.337 102.956 181.853 103.456 181.455C103.715 181.248 103.945 181.065 104.178 180.775C104.308 180.613 104.424 180.477 104.528 180.356C105.103 179.682 105.278 179.477 105.146 177.986C105.021 176.581 103.978 175.007 103.279 173.953C103.103 173.686 102.948 173.453 102.836 173.264C102.471 172.65 101.829 170.337 101.404 168.674C101.625 168.501 101.799 168.278 101.861 167.997L102.075 167.015C102.075 166.965 102.071 166.901 102.059 166.83C102.76 166.891 103.671 166.64 105.238 164.877C107.75 162.051 110.46 157.404 111.049 156.357C110.787 156.03 110.292 155.979 109.536 155.979C108.623 155.979 107.557 156.146 106.711 156.278C106.155 156.365 105.693 156.437 105.434 156.437L101.303 165.777C100.821 165.595 99.7218 165.545 98.9201 165.509C98.6081 165.495 98.341 165.483 98.1729 165.466C98.1421 165.481 98.1122 165.496 98.0832 165.511Z" fill="white"/>
<mask id="mask3" mask-type="alpha" maskUnits="userSpaceOnUse" x="75" y="151" width="44" height="34">
<path fill-rule="evenodd" clip-rule="evenodd" d="M118.113 163.111C117.834 161.716 116.728 158.646 114.546 157.53C113.947 157.224 112.686 156.858 110.998 156.447C111.016 156.415 111.033 156.385 111.048 156.358C110.787 156.03 110.292 155.979 109.535 155.979C109.378 155.979 109.215 155.984 109.05 155.993C107.225 155.583 105.102 155.138 102.871 154.67C99.639 153.993 96.1793 153.267 93.0681 152.53L93.061 152.512L92.6299 152.461C92.0045 152.37 91.3433 152.265 90.6641 152.158C86.973 151.573 82.7489 150.905 80.8218 151.95C78.4712 153.226 75.9986 155.537 75.7188 156.534L87.2933 157.406C87.4807 158.854 87.8084 160.371 88.3414 161.728C89.4857 164.641 94.6886 166.441 97.1603 166.506C96.8189 167.19 96.9095 168.124 97.6372 168.604C97.3567 170.223 96.7343 172.738 96.5231 173.513C96.2555 174.494 95.8662 175.111 95.5211 175.657C95.1071 176.313 94.7567 176.867 94.7567 177.831C94.7567 179.597 95.581 180.579 96.5231 181.56L96.6312 181.673C97.4132 182.486 98.8035 183.933 98.8784 184.308L99.3233 169.106C99.448 169.124 99.5654 169.138 99.6724 169.148L101.407 183.834C102.348 182.337 102.955 181.853 103.455 181.455C103.715 181.248 103.945 181.065 104.178 180.775C104.308 180.613 104.424 180.477 104.527 180.356C105.102 179.682 105.277 179.477 105.145 177.986C105.021 176.581 103.978 175.007 103.279 173.953L103.279 173.953C103.102 173.686 102.948 173.453 102.836 173.264C102.471 172.65 101.829 170.337 101.404 168.674C101.625 168.501 101.799 168.278 101.86 167.997L102.075 167.015C102.075 166.965 102.07 166.902 102.059 166.83C102.76 166.891 103.67 166.64 105.237 164.877C106.187 163.809 107.165 162.48 108.045 161.185L118.113 163.111ZM103.701 160.354L101.302 165.777C100.82 165.595 99.7214 165.545 98.9197 165.509C98.6076 165.495 98.3406 165.483 98.1724 165.466C98.1415 165.481 98.1115 165.496 98.0823 165.512L95.4828 158.782L103.701 160.354Z" fill="white"/>
</mask>
<g mask="url(#mask3)">
<path d="M80.0031 150.604L84.1828 158.27H75.8234L80.0031 150.604Z" fill="#F4CD0C"/>
<path d="M89.6559 150.037L93.8357 157.702H85.4762L89.6559 150.037Z" fill="#F4CD0C"/>
<path d="M91.36 159.689L95.5398 167.355H87.1803L91.36 159.689Z" fill="#F4CD0C"/>
<path d="M94.1984 168.774L98.3781 176.44H90.0187L94.1984 168.774Z" fill="#F4CD0C"/>
<path d="M102.716 174.452L105.912 180.414H99.5194L102.716 174.452Z" fill="#F4CD0C"/>
<path d="M102.716 162.528L105.912 168.49H99.5194L102.716 162.528Z" fill="#F4CD0C"/>
<path d="M111.233 152.876L115.412 160.541H107.053L111.233 152.876Z" fill="#F4CD0C"/>
</g>
<mask id="path-68-outside-1" maskUnits="userSpaceOnUse" x="86.0801" y="149.819" width="27" height="37" fill="black">
<rect fill="white" x="86.0801" y="149.819" width="27" height="37"/>
<path fill-rule="evenodd" clip-rule="evenodd" d="M98.0832 165.511L93.0619 152.512L87.2215 151.819C86.9593 153.389 86.9265 158.123 88.3423 161.728C89.4866 164.641 94.6888 166.441 97.1608 166.506C96.8193 167.19 96.9099 168.124 97.6376 168.604C97.3571 170.223 96.7348 172.738 96.5236 173.513C96.2559 174.494 95.8666 175.111 95.5216 175.657C95.1075 176.312 94.7571 176.867 94.7571 177.831C94.7571 179.597 95.5815 180.579 96.5236 181.56C96.5581 181.596 96.5942 181.633 96.6317 181.672C97.4137 182.486 98.8039 183.933 98.8788 184.308L99.3237 169.106C99.4485 169.124 99.5658 169.138 99.6729 169.148L101.408 183.834C102.348 182.337 102.956 181.853 103.456 181.455C103.715 181.248 103.945 181.065 104.178 180.775C104.308 180.613 104.424 180.477 104.528 180.356C105.103 179.682 105.278 179.477 105.146 177.986C105.021 176.581 103.978 175.007 103.279 173.953C103.103 173.686 102.948 173.453 102.836 173.264C102.471 172.65 101.829 170.337 101.404 168.674C101.625 168.501 101.799 168.278 101.861 167.997L102.075 167.015C102.075 166.965 102.071 166.901 102.059 166.83C102.76 166.891 103.671 166.64 105.238 164.877C107.75 162.051 110.46 157.404 111.049 156.357C110.787 156.03 110.292 155.979 109.536 155.979C108.623 155.979 107.557 156.146 106.711 156.278C106.155 156.365 105.693 156.437 105.434 156.437L101.303 165.777C100.821 165.595 99.7218 165.545 98.9201 165.509C98.6081 165.495 98.341 165.483 98.1729 165.466C98.1421 165.481 98.1122 165.496 98.0832 165.511Z"/>
</mask>
<path d="M93.0619 152.512L93.9947 152.151L93.7777 151.59L93.1797 151.519L93.0619 152.512ZM98.0832 165.511L97.1503 165.872L97.5533 166.915L98.5452 166.398L98.0832 165.511ZM87.2215 151.819L87.3393 150.826L86.3922 150.713L86.2351 151.654L87.2215 151.819ZM88.3423 161.728L87.4116 162.094L87.4116 162.094L88.3423 161.728ZM97.1608 166.506L98.0555 166.952L98.7566 165.548L97.1872 165.506L97.1608 166.506ZM97.6376 168.604L98.623 168.775L98.7347 168.13L98.1884 167.77L97.6376 168.604ZM96.5236 173.513L95.5588 173.25L96.5236 173.513ZM95.5216 175.657L94.6761 175.123L94.6761 175.123L95.5216 175.657ZM96.5236 181.56L95.8022 182.252L95.8022 182.252L96.5236 181.56ZM96.6317 181.672L95.9106 182.365L95.9106 182.365L96.6317 181.672ZM98.8788 184.308L97.8982 184.504L99.8784 184.337L98.8788 184.308ZM99.3237 169.106L99.4661 168.116L98.357 167.957L98.3242 169.077L99.3237 169.106ZM99.6729 169.148L100.666 169.031L100.571 168.23L99.7688 168.153L99.6729 169.148ZM101.408 183.834L100.414 183.951L100.747 186.765L102.254 184.366L101.408 183.834ZM103.456 181.455L102.833 180.672L102.833 180.672L103.456 181.455ZM104.178 180.775L103.398 180.149L103.398 180.149L104.178 180.775ZM104.528 180.356L103.767 179.707L104.528 180.356ZM105.146 177.986L106.142 177.898V177.898L105.146 177.986ZM103.279 173.953L104.113 173.4L104.113 173.4L103.279 173.953ZM102.836 173.264L103.696 172.754L103.696 172.754L102.836 173.264ZM101.404 168.674L100.788 167.886L100.273 168.288L100.435 168.921L101.404 168.674ZM101.861 167.997L100.884 167.783L100.884 167.783L101.861 167.997ZM102.075 167.015L103.052 167.229L103.075 167.123V167.015H102.075ZM102.059 166.83L102.145 165.834L100.868 165.723L101.072 166.989L102.059 166.83ZM105.238 164.877L105.985 165.541L105.238 164.877ZM111.049 156.357L111.92 156.848L112.251 156.26L111.83 155.733L111.049 156.357ZM106.711 156.278L106.556 155.29L106.556 155.29L106.711 156.278ZM105.434 156.437V155.437H104.783L104.519 156.033L105.434 156.437ZM101.303 165.777L100.949 166.713L101.835 167.047L102.217 166.182L101.303 165.777ZM98.9201 165.509L98.9654 164.51L98.9654 164.51L98.9201 165.509ZM98.1729 165.466L98.2738 164.471L97.9852 164.441L97.7257 164.571L98.1729 165.466ZM92.1291 152.872L97.1503 165.872L99.016 165.151L93.9947 152.151L92.1291 152.872ZM87.1037 152.812L92.9441 153.505L93.1797 151.519L87.3393 150.826L87.1037 152.812ZM89.2731 161.362C88.6151 159.687 88.2817 157.711 88.1499 155.936C88.0175 154.155 88.0941 152.664 88.2078 151.984L86.2351 151.654C86.0866 152.543 86.0157 154.205 86.1554 156.085C86.2955 157.971 86.6537 160.164 87.4116 162.094L89.2731 161.362ZM97.1872 165.506C96.1193 165.478 94.3368 165.057 92.6784 164.279C90.9831 163.484 89.6995 162.448 89.2731 161.362L87.4116 162.094C88.1295 163.921 90.0191 165.241 91.829 166.09C93.6757 166.956 95.7303 167.468 97.1344 167.505L97.1872 165.506ZM98.1884 167.77C98.074 167.694 98.0076 167.589 97.9812 167.448C97.9522 167.293 97.9775 167.109 98.0555 166.952L96.266 166.059C95.7628 167.068 95.827 168.608 97.0869 169.439L98.1884 167.77ZM96.6523 168.434C96.3794 170.008 95.7659 172.49 95.5588 173.25L97.4883 173.776C97.7036 172.987 98.3349 170.437 98.623 168.775L96.6523 168.434ZM95.5588 173.25C95.3325 174.079 95.0121 174.591 94.6761 175.123L96.3671 176.191C96.7211 175.63 97.1793 174.909 97.4883 173.776L95.5588 173.25ZM94.6761 175.123C94.2541 175.791 93.7571 176.558 93.7571 177.831H95.7571C95.7571 177.176 95.9609 176.834 96.3671 176.191L94.6761 175.123ZM93.7571 177.831C93.7571 180.002 94.8187 181.228 95.8022 182.252L97.2449 180.867C96.3442 179.929 95.7571 179.192 95.7571 177.831H93.7571ZM95.8022 182.252C95.8369 182.289 95.8731 182.326 95.9106 182.365L97.3528 180.98C97.3152 180.941 97.2793 180.903 97.2449 180.867L95.8022 182.252ZM95.9106 182.365C96.3042 182.775 96.8338 183.326 97.2738 183.82C97.4948 184.068 97.6804 184.287 97.8105 184.458C97.8761 184.544 97.9165 184.604 97.9378 184.639C97.9748 184.7 97.9251 184.638 97.8982 184.504L99.8594 184.112C99.8138 183.884 99.7043 183.695 99.6478 183.602C99.5757 183.483 99.4891 183.361 99.4016 183.247C99.2256 183.015 99.0006 182.752 98.767 182.49C98.2976 181.963 97.7412 181.384 97.3528 180.98L95.9106 182.365ZM99.8784 184.337L100.323 169.135L98.3242 169.077L97.8792 184.278L99.8784 184.337ZM99.7688 168.153C99.6768 168.144 99.5749 168.132 99.4661 168.116L99.1814 170.096C99.3221 170.116 99.4549 170.132 99.5769 170.143L99.7688 168.153ZM102.401 183.717L100.666 169.031L98.6798 169.265L100.414 183.951L102.401 183.717ZM102.833 180.672C102.265 181.125 101.574 181.69 100.561 183.302L102.254 184.366C103.123 182.984 103.647 182.581 104.079 182.237L102.833 180.672ZM103.398 180.149C103.243 180.342 103.094 180.464 102.833 180.672L104.079 182.237C104.336 182.032 104.647 181.788 104.958 181.401L103.398 180.149ZM103.767 179.707C103.664 179.827 103.539 179.974 103.398 180.149L104.958 181.401C105.077 181.253 105.185 181.127 105.288 181.005L103.767 179.707ZM104.15 178.074C104.215 178.815 104.183 179.065 104.146 179.183C104.118 179.274 104.081 179.339 103.767 179.707L105.288 181.005C105.55 180.699 105.887 180.325 106.058 179.772C106.22 179.246 106.208 178.648 106.142 177.898L104.15 178.074ZM102.446 174.505C102.799 175.038 103.205 175.652 103.54 176.299C103.881 176.955 104.104 177.563 104.15 178.074L106.142 177.898C106.063 177.004 105.702 176.123 105.316 175.377C104.924 174.622 104.459 173.922 104.113 173.4L102.446 174.505ZM101.976 173.775C102.104 173.99 102.274 174.247 102.446 174.505L104.113 173.4C103.931 173.126 103.793 172.917 103.696 172.754L101.976 173.775ZM100.435 168.921C100.649 169.76 100.92 170.769 101.185 171.65C101.317 172.09 101.451 172.507 101.577 172.86C101.696 173.192 101.832 173.531 101.976 173.775L103.696 172.754C103.658 172.69 103.577 172.511 103.46 172.184C103.35 171.878 103.227 171.497 103.1 171.075C102.847 170.23 102.584 169.251 102.373 168.426L100.435 168.921ZM100.884 167.783C100.884 167.783 100.883 167.784 100.882 167.786C100.881 167.789 100.879 167.794 100.873 167.802C100.861 167.819 100.836 167.848 100.788 167.886L102.02 169.461C102.365 169.192 102.712 168.784 102.837 168.21L100.884 167.783ZM101.099 166.801L100.884 167.783L102.837 168.21L103.052 167.229L101.099 166.801ZM101.072 166.989C101.074 167.001 101.075 167.01 101.075 167.015C101.076 167.021 101.075 167.021 101.075 167.015H103.075C103.075 166.905 103.065 166.788 103.046 166.671L101.072 166.989ZM104.49 164.212C103.006 165.882 102.38 165.854 102.145 165.834L101.973 167.826C103.141 167.927 104.336 167.397 105.985 165.541L104.49 164.212ZM110.177 155.867C109.588 156.915 106.923 161.475 104.49 164.212L105.985 165.541C108.577 162.626 111.332 157.893 111.92 156.848L110.177 155.867ZM109.536 156.979C109.912 156.979 110.131 156.994 110.269 157.024C110.388 157.049 110.331 157.062 110.268 156.982L111.83 155.733C111.504 155.326 111.07 155.15 110.687 155.068C110.323 154.99 109.916 154.979 109.536 154.979V156.979ZM106.865 157.266C107.73 157.131 108.716 156.979 109.536 156.979V154.979C108.531 154.979 107.384 155.161 106.556 155.29L106.865 157.266ZM105.434 157.437C105.793 157.437 106.356 157.346 106.865 157.266L106.556 155.29C105.954 155.384 105.594 155.437 105.434 155.437V157.437ZM102.217 166.182L106.348 156.842L104.519 156.033L100.388 165.373L102.217 166.182ZM98.8748 166.508C99.28 166.526 99.7319 166.547 100.14 166.584C100.583 166.625 100.851 166.676 100.949 166.713L101.656 164.842C101.272 164.697 100.75 164.632 100.322 164.593C99.8603 164.55 99.3619 164.528 98.9654 164.51L98.8748 166.508ZM98.0719 166.461C98.275 166.481 98.5773 166.494 98.8748 166.508L98.9654 164.51C98.6388 164.495 98.407 164.484 98.2738 164.471L98.0719 166.461ZM98.5452 166.398C98.5678 166.386 98.5924 166.374 98.6201 166.36L97.7257 164.571C97.6918 164.588 97.6566 164.606 97.6211 164.624L98.5452 166.398Z" fill="#24272D" mask="url(#path-68-outside-1)"/>
<path d="M82.7838 115.809C82.7838 122.204 87.9684 127.389 94.3638 127.389C100.759 127.389 105.944 122.204 105.944 115.809C105.944 109.414 100.759 104.229 94.3638 104.229C87.9684 104.229 82.7838 109.414 82.7838 115.809Z" fill="#24272D"/>
<path d="M103.491 156.618L104.797 156.785C106.313 156.975 107.852 156.83 109.305 156.358C110.758 155.887 112.09 155.102 113.206 154.058C114.321 153.014 115.193 151.738 115.761 150.319C116.327 148.901 116.575 147.374 116.486 145.849L116.022 138.292C115.875 135.852 114.873 133.542 113.194 131.766C111.514 129.99 109.263 128.861 106.835 128.578C104.098 128.27 101.35 129.058 99.193 130.772C97.0361 132.485 95.6463 134.984 95.328 137.72L94.4755 145.11C94.165 147.828 94.9364 150.559 96.6237 152.713C98.3107 154.866 100.778 156.269 103.491 156.618Z" fill="#EFC1B8"/>
<path d="M114.902 133.694C115.506 131.913 115.109 129.27 114.082 127.742C113.854 127.259 112.395 126.707 111.959 126.404C110.932 125.691 109.782 125.266 108.552 125.048C107.377 124.84 106.431 124.573 105.211 124.573C102.627 124.573 99.8907 124.499 97.3681 125.154C94.9888 125.771 92.4927 127.239 90.5368 128.816C89.5632 129.602 88.2308 130.404 88.5389 131.889C89.0153 134.186 89.9806 135.701 91.7058 137.075C92.5474 137.746 93.5967 139.094 94.7743 139.487C96.9768 139.572 96.6926 139.683 98.896 139.683C101.126 139.683 104.543 140.081 106.747 139.683C109.434 139.198 113.869 136.742 114.902 133.694Z" fill="#24272D"/>
<path d="M93.3146 146.274C94.6512 148.489 97.5305 149.202 99.7459 147.865C101.961 146.529 102.674 143.649 101.337 141.434L99.1378 137.789C97.8014 135.573 94.9221 134.861 92.7067 136.197C90.4913 137.534 89.7789 140.413 91.1156 142.629L93.3146 146.274Z" fill="#EFC1B8"/>
<path fill-rule="evenodd" clip-rule="evenodd" d="M96.9918 144.324L93.869 139.152L94.4952 138.774L97.618 143.946L96.9918 144.324Z" fill="#24272D" stroke="#24272D" stroke-width="0.25"/>
<path fill-rule="evenodd" clip-rule="evenodd" d="M111.969 147.611L110.946 141.886L111.666 141.757L112.859 148.429L109.882 148.149L109.951 147.421L111.969 147.611Z" fill="#24272D" stroke="#24272D" stroke-width="0.25"/>
<path d="M107.444 143.928C108.12 143.911 108.655 143.349 108.637 142.673C108.62 141.997 108.058 141.463 107.383 141.48C106.707 141.497 106.172 142.059 106.19 142.735C106.207 143.411 106.768 143.945 107.444 143.928Z" fill="#24272D"/>
<path d="M114.604 144.086C115.28 144.069 115.814 143.507 115.797 142.831C115.78 142.155 115.218 141.621 114.542 141.638C113.866 141.655 113.332 142.217 113.349 142.893C113.366 143.569 113.927 144.103 114.604 144.086Z" fill="#24272D"/>
<path fill-rule="evenodd" clip-rule="evenodd" d="M110.552 152.169C110.552 152.169 110.552 152.169 110.64 152.524C110.728 152.88 110.727 152.88 110.727 152.88L110.727 152.88L110.726 152.88L110.723 152.881L110.714 152.883C110.706 152.885 110.696 152.887 110.683 152.89C110.657 152.895 110.62 152.903 110.573 152.912C110.478 152.929 110.344 152.95 110.177 152.968C109.844 153.003 109.379 153.024 108.846 152.968C107.778 152.855 106.423 152.43 105.333 151.175L105.885 150.696C106.82 151.772 107.981 152.141 108.922 152.24C109.394 152.29 109.806 152.271 110.1 152.24C110.247 152.225 110.363 152.206 110.441 152.192C110.48 152.185 110.509 152.179 110.528 152.175C110.538 152.173 110.545 152.171 110.549 152.17L110.552 152.169ZM110.553 152.169L110.552 152.169C110.553 152.169 110.553 152.169 110.553 152.169L110.553 152.169Z" fill="#24272D" stroke="#24272D" stroke-width="0.25"/>
</g>
<mask id="mask4" mask-type="alpha" maskUnits="userSpaceOnUse" x="0" y="102" width="192" height="198">
<path d="M0 102.341H191.639V300H0V102.341Z" fill="#C4C4C4"/>
</mask>
<g mask="url(#mask4)">
<path fill-rule="evenodd" clip-rule="evenodd" d="M111.236 192.47L107.382 172.2L108.094 172.065L111.947 192.335L111.236 192.47Z" fill="white"/>
<path d="M97.0238 240.183H58.0703C56.676 240.183 55.5425 239.04 55.5425 237.626V237.579C55.5425 236.169 56.6726 235.023 58.0703 235.023H97.0238C98.4181 235.023 99.5516 236.166 99.5516 237.579V237.626C99.5516 239.04 98.4214 240.183 97.0238 240.183Z" fill="#B2C0C9"/>
<path d="M60.9255 301.979H65.3564L65.3564 239.945H60.9255L60.9255 301.979Z" fill="#B2C0C9"/>
<path d="M95.9097 286.092L100.988 294.469L104.819 300.79C104.819 300.79 112.458 302.706 120.096 302.706C127.734 302.706 129.643 302.706 132.189 301.426C134.735 300.147 125.822 295.675 119.458 292.48C118.204 291.847 117.219 291.093 116.455 290.256C113.322 286.863 113.732 282.14 113.732 279.061C113.732 277.209 116.405 264.635 119.308 251.113C122.422 236.636 125.809 221.071 126.463 216.445C127.737 207.498 123.279 205.582 118.1 205.582C112.911 205.582 99.8306 206.165 99.8306 206.165L98.4557 249.669L95.9097 286.092Z" fill="#EFC1B8"/>
<path d="M98.3374 249.666C98.3374 249.666 100.487 296.764 104.945 296.764C109.4 296.764 119.546 292.658 119.546 292.658C114.527 258.437 125.69 221.069 126.344 216.444C127.619 207.498 123.161 205.582 117.982 205.582C112.793 205.582 99.7122 206.165 99.7122 206.165L98.3374 249.666Z" fill="#24272D"/>
<path d="M100.766 294.474L104.623 300.791C104.623 300.791 112.315 302.706 120.007 302.706C127.699 302.706 129.621 302.706 132.185 301.427C140.535 302.706 131.886 298.589 125.478 295.396C124.214 294.763 120.135 290.757 119.365 289.92C117.537 290.322 109.799 293.335 108.657 294.474C106.466 296.66 104.573 294.782 100.766 294.474Z" fill="#B2C0C9"/>
<path d="M87.6497 254.126C87.72 264.655 87.7066 275.327 87.4019 277.762C87.0203 280.803 85.2828 287.229 84.2081 292.212C83.4817 295.604 83.0532 298.327 83.5687 298.842C84.8476 300.122 93.7861 303.313 101.449 303.313C109.112 303.313 109.752 302.673 106.558 298.842C104.743 296.666 102.725 294.492 101.436 291.261C100.452 288.803 99.8958 285.735 100.17 281.596C100.431 277.668 101.767 267.307 103.294 256.045C105.497 239.827 108.095 221.747 108.473 218.358C109.112 212.608 108.299 205.582 102.641 205.582C96.9766 205.582 63.9876 205.582 63.9876 205.582L63.1306 206.862C63.1306 206.862 56.1069 232.413 67.5998 234.968C79.0961 237.523 87.3952 231.134 87.3952 231.134C87.3952 231.134 87.5727 242.529 87.6497 254.126Z" fill="#EFC1B8"/>
<path d="M82.5267 301.979C83.7985 303.261 93.852 303.313 101.473 303.313C114.097 303.313 113.396 302.672 110.22 298.833C108.416 296.652 102.741 294.475 101.459 291.237C100.557 290.904 98.7228 290.948 98.7228 290.948C94.4879 291.794 89.9911 295.27 89.9911 295.27C89.9911 295.27 86.664 293.713 84.3268 292.189C83.6044 295.589 82.014 301.462 82.5267 301.979Z" fill="#B2C0C9"/>
<path d="M67.6013 234.918C79.099 237.469 87.3992 231.09 87.3992 231.09C87.3992 231.09 82.9699 280.626 83.0436 292.202C83.0436 292.202 87.3331 295.852 89.8878 295.852C92.4425 295.852 102.64 294.027 102.64 294.027C104.843 277.834 108.094 221.721 108.473 218.338C109.112 212.597 108.299 205.582 102.64 205.582C96.9751 205.582 63.9819 205.582 63.9819 205.582L63.1247 206.86C63.1314 206.856 56.1069 232.367 67.6013 234.918Z" fill="#24272D"/>
<path d="M105.401 206.42C106.77 206.725 109.325 208.428 108.595 212.808C107.865 217.189 104.337 248.398 102.664 263.456V290.833V294.027L117.721 301.327" stroke="white"/>
<path d="M113.009 197.327H154.93C158.223 197.327 160.891 194.659 160.891 191.366V164.499C160.891 161.206 158.223 158.538 154.93 158.538H113.009C109.716 158.538 107.048 161.206 107.048 164.499V191.366C107.048 194.659 109.716 197.327 113.009 197.327Z" fill="#D6E3EA"/>
<path d="M138.89 177.644C138.89 175.085 136.817 173.012 134.258 173.012C131.699 173.012 129.626 175.085 129.626 177.644C129.626 180.203 131.699 182.276 134.258 182.276C136.817 182.276 138.89 180.2 138.89 177.644Z" fill="white"/>
<line y1="-1" x2="107.142" y2="-1" transform="matrix(-0.263886 0.964554 -0.907769 -0.41947 35.2969 200.669)" stroke="#05AFAA" stroke-width="2"/>
<line y1="-1" x2="107.142" y2="-1" transform="matrix(0.263886 0.964554 0.907769 -0.41947 156.342 200.669)" stroke="#05AFAA" stroke-width="2"/>
<path d="M8.5344 205.704H179.806C182.34 205.704 184.395 203.649 184.395 201.115V201.03C184.395 198.495 182.34 196.441 179.806 196.441H8.5344C6.00008 196.441 3.94531 198.495 3.94531 201.03V201.118C3.94531 203.652 6.00008 205.704 8.5344 205.704Z" fill="#05AFAA"/>
</g>
<g filter="url(#filter1_di)">
<circle r="10.2276" transform="matrix(-0.96545 0.260589 0.260589 0.96545 446.987 156.018)" fill="#6EBE88"/>
<path fill-rule="evenodd" clip-rule="evenodd" d="M448.758 145.942C447.326 145.689 445.818 145.74 444.322 146.143C438.869 147.615 435.641 153.229 437.113 158.683C437.669 160.744 438.817 162.487 440.325 163.779C441.896 164.147 443.578 164.142 445.245 163.692C450.626 162.239 453.81 156.7 452.358 151.319C451.757 149.094 450.457 147.243 448.758 145.942Z" fill="#7BC794"/>
<g opacity="0.2">
<mask id="mask5" mask-type="alpha" maskUnits="userSpaceOnUse" x="434" y="143" width="26" height="26">
<circle r="10.2276" transform="matrix(-0.96545 0.260589 0.260589 0.96545 446.987 156.018)" fill="#07A7A2"/>
</mask>
<g mask="url(#mask5)">
<path fill-rule="evenodd" clip-rule="evenodd" d="M440.217 158.631C438.639 159.545 437.805 161.435 438.303 163.279L438.732 164.869L442.717 163.793L442.717 163.793L443.461 163.593C444.016 163.443 444.49 163.435 445.024 163.649C445.558 163.864 445.789 164.28 445.97 164.949L446.963 168.629L452.622 167.102L451.478 162.865C450.786 160.3 449.477 158.978 448.6 158.377C447.724 157.776 445.95 156.939 443.065 157.718L440.181 158.496L440.217 158.631Z" fill="white"/>
<path fill-rule="evenodd" clip-rule="evenodd" d="M452.613 148.523L453.74 148.219L453.74 148.219L455.614 147.713L455.887 148.722C456.203 149.893 455.673 151.092 454.672 151.672L454.695 151.757L454.072 151.925C454.062 151.928 454.051 151.931 454.04 151.934L454.04 151.934L452.864 152.251C451.033 152.745 449.908 152.214 449.352 151.833C448.796 151.451 447.965 150.613 447.526 148.985L446.8 146.296L450.391 145.326L451.021 147.662C451.136 148.086 451.283 148.351 451.622 148.487C451.96 148.623 452.261 148.618 452.613 148.523Z" fill="white"/>
</g>
</g>
</g>
<path d="M534.892 88.9961C536.575 88.0233 538.703 87.9836 540.151 89.3952C541.725 89.3952 542.673 89.3033 543.452 90.9075C543.788 91.6001 543.742 93.2843 543.028 93.7799C542.71 94.0005 542.895 93.879 543.148 94.1422C543.592 94.6048 543.546 95.0791 543.546 95.6965C543.546 97.3352 543.434 99.0024 542.834 100.543C542.562 101.24 542.279 102.05 541.702 102.554C541.323 102.886 540.844 103.067 540.434 103.353L540.415 103.366C539.265 104.169 537.988 105.061 536.484 104.655C536.351 104.619 535.748 104.156 535.672 104.198C535.337 104.385 535.124 104.667 534.735 104.802C533.834 105.115 532.862 105.219 531.948 104.896C531.531 104.75 530.747 104.353 531.026 103.762C531.039 103.733 531.106 103.664 531.171 103.602C530.793 103.733 529.86 103.403 529.685 103.311C528.655 102.77 529.084 100.721 529.595 100.029C529.808 99.7406 530.068 99.4608 530.381 99.283C530.399 99.273 530.687 99.15 530.533 99.1308C530.127 99.0798 529.571 98.8762 529.276 98.6004C527.815 97.2369 529.805 94.4645 531.12 93.8376C531.879 93.4757 532.424 93.5311 533.226 93.5541C533.297 93.5561 533.835 93.7237 533.813 93.6959C533.622 93.457 533.29 93.4066 533.095 93.0762C532.858 92.6741 532.853 92.2309 532.953 91.7845C533.225 90.5707 533.81 89.6213 534.892 88.9961Z" fill="#24272D" stroke="#24272D" stroke-linecap="round" stroke-linejoin="round"/>
<path fill-rule="evenodd" clip-rule="evenodd" d="M547.945 109.419C550.86 109.318 553.288 112.212 553.368 115.882L553.844 137.787C553.924 141.457 551.626 144.513 548.711 144.614C545.796 144.715 543.368 141.821 543.288 138.151L542.812 116.246C542.732 112.576 545.03 109.52 547.945 109.419Z" fill="#EFC1B8"/>
<path d="M546.823 119.474C546.422 119.876 543.98 120.312 542.81 120.479L542.96 123.497C544.465 121.988 547.224 119.071 546.823 119.474Z" fill="#24272D"/>
<path d="M543.435 120.476L542.262 120.5C540.896 120.529 539.542 120.258 538.294 119.705C537.046 119.153 535.936 118.333 535.042 117.305C534.149 116.276 533.494 115.063 533.124 113.753C532.753 112.443 532.678 111.068 532.902 109.725L534.008 103.08C534.365 100.932 535.471 98.9782 537.13 97.5622C538.789 96.1462 540.896 95.3584 543.08 95.337C544.3 95.3246 545.51 95.5518 546.642 96.0056C547.773 96.4594 548.804 97.1311 549.676 97.9822C550.547 98.8333 551.242 99.8467 551.72 100.965C552.198 102.084 552.451 103.286 552.463 104.502L552.521 111.124C552.545 113.561 551.605 115.909 549.904 117.66C548.204 119.41 545.879 120.422 543.435 120.476Z" fill="#EFC1B8"/>
<path d="M565.597 145.123L593.662 139.606C594.284 139.484 594.844 140.01 594.758 140.64L591.263 166.619C591.209 167.026 590.894 167.347 590.49 167.412L565.42 171.428C564.849 171.519 564.335 171.072 564.345 170.492L564.844 146.015C564.86 145.578 565.172 145.209 565.597 145.123Z" fill="#113F59"/>
<path d="M567.232 146.737L590.985 142.279C591.607 142.163 592.159 142.689 592.073 143.317L589.117 165.013C589.063 165.415 588.751 165.735 588.352 165.803L567.555 169.271C566.989 169.366 566.475 168.929 566.475 168.358V147.651C566.475 147.203 566.793 146.821 567.232 146.737Z" fill="#F4F9F9"/>
<path d="M591.174 168.668V167.301L549.833 174.29V176.441L590.402 169.584C590.849 169.506 591.174 169.121 591.174 168.668Z" fill="#F4F9F9"/>
<path d="M520.724 130.991C520.724 130.991 518.066 132.462 511.142 129.343C504.215 126.224 492.949 116.82 492.949 116.82C492.949 116.82 492.886 111.209 494.512 109.441C496.139 107.672 496.442 102.728 493.855 105.896C491.269 109.065 490.676 111.129 489.277 110.167C487.878 109.205 484.437 95.9067 482.59 96.4925C480.746 97.0791 483.827 105.797 482.864 107.199C481.904 108.599 480.123 114.797 481.225 116.792C482.327 118.788 506.11 139.079 506.11 139.079C506.11 139.079 513.77 143.529 521.221 142.884C528.668 142.235 520.724 130.991 520.724 130.991Z" fill="#EFC1B8"/>
<path d="M528.763 125.508H543.813L537.793 139.588L525.753 145.119L508.696 142.102L486.622 125.508L492.642 116.457L512.207 123.999C521.237 126.514 524.749 125.508 528.763 125.508Z" fill="#05AFAA"/>
<path d="M543.384 290.948L537.792 211.497L534.072 230.605V290.948H511.004L511.004 230.605C510.781 226.916 513.775 210.555 514.716 206.971L523.244 168.754H559.984L561.873 187.36L559.984 211.497L565.886 290.948H543.384Z" fill="#24272D"/>
<path fill-rule="evenodd" clip-rule="evenodd" d="M545.939 185.865L538.398 212.129L537.204 211.688L544.746 185.424L545.939 185.865Z" fill="white"/>
<path d="M536.673 125.508H552.881C556.547 129.062 563.88 137.59 563.88 143.276V178.811H518.729C520.466 172.042 523.823 148.352 525.675 140.23C527.528 132.107 533.779 127.031 536.673 125.508Z" fill="#05AFAA"/>
<path d="M563.88 134.057C561.472 130.838 555.519 127.017 552.843 125.508L549.833 145.622L559.866 170.765C559.866 170.765 568.395 177.805 570.903 177.805C573.412 177.805 576.723 176.297 577.927 174.285C579.131 172.274 577.425 166.742 576.422 164.228C573.244 155.512 566.288 137.275 563.88 134.057Z" fill="#05AFAA"/>
<path d="M533.33 290.948L537.793 300H497.659L514.377 290.948H533.33Z" fill="#24272D"/>
<path d="M565.441 290.948L569.9 300H529.766L546.485 290.948H565.441Z" fill="#24272D"/>
<path d="M554.415 93.1793C554.415 93.1793 548.51 90.4922 542.603 91.5676C536.695 92.643 529.716 92.1039 530.791 98.5535C531.728 104.189 535.064 103.146 536.149 104.879C537.234 106.615 537.793 110.375 537.793 110.375C537.793 110.375 539.19 109.486 540.803 108.411C542.413 107.335 541.806 108.227 541.806 110.375C541.806 112.523 541.531 115.212 544.216 116.824C546.9 118.436 554.953 118.436 554.953 118.436C554.953 118.436 557.638 111.986 558.712 110.375C559.784 108.763 564.078 98.5535 554.415 93.1793Z" fill="#24272D"/>
<path d="M542.826 112.121C541.901 113.353 540.149 113.604 538.913 112.682C537.677 111.76 537.426 110.013 538.351 108.781L539.3 107.517C540.226 106.284 541.978 106.033 543.214 106.955C544.45 107.878 544.701 109.624 543.776 110.856L542.826 112.121Z" fill="#EFC1B8"/>
<path fill-rule="evenodd" clip-rule="evenodd" d="M542.71 108.728L540.437 111.102L540.068 110.751L542.341 108.377L542.71 108.728Z" fill="#333333"/>
<path d="M537.356 90.5954C536.979 90.5906 536.609 90.6308 536.278 90.6826C535.541 90.7979 534.792 91.0051 534.116 91.484C533.313 92.0525 533.005 92.8076 532.765 93.6105C532.274 95.259 532.042 97.3468 532.602 99.0912C532.63 99.1789 532.658 99.2723 532.688 99.3693C532.787 99.6925 532.898 100.056 533.046 100.38C533.234 100.792 533.503 101.201 533.944 101.5C533.702 101.901 533.563 102.481 533.824 103.284C534.047 103.969 534.318 104.441 534.762 104.776C535.177 105.09 535.702 105.245 536.288 105.417C537.034 105.635 538.023 105.559 538.679 105.481C539.111 105.429 539.547 105.33 539.942 105.239C539.981 105.23 540.02 105.221 540.058 105.212C540.298 105.158 540.671 105.053 540.947 104.765C541 104.803 541.058 104.841 541.124 104.877C541.174 104.905 541.227 104.935 541.282 104.966C541.737 105.221 542.365 105.574 542.947 105.69C543.757 105.852 544.6 105.662 545.26 105.494C546.089 105.284 546.987 105.021 547.8 104.639C548.08 104.508 548.432 104.311 548.746 104.069C548.789 104.335 548.861 104.605 548.984 104.873C549.268 105.495 549.795 106.227 550.509 106.569C551.437 107.013 552.684 106.996 553.701 106.6C554.468 106.302 555.177 105.755 555.5 104.954C555.563 104.99 555.624 105.021 555.684 105.048C555.789 105.096 555.893 105.135 555.984 105.167C556.006 105.175 556.027 105.183 556.048 105.19C556.116 105.215 556.175 105.236 556.234 105.259C556.819 105.492 557.379 105.705 558.134 105.668C558.865 105.631 559.836 105.529 560.595 105.129C561.405 104.703 561.978 103.921 562.253 103.087C562.507 102.315 562.301 101.606 562.135 101.034C561.936 100.349 561.368 99.9351 560.986 99.6577C560.938 99.6229 560.887 99.5841 560.832 99.5428C560.67 99.4211 560.48 99.2778 560.271 99.1527C560.351 99.0841 560.43 99.0075 560.505 98.9208C560.886 98.4816 561.21 97.9334 561.311 97.3365C561.416 96.7172 561.275 96.0713 560.767 95.5102C560.078 94.7489 559.005 94.291 558.202 93.9829C557.663 93.7757 557.152 93.7067 556.635 93.689C556.701 93.6045 556.765 93.5115 556.821 93.4096C556.975 93.1256 556.998 92.7847 556.996 92.5337C556.995 92.3115 556.972 92.0853 556.955 91.9226C556.952 91.892 556.949 91.8637 556.947 91.8381C556.854 90.8694 556.091 90.1322 555.501 89.7072L555.209 90.113L555.501 89.7072C554.398 88.9128 553.198 88.5051 551.857 88.4236C550.963 88.3693 550.002 88.399 549.085 88.7964C548.961 88.8501 548.856 88.8997 548.762 88.9445C548.558 89.0405 548.403 89.1141 548.213 89.1565C548.164 89.1674 548.117 89.1786 548.075 89.1885L548.058 89.1926C548.011 89.2038 547.973 89.2128 547.938 89.22C547.92 89.2238 547.904 89.2267 547.891 89.2289C547.452 88.3628 546.603 87.9188 545.949 87.5767C545.888 87.5451 545.83 87.5143 545.773 87.4842C544.84 86.9879 543.926 86.7515 542.851 86.7961C541.232 86.8632 539.377 87.1651 538.119 88.6139C537.674 89.1267 537.392 89.6251 537.358 90.3884C537.356 90.4474 537.354 90.5182 537.356 90.5954Z" fill="#24272D" stroke="#24272D" stroke-linecap="round" stroke-linejoin="round"/>
<path d="M564.381 141.097V178.308" stroke="white"/>
<path d="M524.75 145.12H532.275" stroke="white"/>
<defs>
<filter id="filter0_di" x="14.3672" y="113.698" width="90.7836" height="90.7837" filterUnits="userSpaceOnUse" color-interpolation-filters="sRGB">
<feFlood flood-opacity="0" result="BackgroundImageFix"/>
<feColorMatrix in="SourceAlpha" type="matrix" values="0 0 0 0 0 0 0 0 0 0 0 0 0 0 0 0 0 0 127 0"/>
<feOffset dx="20" dy="20"/>
<feGaussianBlur stdDeviation="20"/>
<feColorMatrix type="matrix" values="0 0 0 0 0 0 0 0 0 0 0 0 0 0 0 0 0 0 0.1 0"/>
<feBlend mode="normal" in2="BackgroundImageFix" result="effect1_dropShadow"/>
<feBlend mode="normal" in="SourceGraphic" in2="effect1_dropShadow" result="shape"/>
<feColorMatrix in="SourceAlpha" type="matrix" values="0 0 0 0 0 0 0 0 0 0 0 0 0 0 0 0 0 0 127 0" result="hardAlpha"/>
<feOffset dy="4"/>
<feGaussianBlur stdDeviation="10"/>
<feComposite in2="hardAlpha" operator="arithmetic" k2="-1" k3="1"/>
<feColorMatrix type="matrix" values="0 0 0 0 0.75 0 0 0 0 0.75 0 0 0 0 0.75 0 0 0 0.25 0"/>
<feBlend mode="normal" in2="shape" result="effect2_innerShadow"/>
</filter>
<filter id="filter1_di" x="414.448" y="123.478" width="105.079" height="105.079" filterUnits="userSpaceOnUse" color-interpolation-filters="sRGB">
<feFlood flood-opacity="0" result="BackgroundImageFix"/>
<feColorMatrix in="SourceAlpha" type="matrix" values="0 0 0 0 0 0 0 0 0 0 0 0 0 0 0 0 0 0 127 0"/>
<feOffset dx="20" dy="20"/>
<feGaussianBlur stdDeviation="20"/>
<feColorMatrix type="matrix" values="0 0 0 0 0 0 0 0 0 0 0 0 0 0 0 0 0 0 0.1 0"/>
<feBlend mode="normal" in2="BackgroundImageFix" result="effect1_dropShadow"/>
<feBlend mode="normal" in="SourceGraphic" in2="effect1_dropShadow" result="shape"/>
<feColorMatrix in="SourceAlpha" type="matrix" values="0 0 0 0 0 0 0 0 0 0 0 0 0 0 0 0 0 0 127 0" result="hardAlpha"/>
<feOffset dy="4"/>
<feGaussianBlur stdDeviation="10"/>
<feComposite in2="hardAlpha" operator="arithmetic" k2="-1" k3="1"/>
<feColorMatrix type="matrix" values="0 0 0 0 0.75 0 0 0 0 0.75 0 0 0 0 0.75 0 0 0 0.25 0"/>
<feBlend mode="normal" in2="shape" result="effect2_innerShadow"/>
</filter>
</defs>
</svg>
