<svg width="622" height="300" viewBox="0 0 622 300" fill="none" xmlns="http://www.w3.org/2000/svg">
<mask id="mask0" mask-type="alpha" maskUnits="userSpaceOnUse" x="0" y="0" width="622" height="300">
<rect width="621.429" height="300" fill="#C4C4C4"/>
</mask>
<g mask="url(#mask0)">
<path d="M274.448 6.67358H9.9834V12.4067H274.448V6.67358Z" fill="#D2E1E1"/>
<path d="M271.711 9.53564H11.627V235.597H271.711V9.53564Z" fill="white"/>
<mask id="mask1" mask-type="alpha" maskUnits="userSpaceOnUse" x="7" y="11" width="266" height="231">
<path d="M272.042 11.1069H7.36377V241.162H272.042V11.1069Z" fill="#FAFAFA"/>
</mask>
<g mask="url(#mask1)">
<path d="M137.458 286.957C174.031 286.957 203.679 257.309 203.679 220.736C203.679 184.163 174.031 154.515 137.458 154.515C100.885 154.515 71.2373 184.163 71.2373 220.736C71.2373 257.309 100.885 286.957 137.458 286.957Z" fill="#D1E1E3"/>
<path d="M4.71045 50.1301L26.6192 59.012V78.2077H51.4885V59.012L71.0288 73.2231V175.661H51.4885V122.37H13.0002V101.645H4.71045V50.1301Z" fill="white"/>
<path d="M268.886 50.1301L246.977 59.012V78.2077H222.108V59.012L202.567 73.2231V175.661H222.108V122.37H260.596V101.645H268.886V50.1301Z" fill="white"/>
<path d="M41.8522 98.671V110.945L55.4712 115.803V129.147L67.2084 135.315V167.064L84.4854 173.386V182.223H93.9595V228.409H84.4854V229.001H-12.0314L-12.6235 86.2979L41.8522 98.671Z" fill="#F4F9F9"/>
<path d="M231.744 98.671V110.945L218.125 115.803V129.147L206.388 135.315V167.064L189.111 173.386V182.223H179.637V228.409H189.111V229.001H285.628L286.22 86.2979L231.744 98.671Z" fill="#F4F9F9"/>
<path fill-rule="evenodd" clip-rule="evenodd" d="M44.8247 144.52L-7.86475 120.562V237.507H64.4707V153.453L55.5411 149.393V129.279H44.8247V144.52Z" fill="#DDE7E7"/>
<rect x="9.26709" y="154.826" width="8.56604" height="10.4696" fill="#F4F9F9"/>
<rect x="9.26709" y="170.055" width="8.56604" height="11.4214" fill="#F4F9F9"/>
<rect x="9.26709" y="186.235" width="8.56604" height="11.4214" fill="#F4F9F9"/>
<rect x="9.26709" y="202.416" width="8.56604" height="10.4696" fill="#F4F9F9"/>
<rect x="25.4478" y="170.055" width="9.51783" height="11.4214" fill="#F4F9F9"/>
<rect x="25.4478" y="186.235" width="9.51783" height="11.4214" fill="#F4F9F9"/>
<rect x="25.4478" y="202.416" width="9.51783" height="10.4696" fill="#F4F9F9"/>
<rect x="42.5801" y="186.235" width="8.56604" height="11.4214" fill="#F4F9F9"/>
<rect x="42.5801" y="202.416" width="8.56604" height="10.4696" fill="#F4F9F9"/>
<path fill-rule="evenodd" clip-rule="evenodd" d="M228.772 144.519L281.461 120.562V237.507H209.125V153.453L218.056 149.392V129.279H228.772V144.519Z" fill="#E3EEEE"/>
<rect width="8.56604" height="10.4696" transform="matrix(-1 0 0 1 264.329 154.826)" fill="#F4F9F9"/>
<rect width="8.56604" height="11.4214" transform="matrix(-1 0 0 1 264.329 170.055)" fill="#F4F9F9"/>
<rect width="8.56604" height="11.4214" transform="matrix(-1 0 0 1 264.329 186.235)" fill="#F4F9F9"/>
<rect width="8.56604" height="10.4696" transform="matrix(-1 0 0 1 264.329 202.416)" fill="#F4F9F9"/>
<rect width="9.51783" height="11.4214" transform="matrix(-1 0 0 1 248.149 170.055)" fill="#F4F9F9"/>
<rect width="9.51783" height="11.4214" transform="matrix(-1 0 0 1 248.149 186.235)" fill="#F4F9F9"/>
<rect width="9.51783" height="10.4696" transform="matrix(-1 0 0 1 248.149 202.416)" fill="#F4F9F9"/>
<rect width="8.56604" height="11.4214" transform="matrix(-1 0 0 1 231.017 186.235)" fill="#F4F9F9"/>
<rect width="8.56604" height="10.4696" transform="matrix(-1 0 0 1 231.017 202.416)" fill="#F4F9F9"/>
<path d="M146.956 14.5627L144.452 35.8539L147.865 35.7227L151.16 35.8539L148.603 14.5627H146.956Z" fill="#708C9B"/>
<path d="M165.841 180.67H129.462V203.055H165.841V180.67Z" fill="#ECF4F4"/>
<path d="M163.793 131.708H131.566V169.574H163.793V131.708Z" fill="#ECF4F4"/>
<path d="M147.684 127.11L129.5 127.832L131.588 132.864H163.781L165.869 127.832L147.684 127.11Z" fill="#B8C5CD"/>
<path d="M151.944 39.7266H147.715H143.486L132.888 124.019H147.715H162.54L151.944 39.7266Z" fill="#ECF4F4"/>
<path d="M129.5 124.35V118.843C129.5 118.843 135.229 119.268 135.229 124.772C135.232 124.772 129.5 123.925 129.5 124.35Z" fill="#708C9B"/>
<path d="M165.929 124.35V118.843C165.929 118.843 160.2 119.268 160.2 124.772C160.2 124.772 165.929 123.925 165.929 124.35Z" fill="#708C9B"/>
<path d="M147.716 118.221C144.159 119.778 143.493 124.335 143.493 124.335H147.716H151.938C151.938 124.335 151.273 119.775 147.716 118.221Z" fill="#708C9B"/>
<path d="M134.867 129.626C132.995 130.445 132.645 132.843 132.645 132.843H134.867H137.089C137.092 132.843 136.739 130.445 134.867 129.626Z" fill="#708C9B"/>
<path d="M141.339 129.626C139.467 130.445 139.117 132.843 139.117 132.843H141.339H143.562C143.562 132.843 143.212 130.445 141.339 129.626Z" fill="#708C9B"/>
<path d="M147.809 129.626C145.937 130.445 145.587 132.843 145.587 132.843H147.809H150.031C150.035 132.843 149.681 130.445 147.809 129.626Z" fill="#708C9B"/>
<path d="M154.282 129.626C152.41 130.445 152.06 132.843 152.06 132.843H154.282H156.505C156.505 132.843 156.155 130.445 154.282 129.626Z" fill="#708C9B"/>
<path d="M160.755 129.626C158.883 130.445 158.533 132.843 158.533 132.843H160.755H162.977C162.977 132.843 162.627 130.445 160.755 129.626Z" fill="#708C9B"/>
<path d="M165.928 123.172H129.5V127.832H165.928V123.172Z" fill="#ECF4F4"/>
<path d="M147.681 175.272L165.863 174.55L163.775 169.521H131.585L129.497 174.55L147.681 175.272Z" fill="#B8C5CD"/>
<path d="M129.437 179.212H165.865V174.552H129.437V179.212Z" fill="#ECF4F4"/>
<path d="M147.684 211.628L168.238 210.812L165.878 205.124H129.491L127.131 210.812L147.684 211.628Z" fill="#B8C5CD"/>
<path d="M127.061 216.077H168.24V210.81H127.061V216.077Z" fill="#ECF4F4"/>
<path d="M147.69 218.448L170.913 218.142L168.244 216.02H127.134L124.464 218.142L147.69 218.448Z" fill="#B8C5CD"/>
<path d="M124.386 220.111H170.913V218.145H124.386V220.111Z" fill="#ECF4F4"/>
<path d="M147.634 222.746L173.864 222.402L170.854 220.005H124.415L121.405 222.402L147.634 222.746Z" fill="#B8C5CD"/>
<path d="M121.415 229.901H173.864V222.403H121.415V229.901Z" fill="#ECF4F4"/>
<path d="M132.617 124.847H130.785V126.679H132.617V124.847Z" fill="#708C9B"/>
<path d="M137.191 124.847H135.359V126.679H137.191V124.847Z" fill="#708C9B"/>
<path d="M141.771 124.847H139.939V126.679H141.771V124.847Z" fill="#708C9B"/>
<path d="M146.347 124.847H144.515V126.679H146.347V124.847Z" fill="#708C9B"/>
<path d="M150.923 124.847H149.091V126.679H150.923V124.847Z" fill="#708C9B"/>
<path d="M155.499 124.847H153.667V126.679H155.499V124.847Z" fill="#708C9B"/>
<path d="M160.074 124.847H158.242V126.679H160.074V124.847Z" fill="#708C9B"/>
<path d="M164.65 124.847H162.819V126.679H164.65V124.847Z" fill="#708C9B"/>
<path d="M133.366 132.836H131.566V134.852H133.366V132.836Z" fill="#708C9B"/>
<path d="M137.17 132.836H135.37V134.852H137.17V132.836Z" fill="#708C9B"/>
<path d="M140.974 132.836H139.173V134.852H140.974V132.836Z" fill="#708C9B"/>
<path d="M144.78 132.836H142.98V134.852H144.78V132.836Z" fill="#708C9B"/>
<path d="M148.584 132.836H146.784V134.852H148.584V132.836Z" fill="#708C9B"/>
<path d="M152.391 132.836H150.591V134.852H152.391V132.836Z" fill="#708C9B"/>
<path d="M156.195 132.836H154.395V134.852H156.195V132.836Z" fill="#708C9B"/>
<path d="M160.002 132.836H158.202V134.852H160.002V132.836Z" fill="#708C9B"/>
<path d="M163.806 132.836H162.005V134.852H163.806V132.836Z" fill="#708C9B"/>
<path d="M149.6 141.535H151.538V139.381H143.749V141.535H145.683L137.848 144.67V164.057H157.439V144.67L149.6 141.535Z" fill="#708C9B"/>
<path d="M140.313 161.119V146.464L147.642 143.585L154.969 146.464V161.119H140.313Z" fill="#B8C5CD"/>
<path d="M140.232 140.556H135.465V142.319H136.597V164.057H139.1V142.319H140.232V140.556Z" fill="#708C9B"/>
<path d="M159.623 140.556H155.078V142.319H156.21V164.057H158.494V142.319H159.623V140.556Z" fill="#708C9B"/>
<path d="M141.508 162.401H134.591V165.167H141.508V162.401Z" fill="#708C9B"/>
<path d="M160.707 162.401H153.791V165.167H160.707V162.401Z" fill="#708C9B"/>
<path d="M129.437 180.959H165.865V179.212H129.437V180.959Z" fill="#B8C5CD"/>
<path d="M165.841 202.808H129.462V205.18H165.841V202.808Z" fill="#ECF4F4"/>
<path d="M153.06 84.6121H142.368V85.5091H153.06V84.6121Z" fill="#708C9B"/>
<path d="M148.163 56.7671H147.266V113.352H148.163V56.7671Z" fill="#708C9B"/>
<path d="M147.281 85.3282C147.281 84.7843 146.962 84.2999 146.471 83.9967C146.221 83.2903 145.777 82.8184 145.271 82.8184C144.765 82.8184 144.321 83.2903 144.071 83.9967C143.58 84.2999 143.261 84.7812 143.261 85.3282C143.261 85.872 143.58 86.3565 144.071 86.6597C144.321 87.366 144.765 87.838 145.271 87.838C145.777 87.838 146.221 87.366 146.471 86.6597C146.962 86.3565 147.281 85.872 147.281 85.3282Z" fill="#708C9B"/>
<path d="M152.298 85.3282C152.298 84.7843 151.979 84.2999 151.489 83.9967C151.239 83.2903 150.795 82.8184 150.289 82.8184C149.782 82.8184 149.338 83.2903 149.088 83.9967C148.598 84.2999 148.279 84.7812 148.279 85.3282C148.279 85.872 148.598 86.3565 149.088 86.6597C149.338 87.366 149.782 87.838 150.289 87.838C150.795 87.838 151.239 87.366 151.489 86.6597C151.983 86.3565 152.298 85.872 152.298 85.3282Z" fill="#708C9B"/>
<path d="M147.716 100.181C147.319 100.181 146.969 100.412 146.75 100.768C146.234 100.95 145.894 101.271 145.894 101.64C145.894 102.009 146.237 102.331 146.75 102.512C146.969 102.869 147.322 103.1 147.716 103.1C148.11 103.1 148.463 102.869 148.682 102.512C149.197 102.331 149.538 102.009 149.538 101.64C149.538 101.271 149.194 100.95 148.682 100.768C148.463 100.412 148.113 100.181 147.716 100.181Z" fill="#708C9B"/>
<path d="M147.715 111.117C147.249 111.117 146.837 111.389 146.577 111.808C145.974 112.02 145.571 112.402 145.571 112.833C145.571 113.264 145.974 113.642 146.577 113.858C146.837 114.277 147.249 114.549 147.715 114.549C148.181 114.549 148.593 114.277 148.853 113.858C149.456 113.646 149.862 113.264 149.862 112.833C149.862 112.402 149.459 112.023 148.853 111.808C148.593 111.389 148.181 111.117 147.715 111.117Z" fill="#708C9B"/>
<path d="M147.716 70.0909C148.113 70.0909 148.463 69.8596 148.682 69.5033C149.197 69.322 149.538 69.0001 149.538 68.6313C149.538 68.2624 149.194 67.9405 148.682 67.7592C148.463 67.4029 148.11 67.1716 147.716 67.1716C147.322 67.1716 146.969 67.4029 146.75 67.7592C146.234 67.9405 145.894 68.2624 145.894 68.6313C145.894 69.0001 146.237 69.322 146.75 69.5033C146.969 69.8596 147.319 70.0909 147.716 70.0909Z" fill="#708C9B"/>
<path d="M147.715 59.1579C148.181 59.1579 148.593 58.886 148.853 58.4672C149.456 58.2546 149.859 57.8733 149.859 57.442C149.859 57.0107 149.456 56.6325 148.853 56.4168C148.593 55.998 148.181 55.7261 147.715 55.7261C147.249 55.7261 146.837 55.998 146.577 56.4168C145.974 56.6294 145.571 57.0107 145.571 57.442C145.571 57.8733 145.974 58.2515 146.58 58.4672C146.837 58.886 147.249 59.1579 147.715 59.1579Z" fill="#708C9B"/>
<path d="M148.759 39.7266H146.668V46.5746H148.759V39.7266Z" fill="#708C9B"/>
<path d="M145.232 39.7266L144.078 45.7839H142.228L143.381 39.7266H145.232Z" fill="#708C9B"/>
<path d="M150.266 39.7266L151.422 45.7839H153.272L152.116 39.7266H150.266Z" fill="#708C9B"/>
<path d="M152.225 39.3171H143.292V40.1673H152.225V39.3171Z" fill="#B8C5CD"/>
<path d="M152.225 38.4668H143.292V39.3169H152.225V38.4668Z" fill="#ECF4F4"/>
<path d="M152.307 34.7913H143.214V37.0073H152.307V34.7913Z" fill="#708C9B"/>
<path d="M152.802 37.551H142.722V38.5106H152.802V37.551Z" fill="#B8C5CD"/>
<path d="M152.802 36.5447H142.722V37.6199H152.802V36.5447Z" fill="#ECF4F4"/>
<path d="M229.393 229.94H50.0742V240.73H229.393V229.94Z" fill="#708C9B"/>
<path d="M193.795 37.0135C193.204 31.3156 188.391 26.8711 182.537 26.8711C176.714 26.8711 171.923 31.2656 171.288 36.9197C169.322 37.0166 165.975 37.6573 165.975 40.9173H201.821C201.825 40.9173 198.824 37.5698 193.795 37.0135Z" fill="white"/>
<path d="M47.2456 65.5476C49.352 57.6559 56.5478 51.8374 65.106 51.8374C74.0878 51.8374 81.5671 58.2414 83.2427 66.7297C84.793 65.9637 86.5422 65.5328 88.3872 65.5328C94.4413 65.5328 99.4091 70.1545 99.9689 76.0576C101.103 75.531 102.366 75.2327 103.699 75.2327C105.677 75.2327 107.5 75.8845 108.973 76.9819C109.3 76.9414 109.628 76.9009 109.952 76.8678C109.985 76.9046 110.019 76.9414 110.052 76.9783C121.777 75.3911 132.442 80.5945 132.442 80.5945H37.0339C36.8976 80.5945 36.7651 80.5945 36.6325 80.5945C36.5257 80.252 36.4373 79.9022 36.3637 79.545C36.2053 78.779 36.1206 77.9836 36.1206 77.1697C36.1206 70.9204 41.0552 65.8164 47.2456 65.5476Z" fill="#F4F9F9"/>
<path d="M337.356 234.798C336.471 234.798 335.632 234.967 334.878 235.266C333.445 232.741 330.439 231 326.955 231C325.472 231 324.08 231.316 322.853 231.875C321.089 229.09 317.66 227.202 313.719 227.202C309.416 227.202 305.731 229.454 304.147 232.663C302.101 229.809 298.452 227.904 294.274 227.904C292.324 227.904 290.489 228.324 288.87 229.056C286.548 225.388 282.028 222.898 276.835 222.898C272.049 222.898 267.847 225.011 265.394 228.216C263.338 226.613 260.613 225.63 257.617 225.63C253.218 225.63 249.392 227.739 247.422 230.849C246.054 230.229 244.496 229.874 242.847 229.874C240.836 229.874 238.971 230.398 237.413 231.29C235.538 227.943 231.571 225.63 226.967 225.63C222.568 225.63 218.737 227.739 216.772 230.849C215.404 230.229 213.846 229.874 212.197 229.874C208.311 229.874 204.958 231.819 203.359 234.638C202.515 234.304 201.58 234.118 200.595 234.118C196.905 234.118 193.914 236.695 193.914 239.873C193.914 240.185 193.949 240.484 194.004 240.783H224.654H245.873H254.53H276.524H296.783H315.755H343.263C343.313 240.518 343.343 240.246 343.343 239.968C343.343 237.11 340.664 234.798 337.356 234.798Z" fill="#C2D6DA"/>
</g>
<path opacity="0.3" d="M199.581 9.53564H116.683L25.9731 235.597H108.871L199.581 9.53564Z" fill="#F4F9F9"/>
<path d="M274.448 233.624H9.9834V239.357H274.448V233.624Z" fill="#E3EEEE"/>
<path d="M277.654 244.239H6.42871V1.07153L277.654 1.07159V244.239ZM19.8767 238.646H262.877V6.6738H19.8767V238.646Z" fill="#E3EEEE"/>
<rect x="104.348" y="7.02344" width="17.0569" height="226.756" fill="#D2E1E1"/>
<rect x="101.338" y="6.02002" width="17.0569" height="227.759" fill="#E3EEEE"/>
<path d="M394.699 265.185H425.562L419.349 213.759H394.699V265.185Z" fill="#113F59"/>
<path opacity="0.4" d="M394.699 265.185H425.562L419.349 213.759H394.699V265.185Z" fill="white"/>
<path opacity="0.3" d="M367.849 260.878H425.031L425.544 265.185H367.849C366.658 265.185 365.687 264.214 365.687 263.023C365.687 261.831 366.658 260.878 367.849 260.878Z" fill="white"/>
<path opacity="0.1" d="M422.3 238.097H394.699V223.325H420.504L422.3 238.097Z" fill="black"/>
<path d="M274.031 69.1848C274.031 67.528 275.374 66.1848 277.031 66.1848H509.523C511.18 66.1848 512.523 67.528 512.523 69.1848V197.121H274.031V69.1848Z" fill="#708C9B"/>
<path d="M274.031 196.186H512.523V218.438C512.523 220.095 511.18 221.438 509.523 221.438H277.031C275.374 221.438 274.031 220.095 274.031 218.438V196.186Z" fill="#708C9B"/>
<path d="M271.226 197.121H510.652V218.438C510.652 220.095 509.309 221.438 507.652 221.438H274.226C272.569 221.438 271.226 220.095 271.226 218.438V197.121Z" fill="#B8C5CD"/>
<path d="M271.226 69.1851C271.226 67.5282 272.569 66.1851 274.226 66.1851H507.653C509.31 66.1851 510.653 67.5282 510.653 69.1851V197.122H271.226V69.1851Z" fill="#B8C5CD"/>
<path d="M277.772 74.7964C277.772 73.1395 279.116 71.7964 280.772 71.7964H500.17C501.827 71.7964 503.17 73.1395 503.17 74.7964V197.121H277.772V74.7964Z" fill="white"/>
<path d="M491.947 135.394L493.069 137.592L495.505 137.979L493.762 139.725L494.146 142.162L491.947 141.043L489.748 142.162L490.133 139.725L488.389 137.979L490.826 137.592L491.947 135.394Z" fill="#CCE2E2"/>
<path d="M491.947 169.999L493.069 172.196L495.505 172.584L493.762 174.329L494.146 176.766L491.947 175.648L489.748 176.766L490.133 174.329L488.389 172.584L490.826 172.196L491.947 169.999Z" fill="#CCE2E2"/>
<path d="M277.772 74.7964C277.772 73.1395 279.116 71.7964 280.772 71.7964H500.17C501.827 71.7964 503.17 73.1395 503.17 74.7964V83.9548H277.772V74.7964Z" fill="#F4F9F9"/>
<circle cx="381.586" cy="209.28" r="7.48208" fill="white"/>
<circle cx="284.319" cy="77.4081" r="1.87052" fill="#113F59"/>
<circle cx="292.736" cy="77.4081" r="1.87052" fill="#F4CD0C"/>
<circle cx="301.154" cy="77.4081" r="1.87052" fill="#7BC794"/>
<rect x="288.061" y="91.437" width="58.9214" height="50.5041" fill="#E6F5F5"/>
<rect x="292.736" y="95.178" width="49.5688" height="43.022" fill="white"/>
<rect x="288.061" y="154.099" width="58.9214" height="4.6763" fill="#E6F5F5"/>
<rect x="288.061" y="166.258" width="42.0867" height="4.6763" fill="#E6F5F5"/>
<rect x="288.061" y="178.416" width="42.0867" height="4.6763" fill="#E6F5F5"/>
<line x1="358.269" y1="91.4368" x2="358.269" y2="192.445" stroke="#F4F9F9" stroke-width="2"/>
<line x1="376.974" y1="91.4368" x2="376.974" y2="192.445" stroke="#F4F9F9" stroke-width="2"/>
<circle cx="377.378" cy="174.207" r="8.88497" fill="#D6ECEC"/>
<circle cx="377.378" cy="142.408" r="8.88497" fill="#D6ECEC"/>
<circle cx="377.378" cy="110.61" r="8.88497" fill="#D6ECEC"/>
<path d="M375.273 171.279C375.273 172.5 376.217 173.494 377.377 173.494C378.537 173.494 379.481 172.5 379.481 171.279C379.481 170.057 378.537 169.063 377.377 169.063C376.217 169.063 375.273 170.057 375.273 171.279ZM381.118 178.416H381.586V177.924C381.586 176.024 380.117 174.478 378.312 174.478H376.442C374.637 174.478 373.168 176.024 373.168 177.924V178.416H381.118Z" fill="white"/>
<path d="M375.273 139.479C375.273 140.701 376.217 141.695 377.377 141.695C378.537 141.695 379.481 140.701 379.481 139.479C379.481 138.258 378.537 137.264 377.377 137.264C376.217 137.264 375.273 138.258 375.273 139.479ZM381.118 146.617H381.586V146.125C381.586 144.225 380.117 142.679 378.312 142.679H376.442C374.637 142.679 373.168 144.225 373.168 146.125V146.617H381.118Z" fill="white"/>
<path d="M375.273 107.681C375.273 108.902 376.217 109.896 377.377 109.896C378.537 109.896 379.481 108.902 379.481 107.681C379.481 106.459 378.537 105.466 377.377 105.466C376.217 105.466 375.273 106.459 375.273 107.681ZM381.118 114.818H381.586V114.326C381.586 112.426 380.117 110.88 378.312 110.88H376.442C374.637 110.88 373.168 112.426 373.168 114.326V114.818H381.118Z" fill="white"/>
<circle cx="306.298" cy="106.869" r="5.14393" fill="#D6ECEC"/>
<rect x="425.543" y="91.437" width="74.8208" height="8.41734" fill="#D6ECEC"/>
<rect x="393.744" y="104.531" width="39.2809" height="4.6763" fill="#D6ECEC"/>
<rect x="393.744" y="135.394" width="39.2809" height="4.6763" fill="#D6ECEC"/>
<rect x="393.744" y="169.063" width="39.2809" height="4.6763" fill="#D6ECEC"/>
<rect x="393.744" y="113.883" width="51.4393" height="1.87052" fill="#E6F5F5"/>
<rect x="393.744" y="144.747" width="51.4393" height="1.87052" fill="#E6F5F5"/>
<rect x="393.744" y="178.416" width="51.4393" height="1.87052" fill="#E6F5F5"/>
<path d="M491.947 106.401L493.069 108.598L495.505 108.986L493.762 110.732L494.146 113.168L491.947 112.05L489.748 113.168L490.133 110.732L488.389 108.986L490.826 108.598L491.947 106.401Z" fill="#CCE2E2"/>
<path d="M367.849 260.879H425.03L425.544 265.186H367.849C366.657 265.186 365.686 264.214 365.686 263.023C365.686 261.832 366.657 260.879 367.849 260.879Z" fill="#113F59"/>
<path d="M511.105 231.18C501.272 231.18 491.417 231.18 481.584 231.18C480.119 231.18 479.931 228.92 481.395 228.92C491.229 228.92 501.083 228.92 510.917 228.92C512.36 228.92 512.549 231.18 511.105 231.18Z" fill="#7BC794"/>
<path d="M470.747 231.18C467.923 231.18 465.098 231.18 462.274 231.18C460.83 231.18 460.621 228.92 462.085 228.92C464.91 228.92 467.734 228.92 470.559 228.92C472.003 228.92 472.212 231.18 470.747 231.18Z" fill="#7BC794"/>
<g opacity="0.4">
<path opacity="0.4" d="M511.105 231.18C501.272 231.18 491.417 231.18 481.584 231.18C480.119 231.18 479.931 228.92 481.395 228.92C491.229 228.92 501.083 228.92 510.917 228.92C512.36 228.92 512.549 231.18 511.105 231.18Z" fill="white"/>
</g>
<g opacity="0.4">
<path opacity="0.4" d="M470.747 231.18C467.923 231.18 465.098 231.18 462.274 231.18C460.83 231.18 460.621 228.92 462.085 228.92C464.91 228.92 467.734 228.92 470.559 228.92C472.003 228.92 472.212 231.18 470.747 231.18Z" fill="white"/>
</g>
<circle r="17.7285" transform="matrix(0.0481663 0.998839 0.998839 -0.0481663 76.7562 90.8028)" fill="#07A7A2"/>
<path fill-rule="evenodd" clip-rule="evenodd" d="M60.3511 84.071C59.3931 86.4013 58.919 88.9738 59.0484 91.6568C59.52 101.437 67.8305 108.982 77.6103 108.511C81.3067 108.333 84.6839 107.035 87.4298 104.961C88.6343 102.436 89.2492 99.5863 89.1051 96.5971C88.6398 86.9477 80.4402 79.5025 70.7907 79.9678C66.799 80.1603 63.1845 81.6763 60.3511 84.071Z" fill="#05AFAA"/>
<g opacity="0.2">
<mask id="mask2" mask-type="alpha" maskUnits="userSpaceOnUse" x="59" y="73" width="36" height="36">
<circle r="17.7285" transform="matrix(0.0481663 0.998839 0.998839 -0.0481663 76.7562 90.803)" fill="#07A7A2"/>
</mask>
<g mask="url(#mask2)">
<path fill-rule="evenodd" clip-rule="evenodd" d="M88.2771 99.5824L88.4306 102.766L88.4299 102.766L88.6853 108.063L85.8337 108.2C82.5263 108.36 79.6353 106.248 78.6728 103.237L78.4315 103.248L78.3471 101.497C78.345 101.464 78.3432 101.431 78.3416 101.398L78.3423 101.398L78.182 98.0748C77.9326 92.9014 80.0076 90.2086 81.3499 88.9473C82.6922 87.6859 85.4152 85.9591 90.0148 85.7373L97.6141 85.3708L98.1034 95.5186L91.504 95.8369C90.3041 95.8947 89.5138 96.1323 88.9522 96.9571C88.3907 97.782 88.2291 98.5875 88.2771 99.5824Z" fill="white"/>
<path fill-rule="evenodd" clip-rule="evenodd" d="M66.1502 78.4987L66.0527 76.4783L66.0534 76.4783L65.8913 73.1166L67.701 73.0293C69.8001 72.9281 71.6349 74.2687 72.2456 76.1797L72.3984 76.1723L72.4513 77.2683C72.453 77.2943 72.4545 77.3204 72.4557 77.3465L72.4551 77.3466L72.5568 79.4555C72.7151 82.7387 71.3982 84.4476 70.5463 85.2481C69.6945 86.0486 67.9664 87.1445 65.0474 87.2853L60.2246 87.5178L59.9141 81.0777L64.1022 80.8758C64.8637 80.839 65.3653 80.6883 65.7217 80.1648C66.0781 79.6413 66.1806 79.1301 66.1502 78.4987Z" fill="white"/>
</g>
</g>
<rect x="267.485" y="265.396" width="256.261" height="19.6405" fill="#05AFAA"/>
<path d="M374.049 270.927H308.348C306.217 270.927 305.245 269.19 306.194 267.059L322.683 229.982C323.633 227.851 326.134 226.115 328.288 226.115H393.989C396.119 226.115 397.092 227.851 396.143 229.982L379.654 267.059C378.704 269.19 376.203 270.927 374.049 270.927Z" fill="#113F59"/>
<path opacity="0.2" d="M374.049 270.927H308.348C306.217 270.927 305.245 269.19 306.194 267.059L322.683 229.982C323.633 227.851 326.134 226.115 328.288 226.115H393.989C396.119 226.115 397.092 227.851 396.143 229.982L379.654 267.059C378.704 269.19 376.203 270.927 374.049 270.927Z" fill="black"/>
<path d="M396.839 226.115H393.99C396.121 226.115 397.094 227.851 396.144 229.982L379.655 267.059C378.706 269.19 376.205 270.927 374.051 270.927H376.899C379.03 270.927 381.554 269.19 382.504 267.059L398.993 229.982C399.942 227.828 398.97 226.115 396.839 226.115Z" fill="#113F59"/>
<path opacity="0.4" d="M396.839 226.115H393.99C396.121 226.115 397.094 227.851 396.144 229.982L379.655 267.059C378.706 269.19 376.205 270.927 374.051 270.927H376.899C379.03 270.927 381.554 269.19 382.504 267.059L398.993 229.982C399.942 227.828 398.97 226.115 396.839 226.115Z" fill="black"/>
<path d="M372.845 266.665H313.35L329.492 230.375H388.986L372.845 266.665Z" fill="#263238"/>
<path opacity="0.8" d="M372.845 266.665H313.35L329.492 230.375H388.986L372.845 266.665Z" fill="white"/>
<path d="M329.817 245.938C327.339 245.938 324.814 246.147 322.313 246.517L313.374 266.642H354.458C356.218 254.808 346.329 245.938 329.817 245.938Z" fill="#113F59"/>
<path opacity="0.5" d="M329.817 245.938C327.339 245.938 324.814 246.147 322.313 246.517L313.374 266.642H354.458C356.218 254.808 346.329 245.938 329.817 245.938Z" fill="white"/>
<g opacity="0.7">
<path opacity="0.7" d="M354.481 245.105C353.369 249.319 349.062 252.724 344.847 252.724C340.632 252.724 338.108 249.319 339.219 245.105C340.331 240.89 344.638 237.485 348.853 237.485C353.068 237.485 355.593 240.89 354.481 245.105Z" fill="white"/>
</g>
<path d="M306.311 215.524C304.086 216.88 299.452 227.016 297.413 231.914C303.53 237.942 316.099 249.773 317.434 248.869C318.768 247.965 328.742 242.464 333.562 239.826C336.342 235.87 342.349 227.28 344.128 224.567C345.908 221.854 344.87 221.176 344.128 221.176C342.645 222.306 339.234 224.567 337.455 224.567H331.337C334.118 222.871 340.124 219.141 341.904 217.785C343.683 216.428 342.645 213.829 341.904 212.698C340.606 213.64 337.899 215.524 337.455 215.524C336.898 215.524 324.663 220.611 320.214 221.176C316.655 221.628 315.765 219.103 315.765 217.785C317.248 216.089 320.214 212.02 320.214 209.307V203.09C316.507 206.67 308.535 214.168 306.311 215.524Z" fill="#EFC1B8"/>
<path d="M329.211 232.083L335.213 231.044L342.305 227.407" stroke="white"/>
<path d="M328.277 237.695L333.15 237.11L338.565 233.019" stroke="white"/>
<path d="M219.877 232.118L211.422 273.045C210.443 277.778 210.61 282.675 211.909 287.331C213.208 291.987 215.601 296.268 218.891 299.82C226.333 299.82 231.477 299.82 231.477 299.82C238.492 299.82 244.103 299.82 254.391 299.82L319.859 252.356L301.301 217.676L266.604 245.435C266.604 245.435 269.357 211.506 247.073 198.752C215.751 180.829 192.161 205.569 181.881 217.676C173.863 227.128 171.391 234.612 163.322 254.775C158.481 275.465 153.383 299.82 153.383 299.82L218.891 299.82" fill="#7BC794"/>
<path fill-rule="evenodd" clip-rule="evenodd" d="M210.116 280.495L218.76 231.238L220.257 231.569L211.604 280.879L211.598 280.905C210.716 284.667 211.709 290.797 215.522 295.02L214.45 296.241C210.254 291.594 209.107 284.849 210.116 280.495Z" fill="white"/>
<rect x="206.02" y="155.166" width="25.1627" height="54.5191" rx="12.5813" transform="rotate(-8.55206 206.02 155.166)" fill="#EFC1B8"/>
<path d="M231.457 187.28L234.12 187.015C237.211 186.703 240.208 185.724 242.898 184.149C245.588 182.574 247.904 180.441 249.682 177.902C251.461 175.363 252.657 172.481 253.187 169.459C253.717 166.437 253.567 163.351 252.747 160.42L248.688 145.898C247.376 141.209 244.42 137.159 240.338 134.459C236.257 131.76 231.312 130.582 226.371 131.134C220.797 131.757 215.658 134.533 212.084 138.849C208.511 143.166 206.795 148.67 207.314 154.152L208.716 168.936C209.231 174.378 211.908 179.356 216.166 182.791C220.424 186.225 225.919 187.838 231.457 187.28Z" fill="#EFC1B8"/>
<path d="M240.609 126.039C234.512 140.605 218.343 147.612 203.82 150.235C206.063 148.557 200.592 149.135 199.962 148.981C198.202 148.551 196.399 148.561 194.633 147.96C191.213 146.794 189.248 143.278 188.637 139.896C187.197 131.919 195.281 124.85 201.883 122.003C208.161 119.295 214.457 117.046 221.176 115.627C226.13 114.581 230.455 113.729 232.952 108.962C233.709 107.516 234.271 101.225 235.776 100.953C237.978 100.555 240.495 108.648 240.752 110.075C241.713 115.394 242.778 120.856 240.609 126.039Z" fill="#24272D"/>
<path d="M219.955 158.324C218.867 156.68 210.786 154.024 207.16 150.826L213.836 168.602L211.537 190.694C208.836 184.733 207.732 183.854 200.131 177.796L199.98 177.676C194.541 173.341 187.062 168.768 184.603 161.065C181.187 150.367 185.282 141.88 188.682 133.657C191.401 127.079 198.88 128.633 202.279 130.231C206.811 132.972 216.692 139.139 219.955 141.88C224.034 145.306 221.315 160.38 219.955 158.324Z" fill="#24272D"/>
<path d="M247.757 146.476L258.065 159.76L251.834 162.087" fill="#EFC1B8"/>
<path d="M243.966 152.119C245.185 151.497 245.669 150.005 245.047 148.786C244.425 147.568 242.933 147.084 241.714 147.706C240.495 148.328 240.011 149.82 240.633 151.039C241.255 152.257 242.747 152.741 243.966 152.119Z" fill="black"/>
<path fill-rule="evenodd" clip-rule="evenodd" d="M242.614 164.409L242.853 165.351C243.03 166.051 243.32 166.475 243.612 166.742C243.908 167.012 244.256 167.166 244.612 167.247C244.972 167.33 245.323 167.334 245.591 167.314C245.723 167.305 245.828 167.29 245.897 167.278C245.931 167.272 245.956 167.268 245.97 167.265L245.981 167.262L246.939 167.029L247.379 168.922L246.416 169.157L246.199 168.224C246.416 169.157 246.415 169.157 246.415 169.157L246.414 169.157L246.411 169.158L246.405 169.159L246.39 169.163C246.378 169.165 246.362 169.169 246.344 169.173C246.307 169.18 246.257 169.19 246.196 169.2C246.074 169.221 245.904 169.244 245.701 169.259C245.299 169.289 244.738 169.286 244.132 169.148C243.521 169.008 242.848 168.725 242.256 168.184C241.659 167.639 241.194 166.877 240.935 165.856L240.696 164.915L242.614 164.409Z" fill="black"/>
<path d="M220.945 172.723L222.008 171.692C225.43 168.376 225.493 162.79 222.148 159.216L215.129 151.716C211.785 148.142 206.3 147.933 202.878 151.25L201.814 152.281C198.392 155.597 198.33 161.182 201.674 164.756L208.694 172.256C212.038 175.83 217.523 176.039 220.945 172.723Z" fill="#EFC1B8"/>
<path fill-rule="evenodd" clip-rule="evenodd" d="M207.159 154.212L218.731 166.265L217.384 167.538L205.812 155.485L207.159 154.212Z" fill="black"/>
<path d="M252.2 148.279C252.2 154.637 246.819 159.86 240.095 159.86C233.37 159.86 227.989 154.637 227.989 148.279C227.989 141.921 233.37 136.698 240.095 136.698C246.819 136.698 252.2 141.921 252.2 148.279Z" stroke="#24272D" stroke-width="2"/>
<line x1="218.598" y1="153.132" x2="228.834" y2="150.457" stroke="#24272D" stroke-width="2"/>
<path d="M339.964 61.0643C330.131 61.0643 320.277 61.0643 310.443 61.0643C309 61.0643 308.79 58.8047 310.255 58.8047C320.088 58.8047 329.943 58.8047 339.776 58.8047C341.22 58.8047 341.429 61.0643 339.964 61.0643Z" fill="#05AFAA"/>
<path d="M299.627 61.0643C296.803 61.0643 293.978 61.0643 291.154 61.0643C289.71 61.0643 289.501 58.8047 290.965 58.8047C293.79 58.8047 296.614 58.8047 299.439 58.8047C300.882 58.8047 301.092 61.0643 299.627 61.0643Z" fill="#05AFAA"/>
<g opacity="0.4">
<path opacity="0.4" d="M339.964 61.0643C330.131 61.0643 320.277 61.0643 310.443 61.0643C309 61.0643 308.79 58.8047 310.255 58.8047C320.088 58.8047 329.943 58.8047 339.776 58.8047C341.22 58.8047 341.429 61.0643 339.964 61.0643Z" fill="white"/>
</g>
<g opacity="0.4">
<path opacity="0.4" d="M299.627 61.0643C296.803 61.0643 293.978 61.0643 291.154 61.0643C289.71 61.0643 289.501 58.8047 290.965 58.8047C293.79 58.8047 296.614 58.8047 299.439 58.8047C300.882 58.8047 301.092 61.0643 299.627 61.0643Z" fill="white"/>
</g>
<circle r="8.4697" transform="matrix(-1 0 0 1 578.043 225.232)" fill="#DCAD62"/>
<path fill-rule="evenodd" clip-rule="evenodd" d="M581.633 217.558C580.543 217.047 579.326 216.762 578.043 216.762C573.365 216.762 569.573 220.554 569.573 225.232C569.573 227 570.115 228.641 571.042 229.999C572.218 230.632 573.564 230.991 574.994 230.991C579.609 230.991 583.351 227.25 583.351 222.634C583.351 220.725 582.71 218.965 581.633 217.558Z" fill="#F4CD0C"/>
<path d="M328.482 121.365L305.83 138.2H343.24L328.482 121.365Z" fill="#D6ECEC"/>
<path d="M309.725 121.365L292.736 138.2H320.794L309.725 121.365Z" fill="#D6ECEC"/>
<path d="M444.249 106.401C445.745 106.401 448.925 107.804 449.393 108.739L443.781 110.61L441.443 111.545C440.352 111.857 440.04 112.48 438.169 112.48C436.299 112.48 435.831 114.351 434.896 113.416C434.896 111.545 434.707 109.983 437.702 108.272C440.975 106.401 442.378 106.401 444.249 106.401Z" fill="#EFC1B8"/>
<path d="M452.198 126.509C452.198 126.509 434.896 119.495 438.637 113.883C440.05 110.311 445.183 109.674 445.183 109.674C445.183 109.674 448.228 105.439 449.633 106.461C451.038 107.484 455.259 114.74 454.823 115.966C454.387 117.192 457.573 120.466 457.573 120.466" fill="#EFC1B8"/>
<path d="M439.09 114.348C439.09 114.348 442.037 111.475 442.78 110.75" stroke="white" stroke-linecap="square"/>
<path d="M434.896 113.464C434.896 113.464 435.625 110.145 435.831 109.207" stroke="white" stroke-linecap="square"/>
<path d="M446.353 113.413L462.608 105.447C463.506 105.002 463.945 104.007 463.567 103.233L463.067 102.195C462.689 101.42 461.633 101.142 460.723 101.604L444.468 109.571L432.851 114.294L428.943 118.685C428.366 119.328 428.794 120.214 429.654 120.151L435.531 119.738L446.353 113.413Z" fill="#263238"/>
<path d="M435.018 113.383L437.554 118.522L444.255 114.627L442.209 110.468L435.018 113.383Z" fill="#263238"/>
<path opacity="0.6" d="M435.018 113.383L437.554 118.522L444.255 114.627L442.209 110.468L435.018 113.383Z" fill="white"/>
<path d="M443.781 106.869C442.659 107.243 441.755 108.272 441.443 108.739L442.846 111.077L447.99 112.948H448.925L450.328 114.818L453.601 112.948C452.822 111.233 451.076 107.617 450.328 106.869C449.58 106.121 448.769 105.622 448.457 105.466C447.366 105.778 444.903 106.495 443.781 106.869Z" fill="#EFC1B8"/>
<path fill-rule="evenodd" clip-rule="evenodd" d="M445.34 107.296L439.572 114.113C439.572 114.113 443.996 115.736 446.969 112.841" fill="#EFC1B8"/>
<path d="M445.34 107.296L439.572 114.113C439.572 114.113 443.996 115.736 446.969 112.841" stroke="white" stroke-linecap="square"/>
<path d="M445.562 119.936C445.562 119.936 444.642 112.264 448.642 112.295" stroke="white" stroke-linecap="square"/>
<path d="M550.885 192.09C541.638 197.333 530.943 199.449 520.394 198.121C509.847 196.794 500.009 192.095 492.348 184.724L492.942 169.475L480.724 160.179C474.177 155.035 473.709 154.567 468.098 149.423C465.944 147.449 463.422 144.279 457.342 138.2L443.313 123.236L456.407 116.689L468.098 126.977L483.997 138.2C483.997 138.2 500.069 150.13 521.602 155.642C542.563 161.009 548.737 179.623 550.885 192.09Z" fill="#05AFAA"/>
<mask id="mask3" mask-type="alpha" maskUnits="userSpaceOnUse" x="477" y="99" width="99" height="100">
<path d="M575.649 153.867C574.959 161.028 572.709 167.952 569.057 174.152C565.408 180.352 560.446 185.678 554.52 189.757C548.593 193.836 541.845 196.569 534.75 197.765C527.657 198.961 520.387 198.59 513.45 196.678C506.515 194.767 500.081 191.361 494.599 186.7C489.12 182.039 484.724 176.235 481.723 169.696C478.724 163.156 477.19 156.04 477.231 148.846C477.273 141.651 478.887 134.552 481.962 128.048C490.604 109.819 509.983 98.0535 531.227 100.081C558.352 102.668 578.242 126.75 575.649 153.867Z" fill="#F2F6F9"/>
</mask>
<g mask="url(#mask3)">
<path d="M545.295 117.925C543.613 117.826 542.818 117.625 541.138 117.625C538.238 117.625 534.955 118.192 532.27 119.535C530.475 120.433 529.126 121.351 527.789 122.931C526.514 124.438 528.89 125.574 532.631 127.445C534.969 128.848 535.436 128.848 537.307 129.783C538.242 131.653 538.71 131.186 538.71 133.524C538.71 135.862 538.71 136.33 538.242 138.2C537.629 139.427 536.491 144.774 536.372 146.15C536.188 148.259 534.922 153.399 534.501 155.503C533.878 158.617 535.904 163.702 535.904 166.894C535.904 172.97 514.309 173.976 517.128 179.56C521.705 188.625 530.542 192.213 540.289 193.852C550.374 195.549 562.127 189.513 569.818 183.428C573.603 180.433 575.958 177.15 578.898 173.475C580.582 171.37 582.273 169.369 583.356 166.894C584.284 164.772 578.436 165.194 576.988 164.536C570.151 161.428 563.161 157.312 558.757 150.951C556.4 147.547 554.378 143.448 553.544 139.37C552.703 135.258 553.106 130.936 553.025 126.728C552.975 124.118 553.025 120.731 549.971 118.861C549.007 118.468 546.337 117.987 545.295 117.925Z" fill="#24272D"/>
<path d="M546.195 126.51C545.073 122.02 538.713 118.248 537.31 119.027C531.699 124.171 534.411 139.603 534.037 141.474C533.569 143.812 520.472 161.114 532.163 169.999C534.397 171.697 513.925 172.805 512.99 175.611C512.055 178.417 514.977 183.589 516.847 186.862L516.914 186.979C518.817 190.31 523.003 197.64 529.473 199.488C536.02 201.359 558.466 196.683 561.74 197.618C564.359 198.366 572.184 184.524 575.769 177.51C573.119 177.198 565.574 175.92 556.596 173.301C545.373 170.028 541.052 160.137 541.052 155.531C541.052 149.424 549.001 137.733 546.195 126.51Z" fill="#181A1F"/>
<path d="M550.885 192.09C541.637 197.333 530.943 199.449 520.393 198.121C509.846 196.794 500.008 192.095 492.347 184.724L492.942 169.475L479.788 159.711C475.579 154.567 474.644 155.642 468.097 149.423C465.979 147.411 461.551 142.877 455.471 136.797L443.313 123.236L456.407 116.689L468.097 126.977L483.997 138.2C483.997 138.2 500.068 150.13 521.601 155.642C542.563 161.009 548.737 179.623 550.885 192.09Z" fill="#05AFAA"/>
<circle cx="525.148" cy="128.38" r="16.3671" fill="#24272D"/>
<path d="M517.806 113.992C520.448 114.088 522.319 114.132 524.251 116.244C525.029 116.445 523.886 116.916 523.516 117.595C522.644 119.197 521.948 120.878 521.044 122.457C520.18 123.965 518.605 125.156 517.139 126.068C516.243 126.626 514.817 127.586 513.723 127.679C512.167 127.811 510.887 127.749 509.898 126.425C508.937 125.138 508.104 124.474 507.971 122.752C507.831 120.934 509.014 118.663 510.276 117.414C511.532 116.171 515.836 113.92 517.806 113.992Z" fill="#24272D"/>
<path d="M511.673 161.603C510.537 160.781 509.701 159.612 509.292 158.272C508.88 156.933 508.917 155.496 509.396 154.179L516.903 133.567C517.158 132.731 517.583 131.956 518.148 131.289C518.712 130.622 519.408 130.076 520.19 129.686C520.974 129.296 521.827 129.069 522.7 129.02C523.574 128.97 524.447 129.099 525.268 129.397C526.092 129.696 526.843 130.159 527.481 130.758C528.117 131.357 528.627 132.079 528.976 132.881C529.325 133.683 529.508 134.547 529.513 135.421C529.517 136.296 529.344 137.162 529.003 137.968L521.494 158.581C521.151 159.516 520.598 160.359 519.876 161.043C519.155 161.728 518.283 162.236 517.333 162.529C516.381 162.821 515.374 162.888 514.393 162.727C513.411 162.565 512.48 162.178 511.673 161.597V161.603Z" fill="#EFC1B8"/>
<path d="M512.947 150.11L511.699 149.647C510.247 149.108 508.933 148.256 507.85 147.152C506.764 146.047 505.939 144.718 505.425 143.257C504.914 141.797 504.731 140.241 504.889 138.702C505.047 137.162 505.542 135.676 506.338 134.35L510.289 127.779C511.564 125.657 513.545 124.051 515.887 123.245C518.226 122.439 520.776 122.483 523.088 123.37C525.696 124.371 527.798 126.367 528.936 128.918C530.071 131.47 530.148 134.368 529.148 136.976L526.445 144.011C525.451 146.6 523.477 148.693 520.948 149.835C518.422 150.977 515.546 151.076 512.947 150.11Z" fill="#EFC1B8"/>
<path d="M513.942 131.506L508.533 135.898L510.656 137.493" stroke="#333333" stroke-linecap="square"/>
<path d="M515.318 134.609C515.948 134.609 516.46 134.098 516.46 133.468C516.46 132.837 515.948 132.326 515.318 132.326C514.688 132.326 514.176 132.837 514.176 133.468C514.176 134.098 514.688 134.609 515.318 134.609Z" fill="#24272D"/>
<path d="M510.569 132.207C511.199 132.207 511.711 131.696 511.711 131.065C511.711 130.435 511.199 129.924 510.569 129.924C509.939 129.924 509.428 130.435 509.428 131.065C509.428 131.696 509.939 132.207 510.569 132.207Z" fill="#24272D"/>
<path d="M513.807 140.71C513.862 141.437 513.627 142.156 513.152 142.708C512.676 143.261 512.002 143.603 511.275 143.658C510.549 143.713 509.829 143.477 509.278 143.002C508.725 142.528 508.382 141.853 508.328 141.126C508.212 139.612 509.744 139.627 511.256 139.51C512.768 139.394 513.691 139.196 513.807 140.71Z" fill="#24272D"/>
<path d="M517.745 115.457C519.774 114.525 522.511 115.32 524.743 115.49C524.896 115.591 525.019 115.732 525.152 115.856C525.903 116.552 526.665 117.227 527.383 117.959C529.798 120.422 532.339 123.376 533.488 126.683C534.279 128.961 534.519 131.353 533.725 133.66C533.409 134.579 532.934 135.687 532.029 136.178C531.34 136.551 530.434 136.56 529.675 136.636C528.781 136.726 527.891 136.786 526.992 136.74C524.262 136.598 522.172 135.25 520.011 133.657C518.433 132.494 516.972 131.216 515.851 129.595C514.867 128.171 514.086 126.609 513.428 125.012C512.741 123.343 512.311 121.407 513.078 119.674C513.932 117.747 515.894 116.306 517.745 115.457Z" fill="#24272D"/>
<path d="M530.587 143.365C532.827 142.004 533.538 139.086 532.176 136.848C530.816 134.61 527.898 133.899 525.659 135.259L521.974 137.5C519.736 138.861 519.025 141.779 520.385 144.017C521.747 146.256 524.665 146.967 526.902 145.606L530.587 143.365Z" fill="#EFC1B8"/>
<path d="M529.581 138.63L524.354 141.806" stroke="#333333" stroke-linecap="square"/>
</g>
<path d="M481.723 169.696C484.724 176.235 489.12 182.039 494.599 186.7C500.081 191.361 506.515 194.767 513.45 196.678C520.387 198.59 527.657 198.96 534.75 197.765C541.845 196.569 548.593 193.836 554.52 189.757C560.446 185.678 565.408 180.351 569.057 174.152C572.709 167.952 574.959 161.028 575.649 153.867C578.243 126.75 558.352 102.668 531.227 100.081" stroke="#113F59" stroke-width="2"/>
</g>
</svg>
